{"glyphs":{"0":{"ha":842,"x_min":53,"x_max":789,"o":"m 421 -18 q 215 48 297 -18 q 92 226 132 114 q 53 481 53 339 q 92 726 53 618 q 215 898 132 835 q 421 961 297 961 q 627 898 544 961 q 749 726 710 835 q 789 481 789 618 q 749 226 789 339 q 627 48 710 114 q 421 -18 544 -18 m 421 121 q 557 222 514 121 q 600 481 600 324 q 557 726 600 629 q 421 822 514 822 q 285 726 328 822 q 242 481 242 629 q 285 222 242 324 q 421 121 328 121 z "},"1":{"ha":842,"x_min":149,"x_max":768,"o":"m 768 135 l 768 0 l 149 0 l 149 135 l 364 135 l 364 785 l 190 739 l 153 868 l 394 944 l 553 944 l 553 135 l 768 135 z "},"2":{"ha":842,"x_min":56,"x_max":767,"o":"m 79 103 l 311 328 q 528 671 528 535 q 482 782 528 742 q 354 822 436 822 q 228 795 288 822 q 103 711 168 768 l 56 833 q 379 960 190 960 q 549 926 474 960 q 669 831 625 893 q 713 688 713 769 q 651 478 713 585 q 456 249 590 372 l 339 139 l 339 136 l 767 136 l 767 0 l 79 0 l 79 103 z "},"3":{"ha":842,"x_min":51,"x_max":753,"o":"m 546 513 q 695 429 638 490 q 753 282 753 368 q 707 129 753 199 q 574 19 661 60 q 368 -22 488 -22 q 51 67 167 -22 l 97 194 q 226 135 161 154 q 368 117 292 117 q 513 159 460 117 q 565 271 565 201 q 520 378 565 338 q 394 419 475 419 q 247 397 326 419 l 232 532 q 394 578 339 558 q 481 631 449 597 q 514 722 514 665 q 481 793 514 765 q 390 821 447 821 q 128 722 263 821 l 79 844 q 400 958 210 958 q 619 896 536 958 q 701 729 701 833 q 546 513 701 592 z "},"4":{"ha":842,"x_min":32,"x_max":822,"o":"m 822 228 l 667 228 l 667 0 l 478 0 l 478 228 l 32 228 l 32 335 l 488 944 l 667 944 l 667 364 l 822 364 l 822 228 m 478 364 l 478 524 l 482 738 l 339 531 l 214 364 l 478 364 z "},"5":{"ha":842,"x_min":71,"x_max":772,"o":"m 413 592 q 606 554 525 592 q 730 451 688 517 q 772 300 772 385 q 725 138 772 211 q 588 21 678 64 q 376 -22 499 -22 q 71 67 183 -22 l 117 194 q 242 135 179 154 q 376 117 304 117 q 531 163 476 117 q 585 290 585 210 q 538 410 585 367 q 394 453 490 453 q 160 404 294 453 l 126 426 l 169 944 l 744 944 l 744 807 l 338 807 l 317 582 q 413 592 372 592 z "},"6":{"ha":842,"x_min":64,"x_max":778,"o":"m 454 592 q 628 549 554 592 q 740 438 701 506 q 778 293 778 369 q 735 138 778 210 q 611 22 692 65 q 421 -21 531 -21 q 161 78 258 -21 q 64 367 64 176 q 135 652 64 528 q 339 855 207 776 q 650 961 471 933 l 681 829 q 419 726 517 790 q 282 547 322 663 q 454 592 364 592 m 421 115 q 546 163 503 115 q 589 285 589 211 q 548 406 589 357 q 436 454 507 454 q 253 369 328 454 l 253 347 q 298 175 253 235 q 421 115 343 115 z "},"7":{"ha":842,"x_min":54,"x_max":788,"o":"m 592 806 l 592 808 l 54 808 l 54 944 l 788 944 l 788 832 l 342 0 l 125 0 l 592 806 z "},"8":{"ha":842,"x_min":67,"x_max":775,"o":"m 582 499 q 724 398 674 456 q 775 254 775 340 q 737 116 775 178 q 619 18 699 54 q 422 -18 540 -18 q 224 17 304 -18 q 106 110 144 53 q 67 235 67 168 q 242 481 67 389 q 132 569 169 518 q 94 693 94 621 q 131 828 94 768 q 242 925 168 889 q 422 961 315 961 q 601 927 528 961 q 710 838 674 893 q 747 719 747 783 q 706 592 747 646 q 582 499 665 539 m 422 825 q 319 790 354 825 q 283 703 283 754 q 325 615 283 650 q 444 551 367 581 q 558 710 558 610 q 524 792 558 758 q 422 825 490 825 m 422 118 q 546 155 506 118 q 586 246 586 192 q 539 344 586 308 q 397 417 492 381 q 292 345 329 389 q 256 244 256 301 q 297 156 256 193 q 422 118 339 118 z "},"9":{"ha":842,"x_min":64,"x_max":778,"o":"m 421 961 q 681 863 583 961 q 778 574 778 764 q 706 288 778 413 q 503 85 635 164 q 192 -21 371 7 l 161 111 q 422 215 325 150 q 560 394 519 279 q 389 350 478 350 q 215 392 289 350 q 103 503 142 435 q 64 647 64 572 q 107 803 64 731 q 231 918 150 875 q 421 961 311 961 m 407 486 q 589 571 514 486 l 589 593 q 544 765 589 706 q 421 825 499 825 q 296 777 339 825 q 253 656 253 729 q 294 535 253 583 q 407 486 335 486 z "},"\r":{"ha":539,"x_min":0,"x_max":0,"o":""}," ":{"ha":347,"x_min":0,"x_max":0,"o":""},"A":{"ha":943,"x_min":17,"x_max":926,"o":"m 646 256 l 296 256 l 207 0 l 17 0 l 381 957 l 561 957 l 926 0 l 735 0 l 646 256 m 599 389 l 471 758 l 342 389 l 599 389 z "},"Á":{"ha":943,"x_min":17,"x_max":926,"o":"m 17 0 m 646 256 l 296 256 l 207 0 l 17 0 l 381 957 l 561 957 l 926 0 l 735 0 l 646 256 m 599 389 l 471 758 l 342 389 l 599 389 m 569 1251 l 763 1251 l 540 1028 l 385 1028 l 569 1251 z "},"Ă":{"ha":943,"x_min":17,"x_max":926,"o":"m 17 0 m 646 256 l 296 256 l 207 0 l 17 0 l 381 957 l 561 957 l 926 0 l 735 0 l 646 256 m 599 389 l 471 758 l 342 389 l 599 389 m 471 1033 q 294 1094 358 1033 q 228 1264 231 1156 l 360 1265 q 393 1181 364 1210 q 471 1153 422 1153 q 550 1181 521 1153 q 582 1265 579 1210 l 715 1263 q 648 1094 713 1156 q 471 1033 583 1033 z "},"Â":{"ha":943,"x_min":17,"x_max":926,"o":"m 17 0 m 646 256 l 296 256 l 207 0 l 17 0 l 381 957 l 561 957 l 926 0 l 735 0 l 646 256 m 599 389 l 471 758 l 342 389 l 599 389 m 579 1028 l 471 1164 l 363 1028 l 190 1028 l 382 1251 l 560 1251 l 751 1028 l 579 1028 z "},"Ä":{"ha":943,"x_min":17,"x_max":926,"o":"m 17 0 m 646 256 l 296 256 l 207 0 l 17 0 l 381 957 l 561 957 l 926 0 l 735 0 l 646 256 m 599 389 l 471 758 l 342 389 l 599 389 m 310 1047 q 244 1075 272 1047 q 217 1140 217 1103 q 244 1207 217 1179 q 310 1235 272 1235 q 376 1207 349 1235 q 404 1140 404 1179 q 376 1075 404 1103 q 310 1047 349 1047 m 631 1047 q 565 1075 593 1047 q 538 1140 538 1103 q 565 1207 538 1179 q 631 1235 593 1235 q 697 1207 669 1235 q 725 1140 725 1179 q 697 1075 725 1103 q 631 1047 669 1047 z "},"À":{"ha":943,"x_min":17,"x_max":926,"o":"m 17 0 m 646 256 l 296 256 l 207 0 l 17 0 l 381 957 l 561 957 l 926 0 l 735 0 l 646 256 m 599 389 l 471 758 l 342 389 l 599 389 m 182 1251 l 375 1251 l 560 1028 l 404 1028 l 182 1251 z "},"Ā":{"ha":943,"x_min":17,"x_max":926,"o":"m 17 0 m 646 256 l 296 256 l 207 0 l 17 0 l 381 957 l 561 957 l 926 0 l 735 0 l 646 256 m 599 389 l 471 758 l 342 389 l 599 389 m 222 1211 l 719 1211 l 719 1082 l 222 1082 l 222 1211 z "},"Ą":{"ha":943,"x_min":17,"x_max":950,"o":"m 950 -285 q 874 -340 924 -317 q 772 -364 825 -364 q 650 -324 696 -364 q 604 -212 604 -283 q 638 -100 604 -158 q 732 7 671 -42 l 646 256 l 296 256 l 207 0 l 17 0 l 381 957 l 561 957 l 926 0 l 874 0 q 750 -178 750 -104 q 765 -217 750 -204 q 806 -231 779 -231 q 897 -187 850 -231 l 950 -285 m 599 389 l 471 758 l 342 389 l 599 389 z "},"Å":{"ha":943,"x_min":17,"x_max":926,"o":"m 17 0 m 646 256 l 296 256 l 207 0 l 17 0 l 381 957 l 561 957 l 926 0 l 735 0 l 646 256 m 599 389 l 471 758 l 342 389 l 599 389 m 471 1019 q 338 1058 385 1019 q 290 1156 290 1096 q 338 1254 290 1215 q 471 1293 385 1293 q 603 1254 556 1293 q 650 1156 650 1215 q 603 1058 650 1096 q 471 1019 556 1019 m 471 1106 q 515 1119 499 1106 q 531 1156 531 1132 q 515 1192 531 1179 q 471 1206 499 1206 q 427 1192 443 1206 q 411 1156 411 1179 q 427 1119 411 1132 q 471 1106 443 1106 z "},"Ã":{"ha":943,"x_min":17,"x_max":926,"o":"m 17 0 m 646 256 l 296 256 l 207 0 l 17 0 l 381 957 l 561 957 l 926 0 l 735 0 l 646 256 m 599 389 l 471 758 l 342 389 l 599 389 m 215 1031 q 265 1192 222 1133 q 372 1251 307 1251 q 427 1239 403 1251 q 482 1203 451 1226 q 525 1174 508 1183 q 561 1165 542 1165 q 598 1188 583 1165 q 624 1261 613 1210 l 726 1256 q 677 1095 719 1157 q 571 1033 635 1033 q 512 1047 538 1033 q 453 1083 486 1060 q 413 1110 429 1101 q 381 1119 397 1119 q 343 1097 357 1119 q 319 1025 329 1075 l 215 1031 z "},"Æ":{"ha":1390,"x_min":-1,"x_max":1315,"o":"m 1315 135 l 1315 0 l 706 0 l 706 346 l 407 346 l 193 0 l -1 0 l 607 944 l 1289 944 l 1289 810 l 894 810 l 894 539 l 1233 539 l 1233 404 l 894 404 l 894 135 l 1315 135 m 706 481 l 706 829 l 490 481 l 706 481 z "},"B":{"ha":919,"x_min":140,"x_max":860,"o":"m 646 499 q 805 414 750 478 q 860 258 860 350 q 765 67 860 135 q 488 0 669 0 l 140 0 l 140 944 l 488 944 q 734 885 650 944 q 818 708 818 825 q 774 577 818 633 q 646 499 729 521 m 329 810 l 329 565 l 488 565 q 592 597 556 565 q 629 689 629 628 q 593 781 629 753 q 488 810 557 810 l 329 810 m 488 135 q 624 172 576 135 q 671 283 671 210 q 488 431 671 431 l 329 431 l 329 135 l 488 135 z "},"C":{"ha":956,"x_min":69,"x_max":892,"o":"m 572 -18 q 295 49 408 -18 q 126 228 182 117 q 69 474 69 340 q 128 717 69 606 q 304 894 188 828 q 586 961 421 961 q 751 938 674 961 q 883 872 828 914 l 833 743 q 723 800 786 778 q 586 822 660 822 q 409 776 483 822 q 297 651 335 731 q 258 472 258 571 q 294 291 258 371 q 401 165 331 211 q 572 119 472 119 q 722 147 653 119 q 844 214 792 174 l 892 88 q 749 12 832 42 q 572 -18 665 -18 z "},"Ć":{"ha":956,"x_min":69,"x_max":892,"o":"m 69 0 m 572 -18 q 295 49 408 -18 q 126 228 182 117 q 69 474 69 340 q 128 717 69 606 q 304 894 188 828 q 586 961 421 961 q 751 938 674 961 q 883 872 828 914 l 833 743 q 723 800 786 778 q 586 822 660 822 q 409 776 483 822 q 297 651 335 731 q 258 472 258 571 q 294 291 258 371 q 401 165 331 211 q 572 119 472 119 q 722 147 653 119 q 844 214 792 174 l 892 88 q 749 12 832 42 q 572 -18 665 -18 m 665 1251 l 858 1251 l 636 1028 l 481 1028 l 665 1251 z "},"Č":{"ha":956,"x_min":69,"x_max":892,"o":"m 69 0 m 572 -18 q 295 49 408 -18 q 126 228 182 117 q 69 474 69 340 q 128 717 69 606 q 304 894 188 828 q 586 961 421 961 q 751 938 674 961 q 883 872 828 914 l 833 743 q 723 800 786 778 q 586 822 660 822 q 409 776 483 822 q 297 651 335 731 q 258 472 258 571 q 294 291 258 371 q 401 165 331 211 q 572 119 472 119 q 722 147 653 119 q 844 214 792 174 l 892 88 q 749 12 832 42 q 572 -18 665 -18 m 847 1251 l 656 1028 l 478 1028 l 286 1251 l 458 1251 l 567 1115 l 675 1251 l 847 1251 z "},"Ç":{"ha":956,"x_min":69,"x_max":892,"o":"m 596 -74 q 685 -104 649 -75 q 721 -178 721 -133 q 667 -281 721 -236 q 494 -336 614 -325 l 465 -253 q 559 -226 533 -242 q 585 -187 585 -210 q 573 -162 585 -171 q 540 -153 561 -153 q 496 -162 519 -153 l 453 -111 l 506 -15 q 265 69 364 -1 q 118 244 167 139 q 69 474 69 350 q 128 717 69 606 q 304 894 188 828 q 586 961 421 961 q 751 938 674 961 q 883 872 828 914 l 833 743 q 723 800 786 778 q 586 822 660 822 q 409 776 483 822 q 297 651 335 731 q 258 472 258 571 q 294 291 258 371 q 401 165 331 211 q 572 119 472 119 q 722 147 653 119 q 844 214 792 174 l 892 88 q 772 21 840 49 q 626 -15 703 -7 l 596 -74 z "},"D":{"ha":1050,"x_min":140,"x_max":981,"o":"m 501 944 q 763 883 654 944 q 926 715 871 822 q 981 474 981 608 q 926 228 981 336 q 763 60 871 121 q 501 0 656 0 l 140 0 l 140 944 l 501 944 m 501 136 q 715 227 639 136 q 792 472 792 318 q 715 716 792 624 q 501 808 639 808 l 329 808 l 329 136 l 501 136 z "},"Ð":{"ha":1050,"x_min":4,"x_max":981,"o":"m 501 944 q 763 883 654 944 q 926 715 871 822 q 981 474 981 608 q 926 228 981 336 q 763 60 871 121 q 501 0 656 0 l 140 0 l 140 425 l 4 425 l 4 556 l 140 556 l 140 944 l 501 944 m 501 136 q 715 227 639 136 q 792 472 792 318 q 715 716 792 624 q 501 808 639 808 l 329 808 l 329 556 l 546 556 l 546 425 l 329 425 l 329 136 l 501 136 z "},"Ď":{"ha":1050,"x_min":140,"x_max":981,"o":"m 140 0 m 501 944 q 763 883 654 944 q 926 715 871 822 q 981 474 981 608 q 926 228 981 336 q 763 60 871 121 q 501 0 656 0 l 140 0 l 140 944 l 501 944 m 501 136 q 715 227 639 136 q 792 472 792 318 q 715 716 792 624 q 501 808 639 808 l 329 808 l 329 136 l 501 136 m 779 1251 l 588 1028 l 410 1028 l 218 1251 l 390 1251 l 499 1115 l 607 1251 l 779 1251 z "},"Đ":{"ha":1050,"x_min":4,"x_max":981,"o":"m 501 944 q 763 883 654 944 q 926 715 871 822 q 981 474 981 608 q 926 228 981 336 q 763 60 871 121 q 501 0 656 0 l 140 0 l 140 425 l 4 425 l 4 556 l 140 556 l 140 944 l 501 944 m 501 136 q 715 227 639 136 q 792 472 792 318 q 715 716 792 624 q 501 808 639 808 l 329 808 l 329 556 l 546 556 l 546 425 l 329 425 l 329 136 l 501 136 z "},"E":{"ha":824,"x_min":140,"x_max":750,"o":"m 750 135 l 750 0 l 140 0 l 140 944 l 722 944 l 722 810 l 329 810 l 329 567 l 667 567 l 667 432 l 329 432 l 329 135 l 750 135 z "},"É":{"ha":824,"x_min":140,"x_max":750,"o":"m 140 0 m 750 135 l 750 0 l 140 0 l 140 944 l 722 944 l 722 810 l 329 810 l 329 567 l 667 567 l 667 432 l 329 432 l 329 135 l 750 135 m 535 1251 l 728 1251 l 506 1028 l 350 1028 l 535 1251 z "},"Ě":{"ha":824,"x_min":140,"x_max":750,"o":"m 140 0 m 750 135 l 750 0 l 140 0 l 140 944 l 722 944 l 722 810 l 329 810 l 329 567 l 667 567 l 667 432 l 329 432 l 329 135 l 750 135 m 717 1251 l 525 1028 l 347 1028 l 156 1251 l 328 1251 l 436 1115 l 544 1251 l 717 1251 z "},"Ê":{"ha":824,"x_min":140,"x_max":750,"o":"m 140 0 m 750 135 l 750 0 l 140 0 l 140 944 l 722 944 l 722 810 l 329 810 l 329 567 l 667 567 l 667 432 l 329 432 l 329 135 l 750 135 m 544 1028 l 436 1164 l 328 1028 l 156 1028 l 347 1251 l 525 1251 l 717 1028 l 544 1028 z "},"Ë":{"ha":824,"x_min":140,"x_max":750,"o":"m 140 0 m 750 135 l 750 0 l 140 0 l 140 944 l 722 944 l 722 810 l 329 810 l 329 567 l 667 567 l 667 432 l 329 432 l 329 135 l 750 135 m 275 1047 q 210 1075 238 1047 q 182 1140 182 1103 q 210 1207 182 1179 q 275 1235 238 1235 q 342 1207 314 1235 q 369 1140 369 1179 q 342 1075 369 1103 q 275 1047 314 1047 m 596 1047 q 531 1075 558 1047 q 503 1140 503 1103 q 531 1207 503 1179 q 596 1235 558 1235 q 663 1207 635 1235 q 690 1140 690 1179 q 663 1075 690 1103 q 596 1047 635 1047 z "},"Ė":{"ha":824,"x_min":140,"x_max":750,"o":"m 140 0 m 750 135 l 750 0 l 140 0 l 140 944 l 722 944 l 722 810 l 329 810 l 329 567 l 667 567 l 667 432 l 329 432 l 329 135 l 750 135 m 436 1047 q 371 1075 399 1047 q 343 1140 343 1103 q 371 1207 343 1179 q 436 1235 399 1235 q 503 1207 475 1235 q 531 1140 531 1179 q 503 1075 531 1103 q 436 1047 475 1047 z "},"È":{"ha":824,"x_min":140,"x_max":750,"o":"m 140 0 m 750 135 l 750 0 l 140 0 l 140 944 l 722 944 l 722 810 l 329 810 l 329 567 l 667 567 l 667 432 l 329 432 l 329 135 l 750 135 m 147 1251 l 340 1251 l 525 1028 l 369 1028 l 147 1251 z "},"Ē":{"ha":824,"x_min":140,"x_max":750,"o":"m 140 0 m 750 135 l 750 0 l 140 0 l 140 944 l 722 944 l 722 810 l 329 810 l 329 567 l 667 567 l 667 432 l 329 432 l 329 135 l 750 135 m 188 1211 l 685 1211 l 685 1082 l 188 1082 l 188 1211 z "},"Ę":{"ha":824,"x_min":140,"x_max":751,"o":"m 140 0 m 750 135 l 750 0 l 140 0 l 140 944 l 722 944 l 722 810 l 329 810 l 329 567 l 667 567 l 667 432 l 329 432 l 329 135 l 750 135 m 574 -364 q 451 -324 497 -364 q 406 -212 406 -283 q 444 -91 406 -154 q 551 21 483 -28 l 700 21 q 551 -178 551 -99 q 566 -217 551 -204 q 607 -231 581 -231 q 699 -187 651 -231 l 751 -285 q 676 -340 725 -317 q 574 -364 626 -364 z "},"F":{"ha":754,"x_min":140,"x_max":722,"o":"m 329 808 l 329 526 l 667 526 l 667 390 l 329 390 l 329 0 l 140 0 l 140 944 l 722 944 l 722 808 l 329 808 z "},"G":{"ha":989,"x_min":69,"x_max":907,"o":"m 907 454 l 907 51 q 758 1 846 21 q 572 -18 669 -18 q 295 49 408 -18 q 126 228 182 117 q 69 474 69 340 q 128 717 69 606 q 304 894 188 828 q 586 961 421 961 q 751 938 674 961 q 883 872 828 914 l 833 743 q 723 800 786 778 q 586 822 660 822 q 409 776 483 822 q 297 651 335 731 q 258 472 258 571 q 294 291 258 371 q 401 165 331 211 q 572 119 472 119 q 724 135 640 119 l 724 454 l 907 454 z "},"Ğ":{"ha":989,"x_min":69,"x_max":907,"o":"m 69 0 m 907 454 l 907 51 q 758 1 846 21 q 572 -18 669 -18 q 295 49 408 -18 q 126 228 182 117 q 69 474 69 340 q 128 717 69 606 q 304 894 188 828 q 586 961 421 961 q 751 938 674 961 q 883 872 828 914 l 833 743 q 723 800 786 778 q 586 822 660 822 q 409 776 483 822 q 297 651 335 731 q 258 472 258 571 q 294 291 258 371 q 401 165 331 211 q 572 119 472 119 q 724 135 640 119 l 724 454 l 907 454 m 567 1033 q 390 1094 454 1033 q 324 1264 326 1156 l 456 1265 q 489 1181 460 1210 q 567 1153 518 1153 q 646 1181 617 1153 q 678 1265 675 1210 l 811 1263 q 744 1094 808 1156 q 567 1033 679 1033 z "},"Ģ":{"ha":989,"x_min":69,"x_max":907,"o":"m 69 0 m 907 454 l 907 51 q 758 1 846 21 q 572 -18 669 -18 q 295 49 408 -18 q 126 228 182 117 q 69 474 69 340 q 128 717 69 606 q 304 894 188 828 q 586 961 421 961 q 751 938 674 961 q 883 872 828 914 l 833 743 q 723 800 786 778 q 586 822 660 822 q 409 776 483 822 q 297 651 335 731 q 258 472 258 571 q 294 291 258 371 q 401 165 331 211 q 572 119 472 119 q 724 135 640 119 l 724 454 l 907 454 m 457 -271 q 537 -244 514 -262 q 560 -200 560 -226 q 490 -149 560 -154 l 528 -57 q 657 -103 617 -67 q 697 -192 697 -140 q 643 -301 697 -257 q 489 -354 589 -344 l 457 -271 z "},"H":{"ha":1106,"x_min":140,"x_max":967,"o":"m 967 944 l 967 0 l 778 0 l 778 431 l 329 431 l 329 0 l 140 0 l 140 944 l 329 944 l 329 568 l 778 568 l 778 944 l 967 944 z "},"Ħ":{"ha":1106,"x_min":4,"x_max":1103,"o":"m 1103 694 l 967 694 l 967 0 l 778 0 l 778 431 l 329 431 l 329 0 l 140 0 l 140 694 l 4 694 l 4 825 l 140 825 l 140 944 l 329 944 l 329 825 l 778 825 l 778 944 l 967 944 l 967 825 l 1103 825 l 1103 694 m 778 694 l 329 694 l 329 568 l 778 568 l 778 694 z "},"I":{"ha":468,"x_min":140,"x_max":329,"o":"m 140 944 l 329 944 l 329 0 l 140 0 l 140 944 z "},"Ĳ":{"ha":938,"x_min":140,"x_max":796,"o":"m 140 0 m 140 944 l 329 944 l 329 0 l 140 0 l 140 944 m 506 -335 q 385 -324 456 -335 l 400 -187 q 478 -194 444 -194 q 576 -152 546 -194 q 607 -19 607 -110 l 607 944 l 796 944 l 796 -22 q 724 -254 796 -174 q 506 -335 653 -335 z "},"Í":{"ha":468,"x_min":140,"x_max":526,"o":"m 140 0 m 140 944 l 329 944 l 329 0 l 140 0 l 140 944 m 333 1251 l 526 1251 l 304 1028 l 149 1028 l 333 1251 z "},"Î":{"ha":468,"x_min":-46,"x_max":515,"o":"m 0 0 m 140 944 l 329 944 l 329 0 l 140 0 l 140 944 m 343 1028 l 235 1164 l 126 1028 l -46 1028 l 146 1251 l 324 1251 l 515 1028 l 343 1028 z "},"Ï":{"ha":468,"x_min":-19,"x_max":489,"o":"m 0 0 m 140 944 l 329 944 l 329 0 l 140 0 l 140 944 m 74 1047 q 8 1075 36 1047 q -19 1140 -19 1103 q 8 1207 -19 1179 q 74 1235 36 1235 q 140 1207 113 1235 q 168 1140 168 1179 q 140 1075 168 1103 q 74 1047 113 1047 m 394 1047 q 329 1075 357 1047 q 301 1140 301 1103 q 329 1207 301 1179 q 394 1235 357 1235 q 461 1207 433 1235 q 489 1140 489 1179 q 461 1075 489 1103 q 394 1047 433 1047 z "},"İ":{"ha":468,"x_min":140,"x_max":329,"o":"m 140 0 m 140 944 l 329 944 l 329 0 l 140 0 l 140 944 m 235 1047 q 169 1075 197 1047 q 142 1140 142 1103 q 169 1207 142 1179 q 235 1235 197 1235 q 301 1207 274 1235 q 329 1140 329 1179 q 301 1075 329 1103 q 235 1047 274 1047 z "},"Ì":{"ha":468,"x_min":-54,"x_max":329,"o":"m 0 0 m 140 944 l 329 944 l 329 0 l 140 0 l 140 944 m -54 1251 l 139 1251 l 324 1028 l 168 1028 l -54 1251 z "},"Ī":{"ha":468,"x_min":-14,"x_max":483,"o":"m 0 0 m 140 944 l 329 944 l 329 0 l 140 0 l 140 944 m -14 1211 l 483 1211 l 483 1082 l -14 1082 l -14 1211 z "},"Į":{"ha":468,"x_min":13,"x_max":358,"o":"m 358 -285 q 283 -340 332 -317 q 181 -364 233 -364 q 58 -324 104 -364 q 13 -212 13 -283 q 46 -100 13 -158 q 140 7 79 -42 l 140 944 l 329 944 l 329 0 l 282 0 q 158 -178 158 -104 q 173 -217 158 -204 q 214 -231 188 -231 q 306 -187 258 -231 l 358 -285 z "},"Ĩ":{"ha":468,"x_min":-21,"x_max":490,"o":"m 0 0 m 140 944 l 329 944 l 329 0 l 140 0 l 140 944 m -21 1031 q 28 1192 -14 1133 q 136 1251 71 1251 q 191 1239 167 1251 q 246 1203 215 1226 q 289 1174 272 1183 q 325 1165 306 1165 q 362 1188 347 1165 q 388 1261 376 1210 l 490 1256 q 441 1095 483 1157 q 335 1033 399 1033 q 276 1047 301 1033 q 217 1083 250 1060 q 177 1110 193 1101 q 144 1119 161 1119 q 107 1097 121 1119 q 83 1025 93 1075 l -21 1031 z "},"J":{"ha":468,"x_min":-83,"x_max":328,"o":"m 38 -335 q -83 -324 -12 -335 l -68 -187 q 10 -194 -24 -194 q 108 -152 78 -194 q 139 -19 139 -110 l 139 944 l 328 944 l 328 -22 q 256 -254 328 -174 q 38 -335 185 -335 z "},"Ĵ":{"ha":468,"x_min":-83,"x_max":515,"o":"m 0 0 m 38 -335 q -83 -324 -12 -335 l -68 -187 q 10 -194 -24 -194 q 108 -152 78 -194 q 139 -19 139 -110 l 139 944 l 328 944 l 328 -22 q 256 -254 328 -174 q 38 -335 185 -335 m 343 1028 l 235 1164 l 126 1028 l -46 1028 l 146 1251 l 324 1251 l 515 1028 l 343 1028 z "},"K":{"ha":988,"x_min":140,"x_max":967,"o":"m 140 944 l 329 944 l 329 0 l 140 0 l 140 944 m 967 0 l 738 0 l 335 493 l 335 521 l 701 944 l 921 944 l 522 510 l 967 0 z "},"Ķ":{"ha":988,"x_min":140,"x_max":967,"o":"m 140 0 m 140 944 l 329 944 l 329 0 l 140 0 l 140 944 m 967 0 l 738 0 l 335 493 l 335 521 l 701 944 l 921 944 l 522 510 l 967 0 m 396 -271 q 476 -244 453 -262 q 499 -200 499 -226 q 429 -149 499 -154 l 467 -57 q 596 -103 556 -67 q 636 -192 636 -140 q 582 -301 636 -257 q 428 -354 528 -344 l 396 -271 z "},"L":{"ha":778,"x_min":140,"x_max":750,"o":"m 750 135 l 750 0 l 140 0 l 140 944 l 329 944 l 329 135 l 750 135 z "},"Ĺ":{"ha":778,"x_min":140,"x_max":750,"o":"m 140 0 m 750 135 l 750 0 l 140 0 l 140 944 l 329 944 l 329 135 l 750 135 m 338 1251 l 531 1251 l 308 1028 l 153 1028 l 338 1251 z "},"Ľ":{"ha":778,"x_min":140,"x_max":750,"o":"m 140 0 m 750 135 l 750 0 l 140 0 l 140 944 l 329 944 l 329 135 l 750 135 m 429 649 q 485 724 468 683 q 503 817 503 764 q 472 944 503 876 l 635 944 q 651 832 651 885 q 603 684 651 751 q 482 579 556 617 l 429 649 z "},"Ļ":{"ha":778,"x_min":140,"x_max":750,"o":"m 140 0 m 750 135 l 750 0 l 140 0 l 140 944 l 329 944 l 329 135 l 750 135 m 344 -271 q 424 -244 401 -262 q 447 -200 447 -226 q 378 -149 447 -154 l 415 -57 q 544 -103 504 -67 q 585 -192 585 -140 q 531 -301 585 -257 q 376 -354 476 -344 l 344 -271 z "},"Ŀ":{"ha":778,"x_min":140,"x_max":750,"o":"m 140 0 m 750 135 l 750 0 l 140 0 l 140 944 l 329 944 l 329 135 l 750 135 m 607 392 q 526 425 560 392 q 492 506 492 458 q 526 588 492 554 q 607 622 560 622 q 688 588 654 622 q 722 506 722 554 q 688 425 722 458 q 607 392 654 392 z "},"Ł":{"ha":778,"x_min":-11,"x_max":750,"o":"m 750 135 l 750 0 l 140 0 l 140 272 l 60 221 l -11 333 l 140 429 l 140 944 l 329 944 l 329 549 l 554 692 l 625 579 l 329 392 l 329 135 l 750 135 z "},"M":{"ha":1249,"x_min":140,"x_max":1110,"o":"m 1110 944 l 1110 0 l 925 0 l 925 290 l 938 653 l 694 267 l 556 267 l 310 658 l 325 290 l 325 0 l 140 0 l 140 944 l 315 944 l 625 460 l 935 944 l 1110 944 z "},"N":{"ha":1106,"x_min":140,"x_max":967,"o":"m 967 944 l 967 0 l 799 -1 l 315 665 l 329 347 l 329 0 l 140 0 l 140 944 l 308 944 l 792 279 l 778 615 l 778 944 l 967 944 z "},"Ń":{"ha":1106,"x_min":140,"x_max":967,"o":"m 140 0 m 967 944 l 967 0 l 799 -1 l 315 665 l 329 347 l 329 0 l 140 0 l 140 944 l 308 944 l 792 279 l 778 615 l 778 944 l 967 944 m 650 1251 l 843 1251 l 621 1028 l 465 1028 l 650 1251 z "},"Ň":{"ha":1106,"x_min":140,"x_max":967,"o":"m 140 0 m 967 944 l 967 0 l 799 -1 l 315 665 l 329 347 l 329 0 l 140 0 l 140 944 l 308 944 l 792 279 l 778 615 l 778 944 l 967 944 m 832 1251 l 640 1028 l 463 1028 l 271 1251 l 443 1251 l 551 1115 l 660 1251 l 832 1251 z "},"Ņ":{"ha":1106,"x_min":140,"x_max":967,"o":"m 140 0 m 967 944 l 967 0 l 799 -1 l 315 665 l 329 347 l 329 0 l 140 0 l 140 944 l 308 944 l 792 279 l 778 615 l 778 944 l 967 944 m 435 -271 q 515 -244 492 -262 q 538 -200 538 -226 q 468 -149 538 -154 l 506 -57 q 635 -103 594 -67 q 675 -192 675 -140 q 621 -301 675 -257 q 467 -354 567 -344 l 435 -271 z "},"Ñ":{"ha":1106,"x_min":140,"x_max":967,"o":"m 140 0 m 967 944 l 967 0 l 799 -1 l 315 665 l 329 347 l 329 0 l 140 0 l 140 944 l 308 944 l 792 279 l 778 615 l 778 944 l 967 944 m 296 1031 q 345 1192 303 1133 q 453 1251 388 1251 q 508 1239 483 1251 q 563 1203 532 1226 q 606 1174 589 1183 q 642 1165 622 1165 q 678 1188 664 1165 q 704 1261 693 1210 l 807 1256 q 758 1095 800 1157 q 651 1033 715 1033 q 592 1047 618 1033 q 533 1083 567 1060 q 494 1110 510 1101 q 461 1119 478 1119 q 424 1097 438 1119 q 400 1025 410 1075 l 296 1031 z "},"O":{"ha":1115,"x_min":69,"x_max":1044,"o":"m 557 -19 q 292 47 401 -19 q 126 224 182 113 q 69 471 69 336 q 125 718 69 607 q 291 895 181 829 q 557 961 401 961 q 822 895 711 961 q 988 718 932 829 q 1044 472 1044 607 q 988 224 1044 336 q 822 47 932 113 q 557 -19 713 -19 m 558 119 q 719 165 651 119 q 822 291 786 211 q 857 472 857 371 q 822 651 857 572 q 719 776 786 731 q 558 822 651 822 q 397 776 464 822 q 294 651 329 731 q 260 472 260 572 q 294 291 260 371 q 397 165 329 211 q 558 119 464 119 z "},"Ó":{"ha":1115,"x_min":69,"x_max":1044,"o":"m 69 0 m 557 -19 q 292 47 401 -19 q 126 224 182 113 q 69 471 69 336 q 125 718 69 607 q 291 895 181 829 q 557 961 401 961 q 822 895 711 961 q 988 718 932 829 q 1044 472 1044 607 q 988 224 1044 336 q 822 47 932 113 q 557 -19 713 -19 m 558 119 q 719 165 651 119 q 822 291 786 211 q 857 472 857 371 q 822 651 857 572 q 719 776 786 731 q 558 822 651 822 q 397 776 464 822 q 294 651 329 731 q 260 472 260 572 q 294 291 260 371 q 397 165 329 211 q 558 119 464 119 m 656 1251 l 849 1251 l 626 1028 l 471 1028 l 656 1251 z "},"Ô":{"ha":1115,"x_min":69,"x_max":1044,"o":"m 69 0 m 557 -19 q 292 47 401 -19 q 126 224 182 113 q 69 471 69 336 q 125 718 69 607 q 291 895 181 829 q 557 961 401 961 q 822 895 711 961 q 988 718 932 829 q 1044 472 1044 607 q 988 224 1044 336 q 822 47 932 113 q 557 -19 713 -19 m 558 119 q 719 165 651 119 q 822 291 786 211 q 857 472 857 371 q 822 651 857 572 q 719 776 786 731 q 558 822 651 822 q 397 776 464 822 q 294 651 329 731 q 260 472 260 572 q 294 291 260 371 q 397 165 329 211 q 558 119 464 119 m 665 1028 l 557 1164 l 449 1028 l 276 1028 l 468 1251 l 646 1251 l 838 1028 l 665 1028 z "},"Ö":{"ha":1115,"x_min":69,"x_max":1044,"o":"m 69 0 m 557 -19 q 292 47 401 -19 q 126 224 182 113 q 69 471 69 336 q 125 718 69 607 q 291 895 181 829 q 557 961 401 961 q 822 895 711 961 q 988 718 932 829 q 1044 472 1044 607 q 988 224 1044 336 q 822 47 932 113 q 557 -19 713 -19 m 558 119 q 719 165 651 119 q 822 291 786 211 q 857 472 857 371 q 822 651 857 572 q 719 776 786 731 q 558 822 651 822 q 397 776 464 822 q 294 651 329 731 q 260 472 260 572 q 294 291 260 371 q 397 165 329 211 q 558 119 464 119 m 396 1047 q 331 1075 358 1047 q 303 1140 303 1103 q 331 1207 303 1179 q 396 1235 358 1235 q 463 1207 435 1235 q 490 1140 490 1179 q 463 1075 490 1103 q 396 1047 435 1047 m 717 1047 q 651 1075 679 1047 q 624 1140 624 1103 q 651 1207 624 1179 q 717 1235 679 1235 q 783 1207 756 1235 q 811 1140 811 1179 q 783 1075 811 1103 q 717 1047 756 1047 z "},"Ò":{"ha":1115,"x_min":69,"x_max":1044,"o":"m 69 0 m 557 -19 q 292 47 401 -19 q 126 224 182 113 q 69 471 69 336 q 125 718 69 607 q 291 895 181 829 q 557 961 401 961 q 822 895 711 961 q 988 718 932 829 q 1044 472 1044 607 q 988 224 1044 336 q 822 47 932 113 q 557 -19 713 -19 m 558 119 q 719 165 651 119 q 822 291 786 211 q 857 472 857 371 q 822 651 857 572 q 719 776 786 731 q 558 822 651 822 q 397 776 464 822 q 294 651 329 731 q 260 472 260 572 q 294 291 260 371 q 397 165 329 211 q 558 119 464 119 m 268 1251 l 461 1251 l 646 1028 l 490 1028 l 268 1251 z "},"Ő":{"ha":1115,"x_min":69,"x_max":1044,"o":"m 69 0 m 557 -19 q 292 47 401 -19 q 126 224 182 113 q 69 471 69 336 q 125 718 69 607 q 291 895 181 829 q 557 961 401 961 q 822 895 711 961 q 988 718 932 829 q 1044 472 1044 607 q 988 224 1044 336 q 822 47 932 113 q 557 -19 713 -19 m 558 119 q 719 165 651 119 q 822 291 786 211 q 857 472 857 371 q 822 651 857 572 q 719 776 786 731 q 558 822 651 822 q 397 776 464 822 q 294 651 329 731 q 260 472 260 572 q 294 291 260 371 q 397 165 329 211 q 558 119 464 119 m 535 1251 l 710 1251 l 488 1028 l 350 1028 l 535 1251 m 807 1251 l 982 1251 l 760 1028 l 622 1028 l 807 1251 z "},"Ō":{"ha":1115,"x_min":69,"x_max":1044,"o":"m 69 0 m 557 -19 q 292 47 401 -19 q 126 224 182 113 q 69 471 69 336 q 125 718 69 607 q 291 895 181 829 q 557 961 401 961 q 822 895 711 961 q 988 718 932 829 q 1044 472 1044 607 q 988 224 1044 336 q 822 47 932 113 q 557 -19 713 -19 m 558 119 q 719 165 651 119 q 822 291 786 211 q 857 472 857 371 q 822 651 857 572 q 719 776 786 731 q 558 822 651 822 q 397 776 464 822 q 294 651 329 731 q 260 472 260 572 q 294 291 260 371 q 397 165 329 211 q 558 119 464 119 m 308 1211 l 806 1211 l 806 1082 l 308 1082 l 308 1211 z "},"Ø":{"ha":1139,"x_min":69,"x_max":1044,"o":"m 933 801 q 1016 651 988 736 q 1044 472 1044 567 q 988 224 1044 336 q 822 47 932 113 q 557 -19 713 -19 q 286 50 399 -19 l 181 -74 l 79 14 l 185 136 q 99 288 128 203 q 69 471 69 374 q 125 718 69 607 q 291 895 181 829 q 557 961 401 961 q 832 889 715 961 l 935 1008 l 1036 921 l 933 801 m 260 472 q 303 274 260 360 l 729 769 q 558 822 657 822 q 397 776 464 822 q 294 651 329 731 q 260 472 260 572 m 558 119 q 719 165 651 119 q 822 291 786 211 q 857 472 857 371 q 815 664 857 583 l 390 169 q 558 119 460 119 z "},"Õ":{"ha":1115,"x_min":69,"x_max":1044,"o":"m 69 0 m 557 -19 q 292 47 401 -19 q 126 224 182 113 q 69 471 69 336 q 125 718 69 607 q 291 895 181 829 q 557 961 401 961 q 822 895 711 961 q 988 718 932 829 q 1044 472 1044 607 q 988 224 1044 336 q 822 47 932 113 q 557 -19 713 -19 m 558 119 q 719 165 651 119 q 822 291 786 211 q 857 472 857 371 q 822 651 857 572 q 719 776 786 731 q 558 822 651 822 q 397 776 464 822 q 294 651 329 731 q 260 472 260 572 q 294 291 260 371 q 397 165 329 211 q 558 119 464 119 m 301 1031 q 351 1192 308 1133 q 458 1251 393 1251 q 513 1239 489 1251 q 568 1203 538 1226 q 611 1174 594 1183 q 647 1165 628 1165 q 684 1188 669 1165 q 710 1261 699 1210 l 813 1256 q 763 1095 806 1157 q 657 1033 721 1033 q 598 1047 624 1033 q 539 1083 572 1060 q 499 1110 515 1101 q 467 1119 483 1119 q 429 1097 443 1119 q 406 1025 415 1075 l 301 1031 z "},"Œ":{"ha":1406,"x_min":69,"x_max":1331,"o":"m 1331 135 l 1331 0 l 549 0 q 288 61 396 0 q 124 229 179 122 q 69 471 69 336 q 124 716 69 608 q 287 884 179 824 q 549 944 394 944 l 1303 944 l 1303 810 l 910 810 l 910 567 l 1247 567 l 1247 432 l 910 432 l 910 135 l 1331 135 m 721 136 l 721 808 l 549 808 q 335 717 411 808 q 258 472 258 626 q 335 228 258 321 q 549 136 411 136 l 721 136 z "},"P":{"ha":901,"x_min":140,"x_max":860,"o":"m 496 944 q 860 650 860 944 q 771 428 860 503 q 496 354 682 354 l 329 354 l 329 0 l 140 0 l 140 944 l 496 944 m 496 489 q 628 528 585 489 q 671 649 671 567 q 496 810 671 810 l 329 810 l 329 489 l 496 489 z "},"Þ":{"ha":947,"x_min":140,"x_max":860,"o":"m 496 782 q 860 486 860 782 q 771 265 860 339 q 496 190 682 190 l 329 190 l 329 0 l 140 0 l 140 944 l 329 944 l 329 782 l 496 782 m 496 325 q 628 365 586 326 q 671 486 671 404 q 496 647 671 647 l 329 647 l 329 325 l 496 325 z "},"Q":{"ha":1115,"x_min":69,"x_max":1243,"o":"m 1243 -272 q 1152 -317 1196 -303 q 1060 -332 1108 -332 q 892 -299 968 -332 q 754 -192 817 -265 l 608 -18 q 557 -19 592 -19 q 292 47 401 -19 q 126 224 182 113 q 69 471 69 336 q 125 718 69 607 q 291 895 181 829 q 557 961 401 961 q 822 895 711 961 q 988 718 932 829 q 1044 472 1044 607 q 977 203 1044 322 q 783 26 910 85 l 865 -69 q 1067 -187 963 -187 q 1221 -142 1151 -187 l 1243 -272 m 260 472 q 294 291 260 371 q 397 165 329 211 q 558 119 464 119 q 719 165 651 119 q 822 291 786 211 q 857 472 857 371 q 822 651 857 572 q 719 776 786 731 q 558 822 651 822 q 397 776 464 822 q 294 651 329 731 q 260 472 260 572 z "},"R":{"ha":989,"x_min":140,"x_max":956,"o":"m 483 382 l 329 382 l 329 0 l 140 0 l 140 944 l 488 944 q 846 672 846 944 q 671 415 846 472 l 956 0 l 738 0 l 483 382 m 329 517 l 488 517 q 616 553 575 517 q 657 663 657 589 q 488 810 657 810 l 329 810 l 329 517 z "},"Ŕ":{"ha":989,"x_min":140,"x_max":956,"o":"m 140 0 m 483 382 l 329 382 l 329 0 l 140 0 l 140 944 l 488 944 q 846 672 846 944 q 671 415 846 472 l 956 0 l 738 0 l 483 382 m 329 517 l 488 517 q 616 553 575 517 q 657 663 657 589 q 488 810 657 810 l 329 810 l 329 517 m 557 1251 l 750 1251 l 528 1028 l 372 1028 l 557 1251 z "},"Ř":{"ha":989,"x_min":140,"x_max":956,"o":"m 140 0 m 483 382 l 329 382 l 329 0 l 140 0 l 140 944 l 488 944 q 846 672 846 944 q 671 415 846 472 l 956 0 l 738 0 l 483 382 m 329 517 l 488 517 q 616 553 575 517 q 657 663 657 589 q 488 810 657 810 l 329 810 l 329 517 m 739 1251 l 547 1028 l 369 1028 l 178 1251 l 350 1251 l 458 1115 l 567 1251 l 739 1251 z "},"Ŗ":{"ha":989,"x_min":140,"x_max":956,"o":"m 140 0 m 483 382 l 329 382 l 329 0 l 140 0 l 140 944 l 488 944 q 846 672 846 944 q 671 415 846 472 l 956 0 l 738 0 l 483 382 m 329 517 l 488 517 q 616 553 575 517 q 657 663 657 589 q 488 810 657 810 l 329 810 l 329 517 m 383 -271 q 463 -244 440 -262 q 486 -200 486 -226 q 417 -149 486 -154 l 454 -57 q 583 -103 543 -67 q 624 -192 624 -140 q 569 -301 624 -257 q 415 -354 515 -344 l 383 -271 z "},"S":{"ha":836,"x_min":64,"x_max":772,"o":"m 390 -19 q 64 58 193 -19 l 110 190 q 246 137 179 154 q 388 119 313 119 q 529 154 472 119 q 586 254 586 189 q 559 323 586 294 q 492 370 532 351 q 381 414 451 389 q 233 476 289 447 q 136 555 176 504 q 96 683 96 606 q 194 888 96 815 q 453 961 292 961 q 736 886 614 961 l 690 756 q 458 822 575 822 q 331 789 381 822 q 281 694 281 756 q 306 632 281 658 q 370 588 332 606 q 478 544 408 571 q 631 480 572 510 q 731 398 689 450 q 772 265 772 346 q 671 56 772 132 q 390 -19 569 -19 z "},"Ś":{"ha":836,"x_min":64,"x_max":772,"o":"m 64 0 m 390 -19 q 64 58 193 -19 l 110 190 q 246 137 179 154 q 388 119 313 119 q 529 154 472 119 q 586 254 586 189 q 559 323 586 294 q 492 370 532 351 q 381 414 451 389 q 233 476 289 447 q 136 555 176 504 q 96 683 96 606 q 194 888 96 815 q 453 961 292 961 q 736 886 614 961 l 690 756 q 458 822 575 822 q 331 789 381 822 q 281 694 281 756 q 306 632 281 658 q 370 588 332 606 q 478 544 408 571 q 631 480 572 510 q 731 398 689 450 q 772 265 772 346 q 671 56 772 132 q 390 -19 569 -19 m 533 1251 l 726 1251 l 504 1028 l 349 1028 l 533 1251 z "},"Š":{"ha":836,"x_min":64,"x_max":772,"o":"m 64 0 m 390 -19 q 64 58 193 -19 l 110 190 q 246 137 179 154 q 388 119 313 119 q 529 154 472 119 q 586 254 586 189 q 559 323 586 294 q 492 370 532 351 q 381 414 451 389 q 233 476 289 447 q 136 555 176 504 q 96 683 96 606 q 194 888 96 815 q 453 961 292 961 q 736 886 614 961 l 690 756 q 458 822 575 822 q 331 789 381 822 q 281 694 281 756 q 306 632 281 658 q 370 588 332 606 q 478 544 408 571 q 631 480 572 510 q 731 398 689 450 q 772 265 772 346 q 671 56 772 132 q 390 -19 569 -19 m 715 1251 l 524 1028 l 346 1028 l 154 1251 l 326 1251 l 435 1115 l 543 1251 l 715 1251 z "},"Ş":{"ha":836,"x_min":64,"x_max":772,"o":"m 772 265 q 697 78 772 151 q 485 -14 621 6 l 453 -74 q 542 -104 506 -75 q 578 -178 578 -133 q 524 -281 578 -236 q 351 -336 471 -325 l 322 -253 q 416 -226 390 -242 q 442 -187 442 -210 q 430 -162 442 -171 q 397 -153 418 -153 q 353 -162 376 -153 l 310 -111 l 360 -19 q 64 58 183 -14 l 110 190 q 246 137 179 154 q 388 119 313 119 q 529 154 472 119 q 586 254 586 189 q 559 323 586 294 q 492 370 532 351 q 381 414 451 389 q 233 476 289 447 q 136 555 176 504 q 96 683 96 606 q 194 888 96 815 q 453 961 292 961 q 736 886 614 961 l 690 756 q 458 822 575 822 q 331 789 381 822 q 281 694 281 756 q 306 632 281 658 q 370 588 332 606 q 478 544 408 571 q 631 480 572 510 q 731 398 689 450 q 772 265 772 346 z "},"Ș":{"ha":836,"x_min":64,"x_max":772,"o":"m 64 0 m 390 -19 q 64 58 193 -19 l 110 190 q 246 137 179 154 q 388 119 313 119 q 529 154 472 119 q 586 254 586 189 q 559 323 586 294 q 492 370 532 351 q 381 414 451 389 q 233 476 289 447 q 136 555 176 504 q 96 683 96 606 q 194 888 96 815 q 453 961 292 961 q 736 886 614 961 l 690 756 q 458 822 575 822 q 331 789 381 822 q 281 694 281 756 q 306 632 281 658 q 370 588 332 606 q 478 544 408 571 q 631 480 572 510 q 731 398 689 450 q 772 265 772 346 q 671 56 772 132 q 390 -19 569 -19 m 315 -271 q 395 -244 372 -262 q 418 -200 418 -226 q 349 -149 418 -154 l 386 -57 q 515 -103 475 -67 q 556 -192 556 -140 q 501 -301 556 -257 q 347 -354 447 -344 l 315 -271 z "},"T":{"ha":839,"x_min":38,"x_max":801,"o":"m 801 808 l 514 808 l 514 0 l 325 0 l 325 808 l 38 808 l 38 944 l 801 944 l 801 808 z "},"Ť":{"ha":839,"x_min":38,"x_max":801,"o":"m 38 0 m 801 808 l 514 808 l 514 0 l 325 0 l 325 808 l 38 808 l 38 944 l 801 944 l 801 808 m 700 1251 l 508 1028 l 331 1028 l 139 1251 l 311 1251 l 419 1115 l 528 1251 l 700 1251 z "},"Ț":{"ha":839,"x_min":38,"x_max":801,"o":"m 38 0 m 801 808 l 514 808 l 514 0 l 325 0 l 325 808 l 38 808 l 38 944 l 801 944 l 801 808 m 303 -271 q 383 -244 360 -262 q 406 -200 406 -226 q 336 -149 406 -154 l 374 -57 q 503 -103 463 -67 q 543 -192 543 -140 q 489 -301 543 -257 q 335 -354 435 -344 l 303 -271 z "},"U":{"ha":1078,"x_min":126,"x_max":953,"o":"m 540 -19 q 233 84 340 -19 q 126 365 126 188 l 126 944 l 315 944 l 315 367 q 373 181 315 243 q 540 119 431 119 q 706 181 649 119 q 764 367 764 243 l 764 944 l 953 944 l 953 368 q 847 85 953 189 q 540 -19 740 -19 z "},"Ú":{"ha":1078,"x_min":126,"x_max":953,"o":"m 126 0 m 540 -19 q 233 84 340 -19 q 126 365 126 188 l 126 944 l 315 944 l 315 367 q 373 181 315 243 q 540 119 431 119 q 706 181 649 119 q 764 367 764 243 l 764 944 l 953 944 l 953 368 q 847 85 953 189 q 540 -19 740 -19 m 639 1251 l 832 1251 l 610 1028 l 454 1028 l 639 1251 z "},"Û":{"ha":1078,"x_min":126,"x_max":953,"o":"m 126 0 m 540 -19 q 233 84 340 -19 q 126 365 126 188 l 126 944 l 315 944 l 315 367 q 373 181 315 243 q 540 119 431 119 q 706 181 649 119 q 764 367 764 243 l 764 944 l 953 944 l 953 368 q 847 85 953 189 q 540 -19 740 -19 m 649 1028 l 540 1164 l 432 1028 l 260 1028 l 451 1251 l 629 1251 l 821 1028 l 649 1028 z "},"Ü":{"ha":1078,"x_min":126,"x_max":953,"o":"m 126 0 m 540 -19 q 233 84 340 -19 q 126 365 126 188 l 126 944 l 315 944 l 315 367 q 373 181 315 243 q 540 119 431 119 q 706 181 649 119 q 764 367 764 243 l 764 944 l 953 944 l 953 368 q 847 85 953 189 q 540 -19 740 -19 m 379 1047 q 314 1075 342 1047 q 286 1140 286 1103 q 314 1207 286 1179 q 379 1235 342 1235 q 446 1207 418 1235 q 474 1140 474 1179 q 446 1075 474 1103 q 379 1047 418 1047 m 700 1047 q 635 1075 663 1047 q 607 1140 607 1103 q 635 1207 607 1179 q 700 1235 663 1235 q 767 1207 739 1235 q 794 1140 794 1179 q 767 1075 794 1103 q 700 1047 739 1047 z "},"Ù":{"ha":1078,"x_min":126,"x_max":953,"o":"m 126 0 m 540 -19 q 233 84 340 -19 q 126 365 126 188 l 126 944 l 315 944 l 315 367 q 373 181 315 243 q 540 119 431 119 q 706 181 649 119 q 764 367 764 243 l 764 944 l 953 944 l 953 368 q 847 85 953 189 q 540 -19 740 -19 m 251 1251 l 444 1251 l 629 1028 l 474 1028 l 251 1251 z "},"Ű":{"ha":1078,"x_min":126,"x_max":964,"o":"m 126 0 m 540 -19 q 233 84 340 -19 q 126 365 126 188 l 126 944 l 315 944 l 315 367 q 373 181 315 243 q 540 119 431 119 q 706 181 649 119 q 764 367 764 243 l 764 944 l 953 944 l 953 368 q 847 85 953 189 q 540 -19 740 -19 m 517 1251 l 692 1251 l 469 1028 l 332 1028 l 517 1251 m 789 1251 l 964 1251 l 742 1028 l 604 1028 l 789 1251 z "},"Ū":{"ha":1078,"x_min":126,"x_max":953,"o":"m 126 0 m 540 -19 q 233 84 340 -19 q 126 365 126 188 l 126 944 l 315 944 l 315 367 q 373 181 315 243 q 540 119 431 119 q 706 181 649 119 q 764 367 764 243 l 764 944 l 953 944 l 953 368 q 847 85 953 189 q 540 -19 740 -19 m 292 1211 l 789 1211 l 789 1082 l 292 1082 l 292 1211 z "},"Ų":{"ha":1078,"x_min":126,"x_max":953,"o":"m 953 944 l 953 368 q 891 138 953 232 q 710 6 829 43 q 581 -178 581 -103 q 595 -217 581 -204 q 636 -231 610 -231 q 728 -187 681 -231 l 781 -285 q 705 -340 754 -317 q 603 -364 656 -364 q 481 -324 526 -364 q 435 -212 435 -283 q 460 -115 435 -165 q 532 -19 485 -64 q 231 86 335 -18 q 126 365 126 190 l 126 944 l 315 944 l 315 367 q 373 181 315 243 q 540 119 431 119 q 706 181 649 119 q 764 367 764 243 l 764 944 l 953 944 z "},"Ů":{"ha":1078,"x_min":126,"x_max":953,"o":"m 126 0 m 540 -19 q 233 84 340 -19 q 126 365 126 188 l 126 944 l 315 944 l 315 367 q 373 181 315 243 q 540 119 431 119 q 706 181 649 119 q 764 367 764 243 l 764 944 l 953 944 l 953 368 q 847 85 953 189 q 540 -19 740 -19 m 540 1019 q 407 1058 454 1019 q 360 1156 360 1096 q 407 1254 360 1215 q 540 1293 454 1293 q 672 1254 625 1293 q 719 1156 719 1215 q 672 1058 719 1096 q 540 1019 625 1019 m 540 1106 q 584 1119 568 1106 q 600 1156 600 1132 q 584 1192 600 1179 q 540 1206 568 1206 q 497 1192 513 1206 q 481 1156 481 1179 q 497 1119 481 1132 q 540 1106 513 1106 z "},"V":{"ha":969,"x_min":26,"x_max":944,"o":"m 944 944 l 581 -8 l 390 -8 l 26 944 l 219 944 l 488 176 l 754 944 l 944 944 z "},"W":{"ha":1483,"x_min":26,"x_max":1458,"o":"m 1458 944 l 1140 -8 l 953 -8 l 733 708 l 514 -8 l 326 -8 l 26 944 l 219 944 l 422 193 l 646 944 l 822 944 l 1047 192 l 1263 944 l 1458 944 z "},"X":{"ha":1007,"x_min":36,"x_max":972,"o":"m 749 0 l 503 365 l 257 0 l 36 0 l 392 486 l 57 944 l 281 944 l 503 601 l 725 944 l 946 944 l 613 489 l 972 0 l 749 0 z "},"Y":{"ha":929,"x_min":22,"x_max":908,"o":"m 560 383 l 560 0 l 371 0 l 371 379 l 22 944 l 224 944 l 465 519 l 710 944 l 908 944 l 560 383 z "},"Ý":{"ha":929,"x_min":22,"x_max":908,"o":"m 22 0 m 560 383 l 560 0 l 371 0 l 371 379 l 22 944 l 224 944 l 465 519 l 710 944 l 908 944 l 560 383 m 564 1251 l 757 1251 l 535 1028 l 379 1028 l 564 1251 z "},"Ÿ":{"ha":929,"x_min":22,"x_max":908,"o":"m 22 0 m 560 383 l 560 0 l 371 0 l 371 379 l 22 944 l 224 944 l 465 519 l 710 944 l 908 944 l 560 383 m 304 1047 q 239 1075 267 1047 q 211 1140 211 1103 q 239 1207 211 1179 q 304 1235 267 1235 q 371 1207 343 1235 q 399 1140 399 1179 q 371 1075 399 1103 q 304 1047 343 1047 m 625 1047 q 560 1075 588 1047 q 532 1140 532 1103 q 560 1207 532 1179 q 625 1235 588 1235 q 692 1207 664 1235 q 719 1140 719 1179 q 692 1075 719 1103 q 625 1047 664 1047 z "},"Z":{"ha":956,"x_min":85,"x_max":900,"o":"m 900 136 l 900 0 l 85 0 l 85 104 l 646 808 l 103 808 l 103 944 l 881 944 l 881 829 l 322 136 l 900 136 z "},"Ź":{"ha":956,"x_min":85,"x_max":900,"o":"m 85 0 m 900 136 l 900 0 l 85 0 l 85 104 l 646 808 l 103 808 l 103 944 l 881 944 l 881 829 l 322 136 l 900 136 m 590 1251 l 783 1251 l 561 1028 l 406 1028 l 590 1251 z "},"Ž":{"ha":956,"x_min":85,"x_max":900,"o":"m 85 0 m 900 136 l 900 0 l 85 0 l 85 104 l 646 808 l 103 808 l 103 944 l 881 944 l 881 829 l 322 136 l 900 136 m 772 1251 l 581 1028 l 403 1028 l 211 1251 l 383 1251 l 492 1115 l 600 1251 l 772 1251 z "},"Ż":{"ha":956,"x_min":85,"x_max":900,"o":"m 85 0 m 900 136 l 900 0 l 85 0 l 85 104 l 646 808 l 103 808 l 103 944 l 881 944 l 881 829 l 322 136 l 900 136 m 492 1047 q 426 1075 454 1047 q 399 1140 399 1103 q 426 1207 399 1179 q 492 1235 454 1235 q 558 1207 531 1235 q 586 1140 586 1179 q 558 1075 586 1103 q 492 1047 531 1047 z "},"a":{"ha":814,"x_min":61,"x_max":799,"o":"m 799 6 q 672 -14 738 -12 q 570 7 611 -14 q 513 78 529 28 q 393 8 451 32 q 269 -15 335 -15 q 119 38 178 -15 q 61 171 61 92 q 103 300 61 250 q 219 381 144 350 q 429 450 293 411 l 501 471 l 501 501 q 472 610 501 572 q 381 649 442 649 q 255 622 317 649 q 114 529 193 596 l 65 650 q 432 786 239 786 q 622 719 558 786 q 685 492 685 651 l 685 178 q 696 134 685 147 q 733 121 707 121 q 789 132 760 121 l 799 6 m 244 192 q 325 119 244 119 q 407 138 365 119 q 501 192 449 156 l 501 364 l 451 347 q 289 275 333 308 q 244 192 244 242 z "},"á":{"ha":814,"x_min":61,"x_max":799,"o":"m 61 0 m 799 6 q 672 -14 738 -12 q 570 7 611 -14 q 513 78 529 28 q 393 8 451 32 q 269 -15 335 -15 q 119 38 178 -15 q 61 171 61 92 q 103 300 61 250 q 219 381 144 350 q 429 450 293 411 l 501 471 l 501 501 q 472 610 501 572 q 381 649 442 649 q 255 622 317 649 q 114 529 193 596 l 65 650 q 432 786 239 786 q 622 719 558 786 q 685 492 685 651 l 685 178 q 696 134 685 147 q 733 121 707 121 q 789 132 760 121 l 799 6 m 244 192 q 325 119 244 119 q 407 138 365 119 q 501 192 449 156 l 501 364 l 451 347 q 289 275 333 308 q 244 192 244 242 m 454 1150 l 650 1150 l 461 856 l 319 856 l 454 1150 z "},"ă":{"ha":814,"x_min":61,"x_max":799,"o":"m 61 0 m 799 6 q 672 -14 738 -12 q 570 7 611 -14 q 513 78 529 28 q 393 8 451 32 q 269 -15 335 -15 q 119 38 178 -15 q 61 171 61 92 q 103 300 61 250 q 219 381 144 350 q 429 450 293 411 l 501 471 l 501 501 q 472 610 501 572 q 381 649 442 649 q 255 622 317 649 q 114 529 193 596 l 65 650 q 432 786 239 786 q 622 719 558 786 q 685 492 685 651 l 685 178 q 696 134 685 147 q 733 121 707 121 q 789 132 760 121 l 799 6 m 244 192 q 325 119 244 119 q 407 138 365 119 q 501 192 449 156 l 501 364 l 451 347 q 289 275 333 308 q 244 192 244 242 m 407 868 q 236 935 297 868 q 172 1133 175 1003 l 296 1136 q 328 1025 299 1063 q 407 988 358 988 q 485 1026 456 988 q 518 1138 515 1064 l 642 1133 q 578 935 639 1003 q 407 868 517 868 z "},"â":{"ha":814,"x_min":61,"x_max":799,"o":"m 61 0 m 799 6 q 672 -14 738 -12 q 570 7 611 -14 q 513 78 529 28 q 393 8 451 32 q 269 -15 335 -15 q 119 38 178 -15 q 61 171 61 92 q 103 300 61 250 q 219 381 144 350 q 429 450 293 411 l 501 471 l 501 501 q 472 610 501 572 q 381 649 442 649 q 255 622 317 649 q 114 529 193 596 l 65 650 q 432 786 239 786 q 622 719 558 786 q 685 492 685 651 l 685 178 q 696 134 685 147 q 733 121 707 121 q 789 132 760 121 l 799 6 m 244 192 q 325 119 244 119 q 407 138 365 119 q 501 192 449 156 l 501 364 l 451 347 q 289 275 333 308 q 244 192 244 242 m 510 856 l 407 1031 l 304 856 l 163 856 l 317 1147 l 497 1147 l 651 856 l 510 856 z "},"ä":{"ha":814,"x_min":61,"x_max":799,"o":"m 61 0 m 799 6 q 672 -14 738 -12 q 570 7 611 -14 q 513 78 529 28 q 393 8 451 32 q 269 -15 335 -15 q 119 38 178 -15 q 61 171 61 92 q 103 300 61 250 q 219 381 144 350 q 429 450 293 411 l 501 471 l 501 501 q 472 610 501 572 q 381 649 442 649 q 255 622 317 649 q 114 529 193 596 l 65 650 q 432 786 239 786 q 622 719 558 786 q 685 492 685 651 l 685 178 q 696 134 685 147 q 733 121 707 121 q 789 132 760 121 l 799 6 m 244 192 q 325 119 244 119 q 407 138 365 119 q 501 192 449 156 l 501 364 l 451 347 q 289 275 333 308 q 244 192 244 242 m 247 932 q 176 962 207 932 q 146 1032 146 992 q 176 1103 146 1074 q 247 1133 207 1133 q 318 1103 288 1133 q 349 1032 349 1074 q 318 962 349 992 q 247 932 288 932 m 568 932 q 497 962 528 932 q 467 1032 467 992 q 497 1103 467 1074 q 568 1133 528 1133 q 639 1103 608 1133 q 669 1032 669 1074 q 639 962 669 992 q 568 932 608 932 z "},"à":{"ha":814,"x_min":61,"x_max":799,"o":"m 61 0 m 799 6 q 672 -14 738 -12 q 570 7 611 -14 q 513 78 529 28 q 393 8 451 32 q 269 -15 335 -15 q 119 38 178 -15 q 61 171 61 92 q 103 300 61 250 q 219 381 144 350 q 429 450 293 411 l 501 471 l 501 501 q 472 610 501 572 q 381 649 442 649 q 255 622 317 649 q 114 529 193 596 l 65 650 q 432 786 239 786 q 622 719 558 786 q 685 492 685 651 l 685 178 q 696 134 685 147 q 733 121 707 121 q 789 132 760 121 l 799 6 m 244 192 q 325 119 244 119 q 407 138 365 119 q 501 192 449 156 l 501 364 l 451 347 q 289 275 333 308 q 244 192 244 242 m 161 1149 l 357 1149 l 492 856 l 350 856 l 161 1149 z "},"ā":{"ha":814,"x_min":61,"x_max":799,"o":"m 61 0 m 799 6 q 672 -14 738 -12 q 570 7 611 -14 q 513 78 529 28 q 393 8 451 32 q 269 -15 335 -15 q 119 38 178 -15 q 61 171 61 92 q 103 300 61 250 q 219 381 144 350 q 429 450 293 411 l 501 471 l 501 501 q 472 610 501 572 q 381 649 442 649 q 255 622 317 649 q 114 529 193 596 l 65 650 q 432 786 239 786 q 622 719 558 786 q 685 492 685 651 l 685 178 q 696 134 685 147 q 733 121 707 121 q 789 132 760 121 l 799 6 m 244 192 q 325 119 244 119 q 407 138 365 119 q 501 192 449 156 l 501 364 l 451 347 q 289 275 333 308 q 244 192 244 242 m 158 1122 l 656 1122 l 656 992 l 158 992 l 158 1122 z "},"ą":{"ha":814,"x_min":61,"x_max":799,"o":"m 651 -231 q 743 -187 696 -231 l 796 -285 q 720 -340 769 -317 q 618 -364 671 -364 q 496 -324 542 -364 q 450 -212 450 -283 q 483 -101 450 -158 q 575 4 515 -43 q 513 78 528 26 q 393 8 451 32 q 269 -15 335 -15 q 119 38 178 -15 q 61 171 61 92 q 103 300 61 250 q 219 381 144 350 q 429 450 293 411 l 501 471 l 501 501 q 472 610 501 572 q 381 649 442 649 q 255 622 317 649 q 114 529 193 596 l 65 650 q 432 786 239 786 q 622 719 558 786 q 685 492 685 651 l 685 178 q 696 134 685 147 q 733 121 707 121 q 789 132 760 121 l 799 6 q 706 -12 750 -8 q 596 -178 596 -108 q 610 -217 596 -204 q 651 -231 625 -231 m 244 192 q 325 119 244 119 q 407 138 365 119 q 501 192 449 156 l 501 364 l 451 347 q 289 275 333 308 q 244 192 244 242 z "},"å":{"ha":814,"x_min":61,"x_max":799,"o":"m 61 0 m 799 6 q 672 -14 738 -12 q 570 7 611 -14 q 513 78 529 28 q 393 8 451 32 q 269 -15 335 -15 q 119 38 178 -15 q 61 171 61 92 q 103 300 61 250 q 219 381 144 350 q 429 450 293 411 l 501 471 l 501 501 q 472 610 501 572 q 381 649 442 649 q 255 622 317 649 q 114 529 193 596 l 65 650 q 432 786 239 786 q 622 719 558 786 q 685 492 685 651 l 685 178 q 696 134 685 147 q 733 121 707 121 q 789 132 760 121 l 799 6 m 244 192 q 325 119 244 119 q 407 138 365 119 q 501 192 449 156 l 501 364 l 451 347 q 289 275 333 308 q 244 192 244 242 m 407 851 q 305 874 347 851 q 241 934 263 897 q 219 1011 219 971 q 269 1124 219 1076 q 407 1171 319 1171 q 545 1124 494 1171 q 596 1011 596 1076 q 574 934 596 971 q 509 874 551 897 q 407 851 467 851 m 407 933 q 462 956 442 933 q 482 1011 482 978 q 462 1067 482 1046 q 407 1089 442 1089 q 353 1067 374 1089 q 333 1011 333 1046 q 353 956 333 978 q 407 933 374 933 z "},"ã":{"ha":814,"x_min":61,"x_max":799,"o":"m 61 0 m 799 6 q 672 -14 738 -12 q 570 7 611 -14 q 513 78 529 28 q 393 8 451 32 q 269 -15 335 -15 q 119 38 178 -15 q 61 171 61 92 q 103 300 61 250 q 219 381 144 350 q 429 450 293 411 l 501 471 l 501 501 q 472 610 501 572 q 381 649 442 649 q 255 622 317 649 q 114 529 193 596 l 65 650 q 432 786 239 786 q 622 719 558 786 q 685 492 685 651 l 685 178 q 696 134 685 147 q 733 121 707 121 q 789 132 760 121 l 799 6 m 244 192 q 325 119 244 119 q 407 138 365 119 q 501 192 449 156 l 501 364 l 451 347 q 289 275 333 308 q 244 192 244 242 m 151 908 q 201 1071 158 1013 q 308 1129 243 1129 q 363 1117 339 1129 q 418 1081 388 1104 q 461 1052 444 1061 q 497 1043 478 1043 q 534 1065 519 1043 q 560 1139 549 1088 l 663 1133 q 613 973 656 1035 q 507 911 571 911 q 448 924 474 911 q 389 961 422 938 q 349 988 365 979 q 317 997 333 997 q 279 975 293 997 q 256 903 265 953 l 151 908 z "},"æ":{"ha":1256,"x_min":61,"x_max":1192,"o":"m 888 114 q 1008 141 953 114 q 1125 218 1064 168 l 1182 103 q 1045 10 1115 42 q 886 -21 975 -21 q 701 18 779 -21 q 575 128 622 57 q 422 22 494 58 q 269 -15 350 -15 q 119 38 178 -15 q 61 171 61 92 q 103 300 61 250 q 219 381 144 350 q 429 450 293 411 l 501 471 l 501 501 q 472 610 501 572 q 381 649 442 649 q 255 622 317 649 q 114 529 193 596 l 65 650 q 432 786 239 786 q 625 696 571 786 q 886 786 722 786 q 1110 706 1029 786 q 1192 482 1192 626 q 1178 379 1192 431 l 682 379 q 733 183 683 251 q 888 114 783 114 m 876 661 q 758 619 803 661 q 694 503 714 576 l 1014 503 l 1014 519 q 975 624 1014 588 q 876 661 936 661 m 325 119 q 419 143 371 119 q 532 215 467 167 q 506 365 508 282 l 451 347 q 289 275 333 308 q 244 192 244 242 q 325 119 244 119 z "},"b":{"ha":901,"x_min":121,"x_max":842,"o":"m 501 786 q 678 741 601 786 q 799 607 756 696 q 842 392 842 518 q 792 162 842 254 q 658 25 742 69 q 469 -19 574 -19 q 269 46 361 -19 l 249 0 l 121 0 l 121 1111 l 304 1111 l 304 726 q 501 786 394 786 m 450 115 q 656 392 656 115 q 606 591 656 531 q 483 651 557 651 q 390 638 431 651 q 304 594 349 625 l 304 156 q 450 115 372 115 z "},"c":{"ha":746,"x_min":61,"x_max":717,"o":"m 447 -21 q 233 33 319 -21 q 103 177 146 86 q 61 382 61 268 q 104 585 61 493 q 238 731 147 676 q 465 786 329 786 q 589 768 526 786 q 690 721 651 750 l 646 593 q 465 651 561 651 q 304 580 361 651 q 247 383 247 508 q 299 185 247 257 q 447 114 351 114 q 558 136 508 114 q 660 200 607 158 l 717 85 q 599 9 668 39 q 447 -21 529 -21 z "},"ć":{"ha":746,"x_min":61,"x_max":717,"o":"m 61 0 m 447 -21 q 233 33 319 -21 q 103 177 146 86 q 61 382 61 268 q 104 585 61 493 q 238 731 147 676 q 465 786 329 786 q 589 768 526 786 q 690 721 651 750 l 646 593 q 465 651 561 651 q 304 580 361 651 q 247 383 247 508 q 299 185 247 257 q 447 114 351 114 q 558 136 508 114 q 660 200 607 158 l 717 85 q 599 9 668 39 q 447 -21 529 -21 m 496 1150 l 692 1150 l 503 856 l 361 856 l 496 1150 z "},"č":{"ha":746,"x_min":61,"x_max":717,"o":"m 61 0 m 447 -21 q 233 33 319 -21 q 103 177 146 86 q 61 382 61 268 q 104 585 61 493 q 238 731 147 676 q 465 786 329 786 q 589 768 526 786 q 690 721 651 750 l 646 593 q 465 651 561 651 q 304 580 361 651 q 247 383 247 508 q 299 185 247 257 q 447 114 351 114 q 558 136 508 114 q 660 200 607 158 l 717 85 q 599 9 668 39 q 447 -21 529 -21 m 693 1147 l 539 856 l 358 856 l 204 1147 l 346 1147 l 449 972 l 551 1147 l 693 1147 z "},"ç":{"ha":746,"x_min":61,"x_max":717,"o":"m 468 -74 q 557 -104 521 -75 q 593 -178 593 -133 q 540 -281 593 -236 q 367 -336 486 -325 l 338 -253 q 431 -226 406 -242 q 457 -187 457 -210 q 445 -162 457 -171 q 413 -153 433 -153 q 368 -162 392 -153 l 325 -111 l 376 -17 q 141 115 221 6 q 61 382 61 224 q 104 585 61 493 q 238 731 147 676 q 465 786 329 786 q 589 768 526 786 q 690 721 651 750 l 646 593 q 465 651 561 651 q 304 580 361 651 q 247 383 247 508 q 299 185 247 257 q 447 114 351 114 q 558 136 508 114 q 660 200 607 158 l 717 85 q 620 18 676 46 q 497 -18 564 -10 l 468 -74 z "},"d":{"ha":901,"x_min":61,"x_max":781,"o":"m 781 1111 l 781 0 l 643 0 l 624 58 q 401 -21 526 -21 q 224 25 301 -21 q 104 160 147 71 q 61 375 61 249 q 175 686 61 586 q 478 786 289 786 q 597 771 544 786 l 597 1111 l 781 1111 m 247 375 q 296 176 247 236 q 419 115 344 115 q 513 129 472 115 q 597 172 554 143 l 597 636 q 488 651 549 651 q 306 580 365 651 q 247 375 247 508 z "},"ð":{"ha":929,"x_min":61,"x_max":832,"o":"m 594 940 q 770 694 708 835 q 832 408 832 554 q 783 183 832 281 q 649 32 735 85 q 454 -21 564 -21 q 238 32 326 -21 q 105 172 149 85 q 61 365 61 260 q 106 557 61 469 q 238 697 151 644 q 444 750 325 750 q 565 729 510 750 q 447 872 517 811 l 226 772 l 176 882 l 332 953 q 160 1026 253 997 l 260 1122 q 488 1022 382 1090 l 685 1113 l 735 1004 l 594 940 m 454 114 q 594 191 542 114 q 646 404 646 268 q 639 503 646 463 q 444 615 568 615 q 299 547 351 615 q 247 365 247 478 q 301 185 247 256 q 454 114 354 114 z "},"ď":{"ha":901,"x_min":61,"x_max":1065,"o":"m 61 0 m 781 1111 l 781 0 l 643 0 l 624 58 q 401 -21 526 -21 q 224 25 301 -21 q 104 160 147 71 q 61 375 61 249 q 175 686 61 586 q 478 786 289 786 q 597 771 544 786 l 597 1111 l 781 1111 m 247 375 q 296 176 247 236 q 419 115 344 115 q 513 129 472 115 q 597 172 554 143 l 597 636 q 488 651 549 651 q 306 580 365 651 q 247 375 247 508 m 843 815 q 899 890 882 850 q 917 983 917 931 q 886 1111 917 1043 l 1049 1111 q 1065 999 1065 1051 q 1017 851 1065 918 q 896 746 969 783 l 843 815 z "},"đ":{"ha":901,"x_min":61,"x_max":899,"o":"m 899 869 l 781 869 l 781 0 l 643 0 l 624 58 q 401 -21 526 -21 q 224 25 301 -21 q 104 160 147 71 q 61 375 61 249 q 175 686 61 586 q 478 786 289 786 q 597 771 544 786 l 597 869 l 375 869 l 375 1000 l 597 1000 l 597 1111 l 781 1111 l 781 1000 l 899 1000 l 899 869 m 247 375 q 296 176 247 236 q 419 115 344 115 q 513 129 472 115 q 597 172 554 143 l 597 636 q 488 651 549 651 q 306 580 365 651 q 247 375 247 508 z "},"e":{"ha":814,"x_min":61,"x_max":753,"o":"m 447 114 q 570 140 514 114 q 686 217 626 167 l 742 101 q 605 10 675 40 q 446 -21 535 -21 q 232 33 318 -21 q 103 177 146 86 q 61 382 61 268 q 104 590 61 499 q 233 733 147 681 q 446 786 319 786 q 670 706 589 786 q 753 482 751 626 q 738 379 753 436 l 242 379 q 293 183 243 251 q 447 114 343 114 m 438 661 q 318 619 364 661 q 254 503 272 576 l 574 503 l 574 519 q 535 624 574 588 q 438 661 497 661 z "},"é":{"ha":814,"x_min":61,"x_max":753,"o":"m 61 0 m 447 114 q 570 140 514 114 q 686 217 626 167 l 742 101 q 605 10 675 40 q 446 -21 535 -21 q 232 33 318 -21 q 103 177 146 86 q 61 382 61 268 q 104 590 61 499 q 233 733 147 681 q 446 786 319 786 q 670 706 589 786 q 753 482 751 626 q 738 379 753 436 l 242 379 q 293 183 243 251 q 447 114 343 114 m 438 661 q 318 619 364 661 q 254 503 272 576 l 574 503 l 574 519 q 535 624 574 588 q 438 661 497 661 m 476 1150 l 672 1150 l 483 856 l 342 856 l 476 1150 z "},"ě":{"ha":814,"x_min":61,"x_max":753,"o":"m 61 0 m 447 114 q 570 140 514 114 q 686 217 626 167 l 742 101 q 605 10 675 40 q 446 -21 535 -21 q 232 33 318 -21 q 103 177 146 86 q 61 382 61 268 q 104 590 61 499 q 233 733 147 681 q 446 786 319 786 q 670 706 589 786 q 753 482 751 626 q 738 379 753 436 l 242 379 q 293 183 243 251 q 447 114 343 114 m 438 661 q 318 619 364 661 q 254 503 272 576 l 574 503 l 574 519 q 535 624 574 588 q 438 661 497 661 m 674 1147 l 519 856 l 339 856 l 185 1147 l 326 1147 l 429 972 l 532 1147 l 674 1147 z "},"ê":{"ha":814,"x_min":61,"x_max":753,"o":"m 61 0 m 447 114 q 570 140 514 114 q 686 217 626 167 l 742 101 q 605 10 675 40 q 446 -21 535 -21 q 232 33 318 -21 q 103 177 146 86 q 61 382 61 268 q 104 590 61 499 q 233 733 147 681 q 446 786 319 786 q 670 706 589 786 q 753 482 751 626 q 738 379 753 436 l 242 379 q 293 183 243 251 q 447 114 343 114 m 438 661 q 318 619 364 661 q 254 503 272 576 l 574 503 l 574 519 q 535 624 574 588 q 438 661 497 661 m 532 856 l 429 1031 l 326 856 l 185 856 l 339 1147 l 519 1147 l 674 856 l 532 856 z "},"ë":{"ha":814,"x_min":61,"x_max":753,"o":"m 61 0 m 447 114 q 570 140 514 114 q 686 217 626 167 l 742 101 q 605 10 675 40 q 446 -21 535 -21 q 232 33 318 -21 q 103 177 146 86 q 61 382 61 268 q 104 590 61 499 q 233 733 147 681 q 446 786 319 786 q 670 706 589 786 q 753 482 751 626 q 738 379 753 436 l 242 379 q 293 183 243 251 q 447 114 343 114 m 438 661 q 318 619 364 661 q 254 503 272 576 l 574 503 l 574 519 q 535 624 574 588 q 438 661 497 661 m 269 932 q 199 962 229 932 q 168 1032 168 992 q 199 1103 168 1074 q 269 1133 229 1133 q 340 1103 310 1133 q 371 1032 371 1074 q 340 962 371 992 q 269 932 310 932 m 590 932 q 519 962 550 932 q 489 1032 489 992 q 519 1103 489 1074 q 590 1133 550 1133 q 661 1103 631 1133 q 692 1032 692 1074 q 661 962 692 992 q 590 932 631 932 z "},"ė":{"ha":814,"x_min":61,"x_max":753,"o":"m 61 0 m 447 114 q 570 140 514 114 q 686 217 626 167 l 742 101 q 605 10 675 40 q 446 -21 535 -21 q 232 33 318 -21 q 103 177 146 86 q 61 382 61 268 q 104 590 61 499 q 233 733 147 681 q 446 786 319 786 q 670 706 589 786 q 753 482 751 626 q 738 379 753 436 l 242 379 q 293 183 243 251 q 447 114 343 114 m 438 661 q 318 619 364 661 q 254 503 272 576 l 574 503 l 574 519 q 535 624 574 588 q 438 661 497 661 m 429 932 q 358 962 389 932 q 328 1032 328 992 q 358 1103 328 1074 q 429 1133 389 1133 q 500 1103 469 1133 q 531 1032 531 1074 q 500 962 531 992 q 429 932 469 932 z "},"è":{"ha":814,"x_min":61,"x_max":753,"o":"m 61 0 m 447 114 q 570 140 514 114 q 686 217 626 167 l 742 101 q 605 10 675 40 q 446 -21 535 -21 q 232 33 318 -21 q 103 177 146 86 q 61 382 61 268 q 104 590 61 499 q 233 733 147 681 q 446 786 319 786 q 670 706 589 786 q 753 482 751 626 q 738 379 753 436 l 242 379 q 293 183 243 251 q 447 114 343 114 m 438 661 q 318 619 364 661 q 254 503 272 576 l 574 503 l 574 519 q 535 624 574 588 q 438 661 497 661 m 183 1149 l 379 1149 l 514 856 l 372 856 l 183 1149 z "},"ē":{"ha":814,"x_min":61,"x_max":753,"o":"m 61 0 m 447 114 q 570 140 514 114 q 686 217 626 167 l 742 101 q 605 10 675 40 q 446 -21 535 -21 q 232 33 318 -21 q 103 177 146 86 q 61 382 61 268 q 104 590 61 499 q 233 733 147 681 q 446 786 319 786 q 670 706 589 786 q 753 482 751 626 q 738 379 753 436 l 242 379 q 293 183 243 251 q 447 114 343 114 m 438 661 q 318 619 364 661 q 254 503 272 576 l 574 503 l 574 519 q 535 624 574 588 q 438 661 497 661 m 181 1122 l 678 1122 l 678 992 l 181 992 l 181 1122 z "},"ę":{"ha":814,"x_min":61,"x_max":753,"o":"m 626 19 q 479 -178 479 -100 q 494 -217 479 -204 q 535 -231 508 -231 q 626 -187 579 -231 l 679 -285 q 603 -340 653 -317 q 501 -364 554 -364 q 379 -324 425 -364 q 333 -212 333 -283 q 358 -116 333 -167 q 429 -21 383 -65 q 224 38 307 -17 q 101 181 142 92 q 61 382 61 271 q 104 590 61 499 q 233 733 147 681 q 446 786 319 786 q 670 706 589 786 q 753 482 751 626 q 738 379 753 436 l 242 379 q 293 183 243 251 q 447 114 343 114 q 570 140 514 114 q 686 217 626 167 l 742 101 q 626 19 686 50 m 438 661 q 318 619 364 661 q 254 503 272 576 l 574 503 l 574 519 q 535 624 574 588 q 438 661 497 661 z "},"f":{"ha":588,"x_min":50,"x_max":576,"o":"m 351 765 l 574 765 l 574 633 l 351 633 l 351 0 l 168 0 l 168 633 l 50 633 l 50 711 l 168 751 l 168 814 q 240 1040 168 961 q 456 1118 311 1118 q 576 1107 506 1118 l 561 975 q 482 982 515 982 q 383 939 414 982 q 351 811 351 896 l 351 765 z "},"g":{"ha":826,"x_min":42,"x_max":817,"o":"m 817 632 l 669 649 q 699 533 699 597 q 665 406 699 464 q 562 312 631 347 q 396 276 493 276 q 313 285 350 276 q 260 201 260 236 q 278 163 260 175 q 339 151 297 151 l 561 151 q 740 101 675 151 q 804 -36 804 50 q 746 -191 804 -121 q 586 -302 688 -261 q 361 -343 485 -343 q 117 -283 193 -343 q 42 -139 42 -224 q 71 -43 42 -86 q 158 43 100 0 q 99 94 118 63 q 81 160 81 125 q 110 242 81 201 q 201 328 139 282 q 121 416 149 363 q 93 531 93 469 q 127 658 93 600 q 229 751 161 715 q 396 786 297 786 q 528 765 472 786 l 817 765 l 817 632 m 396 401 q 487 437 453 401 q 521 532 521 472 q 488 626 521 592 q 396 661 454 661 q 303 626 338 661 q 269 532 269 592 q 304 437 269 472 q 396 401 339 401 m 631 -62 q 522 14 631 14 l 313 14 l 293 14 q 215 -126 215 -57 q 361 -208 215 -208 q 498 -187 436 -208 q 595 -131 560 -165 q 631 -62 631 -97 z "},"ğ":{"ha":826,"x_min":42,"x_max":817,"o":"m 42 0 m 817 632 l 669 649 q 699 533 699 597 q 665 406 699 464 q 562 312 631 347 q 396 276 493 276 q 313 285 350 276 q 260 201 260 236 q 278 163 260 175 q 339 151 297 151 l 561 151 q 740 101 675 151 q 804 -36 804 50 q 746 -191 804 -121 q 586 -302 688 -261 q 361 -343 485 -343 q 117 -283 193 -343 q 42 -139 42 -224 q 71 -43 42 -86 q 158 43 100 0 q 99 94 118 63 q 81 160 81 125 q 110 242 81 201 q 201 328 139 282 q 121 416 149 363 q 93 531 93 469 q 127 658 93 600 q 229 751 161 715 q 396 786 297 786 q 528 765 472 786 l 817 765 l 817 632 m 396 401 q 487 437 453 401 q 521 532 521 472 q 488 626 521 592 q 396 661 454 661 q 303 626 338 661 q 269 532 269 592 q 304 437 269 472 q 396 401 339 401 m 631 -62 q 522 14 631 14 l 313 14 l 293 14 q 215 -126 215 -57 q 361 -208 215 -208 q 498 -187 436 -208 q 595 -131 560 -165 q 631 -62 631 -97 m 413 868 q 242 935 303 868 q 178 1133 181 1003 l 301 1136 q 334 1025 304 1063 q 413 988 364 988 q 491 1026 461 988 q 524 1138 521 1064 l 647 1133 q 583 935 644 1003 q 413 868 522 868 z "},"ģ":{"ha":826,"x_min":42,"x_max":817,"o":"m 42 0 m 817 632 l 669 649 q 699 533 699 597 q 665 406 699 464 q 562 312 631 347 q 396 276 493 276 q 313 285 350 276 q 260 201 260 236 q 278 163 260 175 q 339 151 297 151 l 561 151 q 740 101 675 151 q 804 -36 804 50 q 746 -191 804 -121 q 586 -302 688 -261 q 361 -343 485 -343 q 117 -283 193 -343 q 42 -139 42 -224 q 71 -43 42 -86 q 158 43 100 0 q 99 94 118 63 q 81 160 81 125 q 110 242 81 201 q 201 328 139 282 q 121 416 149 363 q 93 531 93 469 q 127 658 93 600 q 229 751 161 715 q 396 786 297 786 q 528 765 472 786 l 817 765 l 817 632 m 396 401 q 487 437 453 401 q 521 532 521 472 q 488 626 521 592 q 396 661 454 661 q 303 626 338 661 q 269 532 269 592 q 304 437 269 472 q 396 401 339 401 m 631 -62 q 522 14 631 14 l 313 14 l 293 14 q 215 -126 215 -57 q 361 -208 215 -208 q 498 -187 436 -208 q 595 -131 560 -165 q 631 -62 631 -97 m 464 867 q 336 913 376 876 q 296 1001 296 950 q 350 1109 296 1065 q 504 1163 404 1153 l 536 1079 q 456 1053 479 1071 q 433 1008 433 1036 q 503 958 433 964 l 464 867 z "},"h":{"ha":899,"x_min":121,"x_max":786,"o":"m 542 786 q 733 713 681 786 q 786 503 786 640 l 786 0 l 603 0 l 603 482 q 577 611 603 574 q 486 649 551 649 q 304 578 399 649 l 304 0 l 121 0 l 121 1111 l 304 1111 l 304 708 q 542 786 426 786 z "},"ħ":{"ha":899,"x_min":3,"x_max":786,"o":"m 542 786 q 733 713 681 786 q 786 503 786 640 l 786 0 l 603 0 l 603 482 q 577 611 603 574 q 486 649 551 649 q 304 578 399 649 l 304 0 l 121 0 l 121 869 l 3 869 l 3 1000 l 121 1000 l 121 1111 l 304 1111 l 304 1000 l 526 1000 l 526 869 l 304 869 l 304 708 q 542 786 426 786 z "},"i":{"ha":433,"x_min":107,"x_max":325,"o":"m 215 933 q 139 965 171 933 q 107 1042 107 997 q 139 1118 107 1086 q 215 1150 171 1150 q 293 1118 261 1150 q 325 1042 325 1086 q 293 965 325 997 q 215 933 261 933 m 125 765 l 308 765 l 308 0 l 125 0 l 125 765 z "},"ı":{"ha":433,"x_min":125,"x_max":308,"o":"m 125 765 l 308 765 l 308 0 l 125 0 l 125 765 z "},"í":{"ha":433,"x_min":125,"x_max":460,"o":"m 125 0 m 125 765 l 308 765 l 308 0 l 125 0 l 125 765 m 264 1150 l 460 1150 l 271 856 l 129 856 l 264 1150 z "},"î":{"ha":433,"x_min":-28,"x_max":461,"o":"m 0 0 m 125 765 l 308 765 l 308 0 l 125 0 l 125 765 m 319 856 l 217 1031 l 114 856 l -28 856 l 126 1147 l 307 1147 l 461 856 l 319 856 z "},"ï":{"ha":433,"x_min":-44,"x_max":479,"o":"m 0 0 m 125 765 l 308 765 l 308 0 l 125 0 l 125 765 m 57 932 q -14 962 17 932 q -44 1032 -44 992 q -14 1103 -44 1074 q 57 1133 17 1133 q 128 1103 97 1133 q 158 1032 158 1074 q 128 962 158 992 q 57 932 97 932 m 378 932 q 307 962 338 932 q 276 1032 276 992 q 307 1103 276 1074 q 378 1133 338 1133 q 449 1103 418 1133 q 479 1032 479 1074 q 449 962 479 992 q 378 932 418 932 z "},"ì":{"ha":433,"x_min":-29,"x_max":308,"o":"m 0 0 m 125 765 l 308 765 l 308 0 l 125 0 l 125 765 m -29 1149 l 167 1149 l 301 856 l 160 856 l -29 1149 z "},"ĳ":{"ha":858,"x_min":107,"x_max":756,"o":"m 107 0 m 215 933 q 139 965 171 933 q 107 1042 107 997 q 139 1118 107 1086 q 215 1150 171 1150 q 293 1118 261 1150 q 325 1042 325 1086 q 293 965 325 997 q 215 933 261 933 m 125 765 l 308 765 l 308 0 l 125 0 l 125 765 m 646 933 q 569 965 601 933 q 538 1042 538 997 q 569 1118 538 1086 q 646 1150 601 1150 q 724 1118 692 1150 q 756 1042 756 1086 q 724 965 756 997 q 646 933 692 933 m 450 -335 q 329 -324 400 -335 l 344 -193 q 424 -200 390 -200 q 523 -157 492 -200 q 554 -28 554 -114 l 554 765 l 738 765 l 738 -31 q 666 -256 738 -178 q 450 -335 594 -335 z "},"ī":{"ha":433,"x_min":-32,"x_max":465,"o":"m 0 0 m 125 765 l 308 765 l 308 0 l 125 0 l 125 765 m -32 1122 l 465 1122 l 465 992 l -32 992 l -32 1122 z "},"į":{"ha":433,"x_min":-29,"x_max":325,"o":"m 215 933 q 139 965 171 933 q 107 1042 107 997 q 139 1118 107 1086 q 215 1150 171 1150 q 293 1118 261 1150 q 325 1042 325 1086 q 293 965 325 997 q 215 933 261 933 m 172 -231 q 264 -187 217 -231 l 317 -285 q 241 -340 290 -317 q 139 -364 192 -364 q 17 -324 63 -364 q -29 -212 -29 -283 q 10 -91 -29 -154 q 117 21 49 -28 l 125 21 l 125 765 l 308 765 l 308 0 l 240 0 q 117 -178 117 -104 q 131 -217 117 -204 q 172 -231 146 -231 z "},"ĩ":{"ha":433,"x_min":-39,"x_max":472,"o":"m 0 0 m 125 765 l 308 765 l 308 0 l 125 0 l 125 765 m -39 908 q 10 1071 -32 1013 q 118 1129 53 1129 q 173 1117 149 1129 q 228 1081 197 1104 q 271 1052 254 1061 q 307 1043 288 1043 q 344 1065 329 1043 q 369 1139 358 1088 l 472 1133 q 423 973 465 1035 q 317 911 381 911 q 258 924 283 911 q 199 961 232 938 q 159 988 175 979 q 126 997 143 997 q 89 975 103 997 q 65 903 75 953 l -39 908 z "},"j":{"ha":425,"x_min":-104,"x_max":322,"o":"m 213 933 q 136 965 168 933 q 104 1042 104 997 q 136 1118 104 1086 q 213 1150 168 1150 q 290 1118 258 1150 q 322 1042 322 1086 q 290 965 322 997 q 213 933 258 933 m 17 -335 q -104 -324 -33 -335 l -89 -193 q -10 -200 -43 -200 q 90 -157 58 -200 q 121 -28 121 -114 l 121 765 l 304 765 l 304 -31 q 233 -256 304 -178 q 17 -335 161 -335 z "},"ȷ":{"ha":425,"x_min":-104,"x_max":304,"o":"m 17 -335 q -104 -324 -33 -335 l -89 -193 q -10 -200 -43 -200 q 90 -157 58 -200 q 121 -28 121 -114 l 121 765 l 304 765 l 304 -31 q 233 -256 304 -178 q 17 -335 161 -335 z "},"ĵ":{"ha":425,"x_min":-104,"x_max":457,"o":"m 0 0 m 17 -335 q -104 -324 -33 -335 l -89 -193 q -10 -200 -43 -200 q 90 -157 58 -200 q 121 -28 121 -114 l 121 765 l 304 765 l 304 -31 q 233 -256 304 -178 q 17 -335 161 -335 m 315 856 l 213 1031 l 110 856 l -32 856 l 122 1147 l 303 1147 l 457 856 l 315 856 z "},"k":{"ha":835,"x_min":121,"x_max":817,"o":"m 121 1111 l 304 1111 l 304 0 l 121 0 l 121 1111 m 817 0 l 614 0 l 311 404 l 311 432 l 574 765 l 764 765 l 485 418 l 817 0 z "},"ķ":{"ha":835,"x_min":121,"x_max":817,"o":"m 121 0 m 121 1111 l 304 1111 l 304 0 l 121 0 l 121 1111 m 817 0 l 614 0 l 311 404 l 311 432 l 574 765 l 764 765 l 485 418 l 817 0 m 332 -271 q 412 -244 389 -262 q 435 -200 435 -226 q 365 -149 435 -154 l 403 -57 q 532 -103 492 -67 q 572 -192 572 -140 q 518 -301 572 -257 q 364 -354 464 -344 l 332 -271 z "},"ĸ":{"ha":881,"x_min":121,"x_max":817,"o":"m 121 765 l 304 765 l 304 0 l 121 0 l 121 765 m 817 0 l 614 0 l 311 404 l 311 432 l 574 765 l 764 765 l 485 418 l 817 0 z "},"l":{"ha":425,"x_min":121,"x_max":304,"o":"m 121 1111 l 304 1111 l 304 0 l 121 0 l 121 1111 z "},"ĺ":{"ha":425,"x_min":121,"x_max":456,"o":"m 121 0 m 121 1111 l 304 1111 l 304 0 l 121 0 l 121 1111 m 260 1433 l 456 1433 l 267 1139 l 125 1139 l 260 1433 z "},"ľ":{"ha":425,"x_min":121,"x_max":589,"o":"m 121 0 m 121 1111 l 304 1111 l 304 0 l 121 0 l 121 1111 m 367 815 q 423 890 406 850 q 440 983 440 931 q 410 1111 440 1043 l 572 1111 q 589 999 589 1051 q 541 851 589 918 q 419 746 493 783 l 367 815 z "},"ļ":{"ha":425,"x_min":96,"x_max":336,"o":"m 96 0 m 121 1111 l 304 1111 l 304 0 l 121 0 l 121 1111 m 96 -271 q 176 -244 153 -262 q 199 -200 199 -226 q 129 -149 199 -154 l 167 -57 q 296 -103 256 -67 q 336 -192 336 -140 q 282 -301 336 -257 q 128 -354 228 -344 l 96 -271 z "},"ŀ":{"ha":425,"x_min":121,"x_max":540,"o":"m 121 0 m 121 1111 l 304 1111 l 304 0 l 121 0 l 121 1111 m 425 253 q 344 286 378 253 q 310 367 310 319 q 344 449 310 415 q 425 483 378 483 q 506 449 472 483 q 540 367 540 415 q 506 286 540 319 q 425 253 472 253 z "},"ł":{"ha":425,"x_min":-42,"x_max":467,"o":"m 304 563 l 304 0 l 121 0 l 121 432 l 36 371 l -42 476 l 121 593 l 121 1111 l 304 1111 l 304 724 l 390 785 l 467 679 l 304 563 z "},"m":{"ha":1361,"x_min":121,"x_max":1247,"o":"m 1008 786 q 1196 713 1144 786 q 1247 503 1247 640 l 1247 0 l 1065 0 l 1065 482 q 1041 611 1065 574 q 953 649 1017 649 q 774 575 872 649 l 771 582 q 775 503 775 544 l 775 0 l 593 0 l 593 482 q 569 611 593 574 q 481 649 544 649 q 304 576 399 649 l 304 0 l 121 0 l 121 765 l 258 765 l 281 694 q 536 786 415 786 q 665 760 615 786 q 740 686 714 735 q 1008 786 883 786 z "},"n":{"ha":899,"x_min":121,"x_max":785,"o":"m 542 786 q 733 713 681 786 q 785 503 785 640 l 785 0 l 603 0 l 603 482 q 577 611 603 574 q 486 649 551 649 q 304 578 399 649 l 304 0 l 121 0 l 121 765 l 258 765 l 281 694 q 542 786 414 786 z "},"ń":{"ha":899,"x_min":121,"x_max":785,"o":"m 121 0 m 542 786 q 733 713 681 786 q 785 503 785 640 l 785 0 l 603 0 l 603 482 q 577 611 603 574 q 486 649 551 649 q 304 578 399 649 l 304 0 l 121 0 l 121 765 l 258 765 l 281 694 q 542 786 414 786 m 500 1150 l 696 1150 l 507 856 l 365 856 l 500 1150 z "},"ň":{"ha":899,"x_min":121,"x_max":785,"o":"m 121 0 m 542 786 q 733 713 681 786 q 785 503 785 640 l 785 0 l 603 0 l 603 482 q 577 611 603 574 q 486 649 551 649 q 304 578 399 649 l 304 0 l 121 0 l 121 765 l 258 765 l 281 694 q 542 786 414 786 m 697 1147 l 543 856 l 363 856 l 208 1147 l 350 1147 l 453 972 l 556 1147 l 697 1147 z "},"ņ":{"ha":899,"x_min":121,"x_max":785,"o":"m 121 0 m 542 786 q 733 713 681 786 q 785 503 785 640 l 785 0 l 603 0 l 603 482 q 577 611 603 574 q 486 649 551 649 q 304 578 399 649 l 304 0 l 121 0 l 121 765 l 258 765 l 281 694 q 542 786 414 786 m 336 -271 q 416 -244 393 -262 q 439 -200 439 -226 q 369 -149 439 -154 l 407 -57 q 536 -103 496 -67 q 576 -192 576 -140 q 522 -301 576 -257 q 368 -354 468 -344 l 336 -271 z "},"ñ":{"ha":899,"x_min":121,"x_max":785,"o":"m 121 0 m 542 786 q 733 713 681 786 q 785 503 785 640 l 785 0 l 603 0 l 603 482 q 577 611 603 574 q 486 649 551 649 q 304 578 399 649 l 304 0 l 121 0 l 121 765 l 258 765 l 281 694 q 542 786 414 786 m 197 908 q 247 1071 204 1013 q 354 1129 289 1129 q 409 1117 385 1129 q 464 1081 433 1104 q 507 1052 490 1061 q 543 1043 524 1043 q 580 1065 565 1043 q 606 1139 594 1088 l 708 1133 q 659 973 701 1035 q 553 911 617 911 q 494 924 519 911 q 435 961 468 938 q 395 988 411 979 q 363 997 379 997 q 325 975 339 997 q 301 903 311 953 l 197 908 z "},"o":{"ha":893,"x_min":61,"x_max":833,"o":"m 447 -21 q 235 33 322 -21 q 104 177 147 86 q 61 382 61 268 q 104 590 61 499 q 234 733 147 681 q 447 786 321 786 q 659 731 572 786 q 790 585 746 676 q 833 385 833 493 q 790 183 833 275 q 659 35 746 90 q 447 -21 572 -21 m 446 114 q 597 184 547 114 q 646 383 646 254 q 596 581 646 511 q 446 651 546 651 q 296 581 346 651 q 246 383 246 511 q 295 184 246 254 q 446 114 344 114 z "},"ó":{"ha":893,"x_min":61,"x_max":833,"o":"m 61 0 m 447 -21 q 235 33 322 -21 q 104 177 147 86 q 61 382 61 268 q 104 590 61 499 q 234 733 147 681 q 447 786 321 786 q 659 731 572 786 q 790 585 746 676 q 833 385 833 493 q 790 183 833 275 q 659 35 746 90 q 447 -21 572 -21 m 446 114 q 597 184 547 114 q 646 383 646 254 q 596 581 646 511 q 446 651 546 651 q 296 581 346 651 q 246 383 246 511 q 295 184 246 254 q 446 114 344 114 m 493 1150 l 689 1150 l 500 856 l 358 856 l 493 1150 z "},"ô":{"ha":893,"x_min":61,"x_max":833,"o":"m 61 0 m 447 -21 q 235 33 322 -21 q 104 177 147 86 q 61 382 61 268 q 104 590 61 499 q 234 733 147 681 q 447 786 321 786 q 659 731 572 786 q 790 585 746 676 q 833 385 833 493 q 790 183 833 275 q 659 35 746 90 q 447 -21 572 -21 m 446 114 q 597 184 547 114 q 646 383 646 254 q 596 581 646 511 q 446 651 546 651 q 296 581 346 651 q 246 383 246 511 q 295 184 246 254 q 446 114 344 114 m 549 856 l 446 1031 l 343 856 l 201 856 l 356 1147 l 536 1147 l 690 856 l 549 856 z "},"ö":{"ha":893,"x_min":61,"x_max":833,"o":"m 61 0 m 447 -21 q 235 33 322 -21 q 104 177 147 86 q 61 382 61 268 q 104 590 61 499 q 234 733 147 681 q 447 786 321 786 q 659 731 572 786 q 790 585 746 676 q 833 385 833 493 q 790 183 833 275 q 659 35 746 90 q 447 -21 572 -21 m 446 114 q 597 184 547 114 q 646 383 646 254 q 596 581 646 511 q 446 651 546 651 q 296 581 346 651 q 246 383 246 511 q 295 184 246 254 q 446 114 344 114 m 286 932 q 215 962 246 932 q 185 1032 185 992 q 215 1103 185 1074 q 286 1133 246 1133 q 357 1103 326 1133 q 388 1032 388 1074 q 357 962 388 992 q 286 932 326 932 m 607 932 q 536 962 567 932 q 506 1032 506 992 q 536 1103 506 1074 q 607 1133 567 1133 q 678 1103 647 1133 q 708 1032 708 1074 q 678 962 708 992 q 607 932 647 932 z "},"ò":{"ha":893,"x_min":61,"x_max":833,"o":"m 61 0 m 447 -21 q 235 33 322 -21 q 104 177 147 86 q 61 382 61 268 q 104 590 61 499 q 234 733 147 681 q 447 786 321 786 q 659 731 572 786 q 790 585 746 676 q 833 385 833 493 q 790 183 833 275 q 659 35 746 90 q 447 -21 572 -21 m 446 114 q 597 184 547 114 q 646 383 646 254 q 596 581 646 511 q 446 651 546 651 q 296 581 346 651 q 246 383 246 511 q 295 184 246 254 q 446 114 344 114 m 200 1149 l 396 1149 l 531 856 l 389 856 l 200 1149 z "},"ő":{"ha":893,"x_min":61,"x_max":833,"o":"m 61 0 m 447 -21 q 235 33 322 -21 q 104 177 147 86 q 61 382 61 268 q 104 590 61 499 q 234 733 147 681 q 447 786 321 786 q 659 731 572 786 q 790 585 746 676 q 833 385 833 493 q 790 183 833 275 q 659 35 746 90 q 447 -21 572 -21 m 446 114 q 597 184 547 114 q 646 383 646 254 q 596 581 646 511 q 446 651 546 651 q 296 581 346 651 q 246 383 246 511 q 295 184 246 254 q 446 114 344 114 m 386 1149 l 556 1149 l 367 856 l 251 856 l 386 1149 m 649 1149 l 818 1149 l 629 856 l 514 856 l 649 1149 z "},"ō":{"ha":893,"x_min":61,"x_max":833,"o":"m 61 0 m 447 -21 q 235 33 322 -21 q 104 177 147 86 q 61 382 61 268 q 104 590 61 499 q 234 733 147 681 q 447 786 321 786 q 659 731 572 786 q 790 585 746 676 q 833 385 833 493 q 790 183 833 275 q 659 35 746 90 q 447 -21 572 -21 m 446 114 q 597 184 547 114 q 646 383 646 254 q 596 581 646 511 q 446 651 546 651 q 296 581 346 651 q 246 383 246 511 q 295 184 246 254 q 446 114 344 114 m 197 1122 l 694 1122 l 694 992 l 197 992 l 197 1122 z "},"ø":{"ha":893,"x_min":61,"x_max":833,"o":"m 722 681 q 806 548 778 625 q 833 385 833 471 q 790 183 833 275 q 659 35 746 90 q 447 -21 572 -21 q 242 28 331 -21 l 174 -65 l 93 -12 l 167 88 q 88 217 114 142 q 61 382 61 293 q 104 590 61 499 q 234 733 147 681 q 447 786 321 786 q 646 739 563 786 l 711 828 l 792 775 l 722 681 m 246 383 q 271 229 246 292 l 558 619 q 446 651 511 651 q 296 581 346 651 q 246 383 246 511 m 446 114 q 597 184 547 114 q 646 383 646 254 q 619 540 646 479 l 331 149 q 446 114 378 114 z "},"õ":{"ha":893,"x_min":61,"x_max":833,"o":"m 61 0 m 447 -21 q 235 33 322 -21 q 104 177 147 86 q 61 382 61 268 q 104 590 61 499 q 234 733 147 681 q 447 786 321 786 q 659 731 572 786 q 790 585 746 676 q 833 385 833 493 q 790 183 833 275 q 659 35 746 90 q 447 -21 572 -21 m 446 114 q 597 184 547 114 q 646 383 646 254 q 596 581 646 511 q 446 651 546 651 q 296 581 346 651 q 246 383 246 511 q 295 184 246 254 q 446 114 344 114 m 190 908 q 240 1071 197 1013 q 347 1129 282 1129 q 402 1117 378 1129 q 457 1081 426 1104 q 500 1052 483 1061 q 536 1043 517 1043 q 573 1065 558 1043 q 599 1139 588 1088 l 701 1133 q 652 973 694 1035 q 546 911 610 911 q 487 924 513 911 q 428 961 461 938 q 388 988 404 979 q 356 997 372 997 q 318 975 332 997 q 294 903 304 953 l 190 908 z "},"œ":{"ha":1400,"x_min":61,"x_max":1339,"o":"m 1033 114 q 1155 140 1100 114 q 1272 218 1210 167 l 1328 103 q 1191 10 1261 42 q 1032 -21 1121 -21 q 735 104 839 -21 q 614 12 686 44 q 447 -21 542 -21 q 235 33 322 -21 q 104 177 147 86 q 61 382 61 268 q 105 590 61 499 q 236 733 149 681 q 447 786 324 786 q 614 753 542 786 q 736 661 686 721 q 859 753 785 721 q 1032 786 933 786 q 1256 706 1175 786 q 1339 482 1338 626 q 1324 379 1339 436 l 828 379 q 879 183 829 251 q 1033 114 929 114 m 1024 661 q 904 619 950 661 q 840 503 858 576 l 1160 503 l 1160 519 q 1122 624 1160 588 q 1024 661 1083 661 m 446 114 q 597 184 547 114 q 646 383 646 254 q 596 581 646 511 q 446 651 546 651 q 296 581 346 651 q 246 383 246 511 q 295 184 246 254 q 446 114 344 114 z "},"p":{"ha":901,"x_min":121,"x_max":842,"o":"m 501 786 q 678 740 601 786 q 799 603 756 693 q 842 388 842 513 q 727 80 842 181 q 425 -21 613 -21 q 304 -6 357 -21 l 304 -325 l 121 -325 l 121 767 l 258 767 l 278 707 q 501 786 375 786 m 415 114 q 597 185 538 114 q 656 392 656 257 q 607 590 656 531 q 483 650 558 650 q 389 637 431 650 q 304 594 347 624 l 304 131 q 415 114 357 114 z "},"þ":{"ha":901,"x_min":121,"x_max":842,"o":"m 501 786 q 678 740 601 786 q 799 606 756 694 q 842 392 842 517 q 792 160 842 253 q 658 24 742 68 q 469 -21 574 -21 q 304 22 381 -21 l 304 -325 l 121 -325 l 121 1111 l 304 1111 l 304 726 q 501 786 394 786 m 450 114 q 656 392 656 114 q 606 590 656 531 q 483 650 557 650 q 389 637 431 650 q 304 594 347 624 l 304 156 q 450 114 371 114 z "},"q":{"ha":901,"x_min":61,"x_max":781,"o":"m 781 767 l 781 -329 l 597 -329 l 597 39 q 401 -21 507 -21 q 224 25 301 -21 q 104 160 147 71 q 61 375 61 249 q 111 605 61 513 q 245 742 161 697 q 432 786 329 786 q 632 722 539 786 l 653 767 l 781 767 m 419 115 q 513 129 472 115 q 597 172 554 143 l 597 611 q 451 651 529 651 q 247 375 247 651 q 296 176 247 236 q 419 115 344 115 z "},"r":{"ha":607,"x_min":121,"x_max":564,"o":"m 564 611 q 435 597 496 611 q 304 540 375 582 l 304 0 l 121 0 l 121 765 l 258 765 l 289 671 q 425 759 358 733 q 564 785 492 785 l 564 611 z "},"ŕ":{"ha":607,"x_min":121,"x_max":576,"o":"m 121 0 m 564 611 q 435 597 496 611 q 304 540 375 582 l 304 0 l 121 0 l 121 765 l 258 765 l 289 671 q 425 759 358 733 q 564 785 492 785 l 564 611 m 381 1150 l 576 1150 l 388 856 l 246 856 l 381 1150 z "},"ř":{"ha":607,"x_min":89,"x_max":578,"o":"m 89 0 m 564 611 q 435 597 496 611 q 304 540 375 582 l 304 0 l 121 0 l 121 765 l 258 765 l 289 671 q 425 759 358 733 q 564 785 492 785 l 564 611 m 578 1147 l 424 856 l 243 856 l 89 1147 l 231 1147 l 333 972 l 436 1147 l 578 1147 z "},"ŗ":{"ha":607,"x_min":93,"x_max":564,"o":"m 93 0 m 564 611 q 435 597 496 611 q 304 540 375 582 l 304 0 l 121 0 l 121 765 l 258 765 l 289 671 q 425 759 358 733 q 564 785 492 785 l 564 611 m 93 -271 q 173 -244 150 -262 q 196 -200 196 -226 q 126 -149 196 -154 l 164 -57 q 293 -103 253 -67 q 333 -192 333 -140 q 279 -301 333 -257 q 125 -354 225 -344 l 93 -271 z "},"s":{"ha":721,"x_min":61,"x_max":661,"o":"m 333 -21 q 61 40 176 -21 l 103 168 q 331 114 213 114 q 440 138 399 114 q 481 211 481 163 q 442 275 481 251 q 322 328 404 299 q 198 379 246 356 q 116 445 150 403 q 82 550 82 488 q 165 726 82 665 q 390 786 249 786 q 519 772 456 786 q 631 729 582 757 l 589 601 q 394 651 492 651 q 298 631 333 651 q 263 569 263 611 q 299 508 263 529 q 417 457 335 486 q 542 406 494 431 q 626 337 590 382 q 661 222 661 292 q 576 44 661 108 q 333 -21 490 -21 z "},"ś":{"ha":721,"x_min":61,"x_max":661,"o":"m 61 0 m 333 -21 q 61 40 176 -21 l 103 168 q 331 114 213 114 q 440 138 399 114 q 481 211 481 163 q 442 275 481 251 q 322 328 404 299 q 198 379 246 356 q 116 445 150 403 q 82 550 82 488 q 165 726 82 665 q 390 786 249 786 q 519 772 456 786 q 631 729 582 757 l 589 601 q 394 651 492 651 q 298 631 333 651 q 263 569 263 611 q 299 508 263 529 q 417 457 335 486 q 542 406 494 431 q 626 337 590 382 q 661 222 661 292 q 576 44 661 108 q 333 -21 490 -21 m 421 1150 l 617 1150 l 428 856 l 286 856 l 421 1150 z "},"š":{"ha":721,"x_min":61,"x_max":661,"o":"m 61 0 m 333 -21 q 61 40 176 -21 l 103 168 q 331 114 213 114 q 440 138 399 114 q 481 211 481 163 q 442 275 481 251 q 322 328 404 299 q 198 379 246 356 q 116 445 150 403 q 82 550 82 488 q 165 726 82 665 q 390 786 249 786 q 519 772 456 786 q 631 729 582 757 l 589 601 q 394 651 492 651 q 298 631 333 651 q 263 569 263 611 q 299 508 263 529 q 417 457 335 486 q 542 406 494 431 q 626 337 590 382 q 661 222 661 292 q 576 44 661 108 q 333 -21 490 -21 m 618 1147 l 464 856 l 283 856 l 129 1147 l 271 1147 l 374 972 l 476 1147 l 618 1147 z "},"ş":{"ha":721,"x_min":61,"x_max":661,"o":"m 661 222 q 591 56 661 119 q 392 -18 521 -7 l 363 -74 q 451 -104 415 -75 q 488 -178 488 -133 q 434 -281 488 -236 q 261 -336 381 -325 l 232 -253 q 326 -226 300 -242 q 351 -187 351 -210 q 340 -162 351 -171 q 307 -153 328 -153 q 263 -162 286 -153 l 219 -111 l 269 -18 q 61 40 151 -8 l 103 168 q 331 114 213 114 q 440 138 399 114 q 481 211 481 163 q 442 275 481 251 q 322 328 404 299 q 198 379 246 356 q 116 445 150 403 q 82 550 82 488 q 165 726 82 665 q 390 786 249 786 q 519 772 456 786 q 631 729 582 757 l 589 601 q 394 651 492 651 q 298 631 333 651 q 263 569 263 611 q 299 508 263 529 q 417 457 335 486 q 542 406 494 431 q 626 337 590 382 q 661 222 661 292 z "},"ș":{"ha":721,"x_min":61,"x_max":661,"o":"m 61 0 m 333 -21 q 61 40 176 -21 l 103 168 q 331 114 213 114 q 440 138 399 114 q 481 211 481 163 q 442 275 481 251 q 322 328 404 299 q 198 379 246 356 q 116 445 150 403 q 82 550 82 488 q 165 726 82 665 q 390 786 249 786 q 519 772 456 786 q 631 729 582 757 l 589 601 q 394 651 492 651 q 298 631 333 651 q 263 569 263 611 q 299 508 263 529 q 417 457 335 486 q 542 406 494 431 q 626 337 590 382 q 661 222 661 292 q 576 44 661 108 q 333 -21 490 -21 m 225 -271 q 305 -244 282 -262 q 328 -200 328 -226 q 258 -149 328 -154 l 296 -57 q 425 -103 385 -67 q 465 -192 465 -140 q 411 -301 465 -257 q 257 -354 357 -344 l 225 -271 z "},"ß":{"ha":933,"x_min":121,"x_max":872,"o":"m 586 -21 q 360 25 464 -21 l 400 154 q 487 125 440 136 q 576 114 533 114 q 662 138 631 114 q 693 210 693 163 q 665 275 693 249 q 575 336 636 301 q 488 392 521 367 q 430 459 454 418 q 406 556 406 500 q 422 642 406 604 q 461 708 439 681 q 521 772 483 735 q 579 838 560 811 q 599 894 599 864 q 565 960 599 938 q 469 982 532 982 q 304 804 304 982 l 304 0 l 121 0 l 121 807 q 213 1037 121 956 q 479 1118 304 1118 q 700 1060 621 1118 q 779 901 779 1003 q 750 797 779 842 q 667 700 721 753 q 605 633 625 660 q 585 574 585 606 q 610 516 585 539 q 694 458 636 493 q 785 399 750 426 q 847 326 821 371 q 872 221 872 282 q 833 94 872 149 q 729 9 794 39 q 586 -21 664 -21 z "},"t":{"ha":633,"x_min":31,"x_max":594,"o":"m 594 40 q 506 0 554 14 q 411 -14 458 -14 q 214 51 279 -14 q 149 236 149 115 l 149 633 l 31 633 l 31 711 l 168 758 l 221 954 l 332 954 l 332 765 l 554 765 l 554 633 l 332 633 l 332 275 q 358 158 332 193 q 438 122 383 122 q 565 157 496 122 l 594 40 z "},"ť":{"ha":633,"x_min":31,"x_max":607,"o":"m 31 0 m 594 40 q 506 0 554 14 q 411 -14 458 -14 q 214 51 279 -14 q 149 236 149 115 l 149 633 l 31 633 l 31 711 l 168 758 l 221 954 l 332 954 l 332 765 l 554 765 l 554 633 l 332 633 l 332 275 q 358 158 332 193 q 438 122 383 122 q 565 157 496 122 l 594 40 m 385 900 q 441 975 424 935 q 458 1068 458 1015 q 428 1196 458 1128 l 590 1196 q 607 1083 607 1136 q 559 935 607 1003 q 438 831 511 868 l 385 900 z "},"ț":{"ha":633,"x_min":31,"x_max":594,"o":"m 31 0 m 594 40 q 506 0 554 14 q 411 -14 458 -14 q 214 51 279 -14 q 149 236 149 115 l 149 633 l 31 633 l 31 711 l 168 758 l 221 954 l 332 954 l 332 765 l 554 765 l 554 633 l 332 633 l 332 275 q 358 158 332 193 q 438 122 383 122 q 565 157 496 122 l 594 40 m 243 -271 q 323 -244 300 -262 q 346 -200 346 -226 q 276 -149 346 -154 l 314 -57 q 443 -103 403 -67 q 483 -192 483 -140 q 429 -301 483 -257 q 275 -354 375 -344 l 243 -271 z "},"u":{"ha":899,"x_min":114,"x_max":779,"o":"m 779 765 l 779 0 l 642 0 l 619 71 q 358 -21 486 -21 q 167 52 219 -21 q 114 263 114 125 l 114 765 l 297 765 l 297 283 q 322 154 297 192 q 414 117 347 117 q 596 189 500 117 l 596 765 l 779 765 z "},"ú":{"ha":899,"x_min":114,"x_max":779,"o":"m 114 0 m 779 765 l 779 0 l 642 0 l 619 71 q 358 -21 486 -21 q 167 52 219 -21 q 114 263 114 125 l 114 765 l 297 765 l 297 283 q 322 154 297 192 q 414 117 347 117 q 596 189 500 117 l 596 765 l 779 765 m 492 1150 l 688 1150 l 499 856 l 357 856 l 492 1150 z "},"û":{"ha":899,"x_min":114,"x_max":779,"o":"m 114 0 m 779 765 l 779 0 l 642 0 l 619 71 q 358 -21 486 -21 q 167 52 219 -21 q 114 263 114 125 l 114 765 l 297 765 l 297 283 q 322 154 297 192 q 414 117 347 117 q 596 189 500 117 l 596 765 l 779 765 m 547 856 l 444 1031 l 342 856 l 200 856 l 354 1147 l 535 1147 l 689 856 l 547 856 z "},"ü":{"ha":899,"x_min":114,"x_max":779,"o":"m 114 0 m 779 765 l 779 0 l 642 0 l 619 71 q 358 -21 486 -21 q 167 52 219 -21 q 114 263 114 125 l 114 765 l 297 765 l 297 283 q 322 154 297 192 q 414 117 347 117 q 596 189 500 117 l 596 765 l 779 765 m 285 932 q 214 962 244 932 q 183 1032 183 992 q 214 1103 183 1074 q 285 1133 244 1133 q 356 1103 325 1133 q 386 1032 386 1074 q 356 962 386 992 q 285 932 325 932 m 606 932 q 535 962 565 932 q 504 1032 504 992 q 535 1103 504 1074 q 606 1133 565 1133 q 676 1103 646 1133 q 707 1032 707 1074 q 676 962 707 992 q 606 932 646 932 z "},"ù":{"ha":899,"x_min":114,"x_max":779,"o":"m 114 0 m 779 765 l 779 0 l 642 0 l 619 71 q 358 -21 486 -21 q 167 52 219 -21 q 114 263 114 125 l 114 765 l 297 765 l 297 283 q 322 154 297 192 q 414 117 347 117 q 596 189 500 117 l 596 765 l 779 765 m 199 1149 l 394 1149 l 529 856 l 388 856 l 199 1149 z "},"ű":{"ha":899,"x_min":114,"x_max":817,"o":"m 114 0 m 779 765 l 779 0 l 642 0 l 619 71 q 358 -21 486 -21 q 167 52 219 -21 q 114 263 114 125 l 114 765 l 297 765 l 297 283 q 322 154 297 192 q 414 117 347 117 q 596 189 500 117 l 596 765 l 779 765 m 385 1149 l 554 1149 l 365 856 l 250 856 l 385 1149 m 647 1149 l 817 1149 l 628 856 l 513 856 l 647 1149 z "},"ū":{"ha":899,"x_min":114,"x_max":779,"o":"m 114 0 m 779 765 l 779 0 l 642 0 l 619 71 q 358 -21 486 -21 q 167 52 219 -21 q 114 263 114 125 l 114 765 l 297 765 l 297 283 q 322 154 297 192 q 414 117 347 117 q 596 189 500 117 l 596 765 l 779 765 m 196 1122 l 693 1122 l 693 992 l 196 992 l 196 1122 z "},"ų":{"ha":899,"x_min":114,"x_max":836,"o":"m 836 -285 q 760 -340 810 -317 q 658 -364 711 -364 q 536 -324 582 -364 q 490 -212 490 -283 q 528 -91 490 -154 q 635 21 567 -28 l 619 71 q 358 -21 486 -21 q 167 52 219 -21 q 114 263 114 125 l 114 765 l 297 765 l 297 283 q 322 154 297 192 q 414 117 347 117 q 596 189 500 117 l 596 765 l 779 765 l 779 21 l 785 21 l 779 17 l 779 0 l 760 0 q 636 -178 636 -104 q 651 -217 636 -204 q 692 -231 665 -231 q 783 -187 736 -231 l 836 -285 z "},"ů":{"ha":899,"x_min":114,"x_max":779,"o":"m 114 0 m 779 765 l 779 0 l 642 0 l 619 71 q 358 -21 486 -21 q 167 52 219 -21 q 114 263 114 125 l 114 765 l 297 765 l 297 283 q 322 154 297 192 q 414 117 347 117 q 596 189 500 117 l 596 765 l 779 765 m 444 851 q 342 874 385 851 q 278 934 300 897 q 257 1011 257 971 q 307 1124 257 1076 q 444 1171 357 1171 q 583 1124 532 1171 q 633 1011 633 1076 q 611 934 633 971 q 547 874 589 897 q 444 851 504 851 m 444 933 q 499 956 479 933 q 519 1011 519 978 q 499 1067 519 1046 q 444 1089 479 1089 q 391 1067 411 1089 q 371 1011 371 1046 q 391 956 371 978 q 444 933 411 933 z "},"v":{"ha":800,"x_min":17,"x_max":785,"o":"m 785 765 l 489 -8 l 313 -8 l 17 765 l 204 765 l 403 183 l 601 765 l 785 765 z "},"w":{"ha":1183,"x_min":19,"x_max":1165,"o":"m 1165 765 l 924 -8 l 749 -8 l 593 569 l 436 -8 l 261 -8 l 19 765 l 207 765 l 347 189 l 507 765 l 679 765 l 838 188 l 981 765 l 1165 765 z "},"x":{"ha":831,"x_min":19,"x_max":813,"o":"m 608 0 l 414 288 l 221 0 l 19 0 l 310 399 l 43 765 l 246 765 l 417 503 l 586 765 l 785 765 l 518 400 l 813 0 l 608 0 z "},"y":{"ha":817,"x_min":19,"x_max":803,"o":"m 803 765 l 475 -103 q 349 -291 428 -233 q 158 -349 271 -349 q 19 -326 78 -349 l 35 -189 q 140 -208 96 -208 q 258 -171 210 -208 q 344 -43 306 -133 l 32 765 l 219 765 l 422 185 l 618 765 l 803 765 z "},"ý":{"ha":817,"x_min":19,"x_max":803,"o":"m 19 0 m 803 765 l 475 -103 q 349 -291 428 -233 q 158 -349 271 -349 q 19 -326 78 -349 l 35 -189 q 140 -208 96 -208 q 258 -171 210 -208 q 344 -43 306 -133 l 32 765 l 219 765 l 422 185 l 618 765 l 803 765 m 467 1150 l 663 1150 l 474 856 l 332 856 l 467 1150 z "},"ÿ":{"ha":817,"x_min":19,"x_max":803,"o":"m 19 0 m 803 765 l 475 -103 q 349 -291 428 -233 q 158 -349 271 -349 q 19 -326 78 -349 l 35 -189 q 140 -208 96 -208 q 258 -171 210 -208 q 344 -43 306 -133 l 32 765 l 219 765 l 422 185 l 618 765 l 803 765 m 260 932 q 189 962 219 932 q 158 1032 158 992 q 189 1103 158 1074 q 260 1133 219 1133 q 331 1103 300 1133 q 361 1032 361 1074 q 331 962 361 992 q 260 932 300 932 m 581 932 q 510 962 540 932 q 479 1032 479 992 q 510 1103 479 1074 q 581 1133 540 1133 q 651 1103 621 1133 q 682 1032 682 1074 q 651 962 682 992 q 581 932 621 932 z "},"z":{"ha":742,"x_min":47,"x_max":690,"o":"m 690 132 l 690 0 l 47 0 l 47 99 l 467 633 l 65 633 l 65 765 l 676 765 l 676 664 l 260 132 l 690 132 z "},"ź":{"ha":742,"x_min":47,"x_max":690,"o":"m 47 0 m 690 132 l 690 0 l 47 0 l 47 99 l 467 633 l 65 633 l 65 765 l 676 765 l 676 664 l 260 132 l 690 132 m 422 1150 l 618 1150 l 429 856 l 288 856 l 422 1150 z "},"ž":{"ha":742,"x_min":47,"x_max":690,"o":"m 47 0 m 690 132 l 690 0 l 47 0 l 47 99 l 467 633 l 65 633 l 65 765 l 676 765 l 676 664 l 260 132 l 690 132 m 619 1147 l 465 856 l 285 856 l 131 1147 l 272 1147 l 375 972 l 478 1147 l 619 1147 z "},"ż":{"ha":742,"x_min":47,"x_max":690,"o":"m 47 0 m 690 132 l 690 0 l 47 0 l 47 99 l 467 633 l 65 633 l 65 765 l 676 765 l 676 664 l 260 132 l 690 132 m 375 932 q 304 962 335 932 q 274 1032 274 992 q 304 1103 274 1074 q 375 1133 335 1133 q 446 1103 415 1133 q 476 1032 476 1074 q 446 962 476 992 q 375 932 415 932 z "},"ﬁ":{"ha":1021,"x_min":50,"x_max":913,"o":"m 50 0 m 351 765 l 574 765 l 574 633 l 351 633 l 351 0 l 168 0 l 168 633 l 50 633 l 50 711 l 168 751 l 168 814 q 240 1040 168 961 q 456 1118 311 1118 q 576 1107 506 1118 l 561 975 q 482 982 515 982 q 383 939 414 982 q 351 811 351 896 l 351 765 m 803 933 q 726 965 758 933 q 694 1042 694 997 q 726 1118 694 1086 q 803 1150 758 1150 q 881 1118 849 1150 q 913 1042 913 1086 q 881 965 913 997 q 803 933 849 933 m 713 765 l 896 765 l 896 0 l 713 0 l 713 765 z "},"ﬂ":{"ha":1013,"x_min":50,"x_max":892,"o":"m 50 0 m 351 765 l 574 765 l 574 633 l 351 633 l 351 0 l 168 0 l 168 633 l 50 633 l 50 711 l 168 751 l 168 814 q 240 1040 168 961 q 456 1118 311 1118 q 576 1107 506 1118 l 561 975 q 482 982 515 982 q 383 939 414 982 q 351 811 351 896 l 351 765 m 708 1111 l 892 1111 l 892 0 l 708 0 l 708 1111 z "},"ª":{"ha":563,"x_min":35,"x_max":549,"o":"m 36 588 q 69 683 36 646 q 163 745 103 721 q 329 796 224 769 l 329 810 q 315 865 329 844 q 258 886 300 886 q 171 870 214 886 q 76 817 128 854 l 35 910 q 301 997 165 997 q 447 949 403 997 q 492 790 492 900 l 492 621 q 496 600 492 607 q 513 593 500 593 q 540 600 526 593 l 549 481 q 456 467 506 467 q 339 524 363 467 q 259 480 297 494 q 174 465 221 465 q 74 501 113 465 q 36 588 36 536 m 200 610 q 212 583 200 593 q 242 574 224 574 q 329 614 275 574 l 329 710 q 228 663 257 685 q 200 610 200 642 m 38 360 l 533 360 l 533 235 l 38 235 l 38 360 z "},"º":{"ha":597,"x_min":33,"x_max":565,"o":"m 33 729 q 63 862 33 800 q 153 961 93 924 q 299 999 213 999 q 445 961 385 999 q 535 863 506 924 q 565 732 565 801 q 535 598 565 660 q 445 499 506 536 q 299 461 385 461 q 153 499 213 461 q 63 597 93 536 q 33 729 33 658 m 400 731 q 297 883 400 883 q 197 731 197 883 q 297 576 197 576 q 400 731 400 576 m 546 360 l 546 235 l 53 235 l 53 360 l 546 360 z "},"Ω":{"ha":1136,"x_min":67,"x_max":1068,"o":"m 1064 522 q 1010 314 1064 411 q 858 139 956 217 l 858 135 l 1068 135 l 1068 0 l 632 0 l 632 119 q 817 314 758 219 q 875 524 875 408 q 837 681 875 613 q 729 788 799 750 q 568 826 660 826 q 406 788 476 826 q 298 681 336 750 q 260 524 260 613 q 318 314 260 408 q 503 119 376 219 l 503 0 l 67 0 l 67 135 l 278 135 l 278 139 q 126 315 181 218 q 71 522 71 411 q 132 748 71 647 q 306 907 193 849 q 568 965 418 965 q 830 907 717 965 q 1003 748 943 849 q 1064 522 1064 647 z "},"μ":{"ha":901,"x_min":117,"x_max":782,"o":"m 782 765 l 782 0 l 644 0 l 622 71 q 361 -21 489 -21 q 269 -8 307 -21 l 300 -329 l 117 -329 l 117 765 l 300 765 l 300 283 q 325 154 300 192 q 417 117 350 117 q 599 189 503 117 l 599 765 l 782 765 z "},"π":{"ha":981,"x_min":40,"x_max":906,"o":"m 768 633 l 768 192 q 781 138 768 154 q 825 122 794 122 q 892 139 854 122 l 906 11 q 761 -14 835 -14 q 631 28 678 -14 q 585 169 585 71 l 585 633 l 400 633 l 339 0 l 156 0 l 217 633 l 40 633 l 40 765 l 906 765 l 906 633 l 768 633 z "},"ॲ":{"ha":1163,"x_min":0,"x_max":1269,"o":"m 0 0 m 1163 782 l 1025 782 l 1025 0 l 857 0 l 857 336 q 728 308 793 308 q 676 313 701 308 q 682 258 682 290 q 647 136 682 190 q 548 50 613 82 q 397 18 483 18 q 0 293 154 18 l 90 393 q 230 221 151 286 q 392 156 308 156 q 481 189 447 156 q 515 276 515 222 q 450 419 515 357 q 297 397 376 401 l 257 536 q 403 560 351 542 q 476 607 456 578 q 496 682 496 636 q 464 768 496 733 q 376 803 432 803 q 181 711 294 803 l 108 838 q 369 940 243 940 q 515 908 447 940 q 623 813 582 876 q 664 660 664 749 q 575 479 664 547 q 728 446 656 446 q 857 478 800 446 l 857 782 l 689 782 l 689 919 l 1163 919 l 1163 782 m 940 1014 q 744 1070 831 1014 q 611 1215 658 1126 l 719 1292 q 940 1150 804 1150 q 1161 1292 1076 1150 l 1269 1215 q 1134 1069 1219 1125 q 940 1014 1049 1014 z "},"ऄ":{"ha":1163,"x_min":0,"x_max":1163,"o":"m 1163 782 l 1025 782 l 1025 0 l 857 0 l 857 336 q 728 308 793 308 q 676 313 701 308 q 682 258 682 290 q 647 136 682 190 q 548 50 613 82 q 397 18 483 18 q 0 293 154 18 l 90 393 q 230 221 151 286 q 392 156 308 156 q 481 189 447 156 q 515 276 515 222 q 450 419 515 357 q 297 397 376 401 l 257 536 q 403 560 351 542 q 476 607 456 578 q 496 682 496 636 q 464 768 496 733 q 376 803 432 803 q 181 711 294 803 l 108 838 q 369 940 243 940 q 515 908 447 940 q 623 813 582 876 q 664 660 664 749 q 575 479 664 547 q 728 446 656 446 q 857 478 800 446 l 857 782 l 689 782 l 689 919 l 868 919 q 869 944 869 928 q 842 1028 869 994 q 747 1061 814 1061 q 594 1053 697 1061 q 450 1044 494 1044 q 292 1088 349 1044 q 236 1213 236 1132 q 250 1292 236 1250 q 286 1365 264 1333 l 436 1329 q 403 1242 403 1285 q 419 1198 403 1213 q 469 1183 435 1183 q 610 1192 515 1183 q 747 1200 704 1200 q 962 1129 888 1200 q 1036 943 1036 1058 q 1035 919 1036 928 l 1163 919 l 1163 782 z "},"अ":{"ha":1163,"x_min":0,"x_max":1163,"o":"m 1163 782 l 1025 782 l 1025 0 l 857 0 l 857 336 q 728 308 793 308 q 676 313 701 308 q 682 258 682 290 q 647 136 682 190 q 548 50 613 82 q 397 18 483 18 q 0 293 154 18 l 90 393 q 230 221 151 286 q 392 156 308 156 q 481 189 447 156 q 515 276 515 222 q 450 419 515 357 q 297 397 376 401 l 257 536 q 403 560 351 542 q 476 607 456 578 q 496 682 496 636 q 464 768 496 733 q 376 803 432 803 q 181 711 294 803 l 108 838 q 369 940 243 940 q 515 908 447 940 q 623 813 582 876 q 664 660 664 749 q 575 479 664 547 q 728 446 656 446 q 857 478 800 446 l 857 782 l 689 782 l 689 919 l 1163 919 l 1163 782 z "},"आ":{"ha":1606,"x_min":0,"x_max":1606,"o":"m 1606 782 l 1468 782 l 1468 0 l 1300 0 l 1300 782 l 1025 782 l 1025 0 l 857 0 l 857 336 q 728 308 793 308 q 676 313 701 308 q 682 258 682 290 q 647 136 682 190 q 548 50 613 82 q 397 18 483 18 q 0 293 154 18 l 90 393 q 230 221 151 286 q 392 156 308 156 q 481 189 447 156 q 515 276 515 222 q 450 419 515 357 q 297 397 376 401 l 257 536 q 403 560 351 542 q 476 607 456 578 q 496 682 496 636 q 464 768 496 733 q 376 803 432 803 q 181 711 294 803 l 108 838 q 369 940 243 940 q 515 908 447 940 q 623 813 582 876 q 664 660 664 749 q 575 479 664 547 q 728 446 656 446 q 857 478 800 446 l 857 782 l 689 782 l 689 919 l 1606 919 l 1606 782 z "},"इ":{"ha":736,"x_min":-28,"x_max":736,"o":"m 294 558 q 257 542 271 558 q 243 496 243 525 q 267 446 243 464 q 336 428 292 428 q 451 441 388 428 q 564 476 515 454 q 649 380 614 440 q 683 254 683 319 q 607 77 683 149 q 411 -11 531 6 l 543 -206 l 394 -286 l 260 -8 q 126 43 176 7 q 75 126 75 79 q 120 205 75 174 q 242 238 165 236 l 319 124 q 339 122 326 122 q 465 158 415 122 q 515 247 515 194 q 493 317 515 281 q 339 290 411 290 q 142 350 210 290 q 75 500 75 410 q 127 639 75 583 q 272 694 179 694 l 422 694 l 422 782 l -28 782 l -28 919 l 736 919 l 736 782 l 589 782 l 589 558 l 294 558 z "},"ई":{"ha":736,"x_min":-28,"x_max":736,"o":"m 294 558 q 257 542 271 558 q 243 496 243 525 q 267 446 243 464 q 336 428 292 428 q 451 441 388 428 q 564 476 515 454 q 649 380 614 440 q 683 254 683 319 q 607 77 683 149 q 411 -11 531 6 l 543 -206 l 394 -286 l 260 -8 q 126 43 176 7 q 75 126 75 79 q 120 205 75 174 q 242 238 165 236 l 319 124 q 339 122 326 122 q 465 158 415 122 q 515 247 515 194 q 493 317 515 281 q 339 290 411 290 q 142 350 210 290 q 75 500 75 410 q 127 639 75 583 q 272 694 179 694 l 422 694 l 422 782 l -28 782 l -28 919 l 382 919 q 299 1028 328 972 q 271 1153 271 1085 q 339 1313 271 1250 q 529 1375 407 1375 q 713 1315 624 1375 l 668 1199 q 613 1227 639 1217 q 551 1238 586 1238 q 469 1206 499 1238 q 439 1121 439 1175 q 472 1017 439 1065 q 560 919 504 968 l 736 919 l 736 782 l 589 782 l 589 558 l 294 558 z "},"उ":{"ha":817,"x_min":-28,"x_max":817,"o":"m 817 782 l 672 782 q 710 646 710 718 q 608 475 710 540 q 721 242 721 368 q 685 113 721 169 q 581 23 649 56 q 426 -10 514 -10 q 25 294 185 -10 l 115 394 q 256 201 178 274 q 421 128 335 128 q 517 165 481 128 q 554 260 554 203 q 535 346 554 307 q 476 421 515 385 q 292 397 397 399 l 251 536 q 478 577 415 544 q 542 668 542 610 q 522 731 542 701 q 467 782 503 761 l -28 782 l -28 919 l 817 919 l 817 782 z "},"ऊ":{"ha":1175,"x_min":-28,"x_max":1175,"o":"m 672 782 q 710 646 710 718 q 608 475 710 540 q 657 422 642 442 q 777 514 721 481 q 897 547 833 547 q 1022 517 969 547 q 1103 435 1075 486 q 1131 322 1131 383 q 1092 160 1131 238 q 992 19 1054 82 l 840 113 q 929 224 896 168 q 963 326 963 279 q 943 388 963 365 q 890 410 924 410 q 715 294 818 410 q 721 242 721 272 q 685 113 721 169 q 581 23 649 56 q 426 -10 514 -10 q 25 294 185 -10 l 115 394 q 256 201 178 274 q 421 128 335 128 q 517 165 481 128 q 554 260 554 203 q 535 346 554 307 q 476 421 515 385 q 292 397 397 399 l 251 536 q 478 577 415 544 q 542 668 542 610 q 522 731 542 701 q 467 782 503 761 l -28 782 l -28 919 l 1175 919 l 1175 782 l 672 782 z "},"ऋ":{"ha":1219,"x_min":-28,"x_max":1250,"o":"m 1250 -50 q 1165 -92 1214 -75 q 1061 -108 1117 -108 q 938 -82 992 -108 q 854 -9 883 -56 q 825 93 825 38 q 947 288 825 206 l 906 381 q 738 344 821 344 q 707 347 717 344 l 707 0 l 539 0 l 539 271 l 210 15 l 106 149 l 521 433 q 408 501 457 482 q 310 521 358 521 q 115 461 243 521 l 39 604 q 310 658 169 658 q 419 640 367 658 q 539 578 472 622 l 539 782 l -28 782 l -28 919 l 1219 919 l 1219 782 l 707 782 l 707 486 q 740 483 729 483 q 850 504 788 483 l 800 617 q 860 674 824 653 q 933 694 896 694 q 1027 657 993 694 q 1061 568 1061 619 q 1014 453 1061 504 l 1124 226 q 1008 167 1046 200 q 971 97 971 133 q 994 47 971 65 q 1061 29 1018 29 q 1131 40 1094 29 q 1189 69 1167 51 l 1250 -50 z "},"ॠ":{"ha":1219,"x_min":-28,"x_max":1383,"o":"m 1383 -306 q 1172 -383 1293 -383 q 1004 -328 1069 -383 q 939 -185 939 -272 q 961 -92 939 -139 q 861 -19 897 -69 q 825 93 825 31 q 947 288 825 206 l 906 381 q 738 344 821 344 q 707 347 717 344 l 707 0 l 539 0 l 539 271 l 210 15 l 106 149 l 521 433 q 408 501 457 482 q 310 521 358 521 q 115 461 243 521 l 39 604 q 310 658 169 658 q 419 640 367 658 q 539 578 472 622 l 539 782 l -28 782 l -28 919 l 1219 919 l 1219 782 l 707 782 l 707 486 q 740 483 729 483 q 850 504 788 483 l 800 617 q 860 674 824 653 q 933 694 896 694 q 1027 657 993 694 q 1061 568 1061 619 q 1014 453 1061 504 l 1124 226 q 1008 167 1046 200 q 971 97 971 133 q 994 47 971 65 q 1061 29 1018 29 q 1131 40 1094 29 q 1189 69 1167 51 l 1250 -50 q 1121 -103 1193 -89 q 1085 -182 1085 -139 q 1108 -229 1085 -212 q 1172 -246 1131 -246 q 1251 -231 1211 -246 q 1319 -187 1290 -215 l 1383 -306 z "},"ऌ":{"ha":1081,"x_min":-28,"x_max":1103,"o":"m 1103 -96 q 999 -165 1054 -140 q 868 -190 944 -190 q 702 -137 769 -190 q 635 7 635 -85 q 665 112 635 64 q 753 221 696 160 q 828 313 803 275 q 853 390 853 350 q 828 458 853 435 q 761 482 804 482 q 651 417 696 482 q 589 242 606 353 l 421 272 q 468 433 432 360 q 335 506 407 506 q 260 473 292 506 q 228 381 228 440 q 281 208 228 288 q 440 33 333 128 l 344 -65 q 136 160 213 43 q 60 397 60 278 q 131 581 60 515 q 317 646 203 646 q 442 613 386 646 q 536 529 499 579 q 672 610 596 589 l 672 782 l -28 782 l -28 919 l 1081 919 l 1081 782 l 840 782 l 840 611 q 972 526 924 589 q 1019 388 1019 464 q 986 278 1019 329 q 892 161 953 226 q 821 75 843 107 q 799 11 799 43 q 820 -37 799 -19 q 878 -54 842 -54 q 963 -34 919 -54 q 1044 24 1007 -14 l 1103 -96 z "},"ॡ":{"ha":1081,"x_min":-28,"x_max":1249,"o":"m 1249 -364 q 1038 -442 1158 -442 q 869 -386 935 -442 q 804 -243 804 -331 q 813 -186 804 -214 q 685 -122 735 -172 q 635 7 635 -71 q 665 112 635 64 q 753 221 696 160 q 828 313 803 275 q 853 390 853 350 q 828 458 853 435 q 761 482 804 482 q 651 417 696 482 q 589 242 606 353 l 421 272 q 468 433 432 360 q 335 506 407 506 q 260 473 292 506 q 228 381 228 440 q 281 208 228 288 q 440 33 333 128 l 344 -65 q 136 160 213 43 q 60 397 60 278 q 131 581 60 515 q 317 646 203 646 q 442 613 386 646 q 536 529 499 579 q 672 610 596 589 l 672 782 l -28 782 l -28 919 l 1081 919 l 1081 782 l 840 782 l 840 611 q 972 526 924 589 q 1019 388 1019 464 q 986 278 1019 329 q 892 161 953 226 q 821 75 843 107 q 799 11 799 43 q 820 -37 799 -19 q 878 -54 842 -54 q 963 -34 919 -54 q 1044 24 1007 -14 l 1103 -96 q 981 -172 1044 -149 q 950 -240 950 -201 q 973 -287 950 -271 q 1038 -304 996 -304 q 1118 -289 1076 -304 q 1188 -244 1160 -274 l 1249 -364 z "},"ऍ":{"ha":921,"x_min":-29,"x_max":944,"o":"m 0 0 m 808 4 q 944 -167 944 -89 q 925 -251 944 -211 q 863 -337 906 -292 l 718 -265 q 751 -219 740 -239 q 763 -176 763 -199 q 742 -128 763 -153 q 672 -72 721 -104 l 315 169 q 189 287 226 231 q 151 426 151 343 l 151 782 l -29 782 l -29 919 l 919 919 l 919 782 l 782 782 l 782 471 q 731 341 782 390 q 617 265 679 292 l 492 371 q 582 424 551 394 q 613 503 613 454 l 613 782 l 321 782 l 321 431 q 341 339 321 371 q 413 274 361 307 l 808 4 m 461 1014 q 265 1070 351 1014 q 132 1215 179 1126 l 240 1292 q 461 1150 325 1150 q 682 1292 597 1150 l 790 1215 q 655 1069 740 1125 q 461 1014 569 1014 z "},"ऎ":{"ha":921,"x_min":-29,"x_max":944,"o":"m 808 4 q 944 -167 944 -89 q 925 -251 944 -211 q 863 -337 906 -292 l 718 -265 q 751 -219 740 -239 q 763 -176 763 -199 q 742 -128 763 -153 q 672 -72 721 -104 l 315 169 q 189 287 226 231 q 151 426 151 343 l 151 782 l -29 782 l -29 919 l 621 919 q 622 944 622 928 q 594 1028 622 994 q 500 1061 567 1061 q 347 1053 450 1061 q 203 1044 247 1044 q 45 1088 101 1044 q -11 1213 -11 1132 q 3 1292 -11 1250 q 39 1365 17 1333 l 189 1329 q 156 1242 156 1285 q 172 1198 156 1213 q 222 1183 188 1183 q 363 1192 268 1183 q 500 1200 457 1200 q 715 1129 640 1200 q 789 943 789 1058 q 788 919 789 928 l 919 919 l 919 782 l 782 782 l 782 471 q 731 341 782 390 q 617 265 679 292 l 492 371 q 582 424 551 394 q 613 503 613 454 l 613 782 l 321 782 l 321 431 q 341 339 321 371 q 413 274 361 307 l 808 4 z "},"ए":{"ha":921,"x_min":-29,"x_max":944,"o":"m 808 4 q 944 -167 944 -89 q 925 -251 944 -211 q 863 -337 906 -292 l 718 -265 q 751 -219 740 -239 q 763 -176 763 -199 q 742 -128 763 -153 q 672 -72 721 -104 l 315 169 q 189 287 226 231 q 151 426 151 343 l 151 782 l -29 782 l -29 919 l 919 919 l 919 782 l 782 782 l 782 471 q 731 341 782 390 q 617 265 679 292 l 492 371 q 582 424 551 394 q 613 503 613 454 l 613 782 l 321 782 l 321 431 q 341 339 321 371 q 413 274 361 307 l 808 4 z "},"ऐ":{"ha":921,"x_min":-29,"x_max":944,"o":"m 808 4 q 944 -167 944 -89 q 925 -251 944 -211 q 863 -337 906 -292 l 718 -265 q 751 -219 740 -239 q 763 -176 763 -199 q 742 -128 763 -153 q 672 -72 721 -104 l 315 169 q 189 287 226 231 q 151 426 151 343 l 151 782 l -29 782 l -29 919 l 597 919 l 558 1007 q 460 1172 508 1119 q 342 1224 411 1224 q 225 1204 283 1224 l 196 1335 q 340 1364 260 1364 q 542 1285 461 1364 q 706 1029 624 1207 l 757 919 l 919 919 l 919 782 l 782 782 l 782 471 q 731 341 782 390 q 617 265 679 292 l 492 371 q 582 424 551 394 q 613 503 613 454 l 613 782 l 321 782 l 321 431 q 341 339 321 371 q 413 274 361 307 l 808 4 z "},"ऑ":{"ha":1606,"x_min":0,"x_max":1606,"o":"m 0 0 m 1606 782 l 1468 782 l 1468 0 l 1300 0 l 1300 782 l 1025 782 l 1025 0 l 857 0 l 857 336 q 728 308 793 308 q 676 313 701 308 q 682 258 682 290 q 647 136 682 190 q 548 50 613 82 q 397 18 483 18 q 0 293 154 18 l 90 393 q 230 221 151 286 q 392 156 308 156 q 481 189 447 156 q 515 276 515 222 q 450 419 515 357 q 297 397 376 401 l 257 536 q 403 560 351 542 q 476 607 456 578 q 496 682 496 636 q 464 768 496 733 q 376 803 432 803 q 181 711 294 803 l 108 838 q 369 940 243 940 q 515 908 447 940 q 623 813 582 876 q 664 660 664 749 q 575 479 664 547 q 728 446 656 446 q 857 478 800 446 l 857 782 l 689 782 l 689 919 l 1606 919 l 1606 782 m 1243 1014 q 1047 1070 1133 1014 q 914 1215 961 1126 l 1022 1292 q 1243 1150 1107 1150 q 1464 1292 1379 1150 l 1572 1215 q 1437 1069 1522 1125 q 1243 1014 1351 1014 z "},"ऒ":{"ha":1606,"x_min":0,"x_max":1606,"o":"m 1606 782 l 1468 782 l 1468 0 l 1300 0 l 1300 782 l 1025 782 l 1025 0 l 857 0 l 857 336 q 728 308 793 308 q 676 313 701 308 q 682 258 682 290 q 647 136 682 190 q 548 50 613 82 q 397 18 483 18 q 0 293 154 18 l 90 393 q 230 221 151 286 q 392 156 308 156 q 481 189 447 156 q 515 276 515 222 q 450 419 515 357 q 297 397 376 401 l 257 536 q 403 560 351 542 q 476 607 456 578 q 496 682 496 636 q 464 768 496 733 q 376 803 432 803 q 181 711 294 803 l 108 838 q 369 940 243 940 q 515 908 447 940 q 623 813 582 876 q 664 660 664 749 q 575 479 664 547 q 728 446 656 446 q 857 478 800 446 l 857 782 l 689 782 l 689 919 l 1311 919 q 1313 944 1313 928 q 1285 1028 1313 994 q 1190 1061 1257 1061 q 1038 1053 1140 1061 q 893 1044 938 1044 q 735 1088 792 1044 q 679 1213 679 1132 q 693 1292 679 1250 q 729 1365 707 1333 l 879 1329 q 846 1242 846 1285 q 862 1198 846 1213 q 913 1183 878 1183 q 1053 1192 958 1183 q 1190 1200 1147 1200 q 1405 1129 1331 1200 q 1479 943 1479 1058 q 1478 919 1479 928 l 1606 919 l 1606 782 z "},"ओ":{"ha":1606,"x_min":0,"x_max":1606,"o":"m 1606 782 l 1468 782 l 1468 0 l 1300 0 l 1300 782 l 1025 782 l 1025 0 l 857 0 l 857 336 q 728 308 793 308 q 676 313 701 308 q 682 258 682 290 q 647 136 682 190 q 548 50 613 82 q 397 18 483 18 q 0 293 154 18 l 90 393 q 230 221 151 286 q 392 156 308 156 q 481 189 447 156 q 515 276 515 222 q 450 419 515 357 q 297 397 376 401 l 257 536 q 403 560 351 542 q 476 607 456 578 q 496 682 496 636 q 464 768 496 733 q 376 803 432 803 q 181 711 294 803 l 108 838 q 369 940 243 940 q 515 908 447 940 q 623 813 582 876 q 664 660 664 749 q 575 479 664 547 q 728 446 656 446 q 857 478 800 446 l 857 782 l 689 782 l 689 919 l 1286 919 l 1247 1007 q 1149 1172 1197 1119 q 1031 1224 1100 1224 q 914 1204 972 1224 l 885 1335 q 1029 1364 950 1364 q 1174 1328 1111 1364 q 1288 1221 1236 1293 q 1394 1029 1339 1149 l 1446 919 l 1606 919 l 1606 782 z "},"औ":{"ha":1606,"x_min":0,"x_max":1606,"o":"m 1606 782 l 1468 782 l 1468 0 l 1300 0 l 1300 782 l 1025 782 l 1025 0 l 857 0 l 857 336 q 728 308 793 308 q 676 313 701 308 q 682 258 682 290 q 647 136 682 190 q 548 50 613 82 q 397 18 483 18 q 0 293 154 18 l 90 393 q 230 221 151 286 q 392 156 308 156 q 481 189 447 156 q 515 276 515 222 q 450 419 515 357 q 297 397 376 401 l 257 536 q 403 560 351 542 q 476 607 456 578 q 496 682 496 636 q 464 768 496 733 q 376 803 432 803 q 181 711 294 803 l 108 838 q 369 940 243 940 q 515 908 447 940 q 623 813 582 876 q 664 660 664 749 q 575 479 664 547 q 728 446 656 446 q 857 478 800 446 l 857 782 l 689 782 l 689 919 l 1232 919 l 1196 976 q 1033 1081 1132 1081 q 908 1056 967 1081 l 879 1185 q 1032 1222 950 1222 q 1153 1190 1096 1222 q 1258 1103 1211 1158 q 1181 1253 1211 1203 q 1116 1328 1150 1304 q 1033 1353 1082 1353 q 935 1335 981 1353 l 906 1465 q 1050 1493 968 1493 q 1197 1449 1135 1493 q 1314 1306 1258 1404 q 1436 1029 1369 1207 l 1478 919 l 1606 919 l 1606 782 z "},"ॳ":{"ha":1163,"x_min":0,"x_max":1163,"o":"m 1163 782 l 1025 782 l 1025 0 l 857 0 l 857 336 q 728 308 793 308 q 676 313 701 308 q 682 258 682 290 q 647 136 682 190 q 548 50 613 82 q 397 18 483 18 q 0 293 154 18 l 90 393 q 230 221 151 286 q 392 156 308 156 q 481 189 447 156 q 515 276 515 222 q 450 419 515 357 q 297 397 376 401 l 257 536 q 403 560 351 542 q 476 607 456 578 q 496 682 496 636 q 464 768 496 733 q 376 803 432 803 q 181 711 294 803 l 108 838 q 369 940 243 940 q 515 908 447 940 q 623 813 582 876 q 664 660 664 749 q 575 479 664 547 q 728 446 656 446 q 857 478 800 446 l 857 782 l 689 782 l 689 919 l 858 919 l 858 1286 l 1028 1286 l 1028 919 l 1163 919 l 1163 782 z "},"ॴ":{"ha":1606,"x_min":0,"x_max":1606,"o":"m 1606 782 l 1468 782 l 1468 0 l 1300 0 l 1300 782 l 1025 782 l 1025 0 l 857 0 l 857 336 q 728 308 793 308 q 676 313 701 308 q 682 258 682 290 q 647 136 682 190 q 548 50 613 82 q 397 18 483 18 q 0 293 154 18 l 90 393 q 230 221 151 286 q 392 156 308 156 q 481 189 447 156 q 515 276 515 222 q 450 419 515 357 q 297 397 376 401 l 257 536 q 403 560 351 542 q 476 607 456 578 q 496 682 496 636 q 464 768 496 733 q 376 803 432 803 q 181 711 294 803 l 108 838 q 369 940 243 940 q 515 908 447 940 q 623 813 582 876 q 664 660 664 749 q 575 479 664 547 q 728 446 656 446 q 857 478 800 446 l 857 782 l 689 782 l 689 919 l 1299 919 l 1299 1286 l 1468 1286 l 1468 919 l 1606 919 l 1606 782 z "},"ॶ":{"ha":1163,"x_min":0,"x_max":1290,"o":"m 0 0 m 1163 782 l 1025 782 l 1025 0 l 857 0 l 857 336 q 728 308 793 308 q 676 313 701 308 q 682 258 682 290 q 647 136 682 190 q 548 50 613 82 q 397 18 483 18 q 0 293 154 18 l 90 393 q 230 221 151 286 q 392 156 308 156 q 481 189 447 156 q 515 276 515 222 q 450 419 515 357 q 297 397 376 401 l 257 536 q 403 560 351 542 q 476 607 456 578 q 496 682 496 636 q 464 768 496 733 q 376 803 432 803 q 181 711 294 803 l 108 838 q 369 940 243 940 q 515 908 447 940 q 623 813 582 876 q 664 660 664 749 q 575 479 664 547 q 728 446 656 446 q 857 478 800 446 l 857 782 l 689 782 l 689 919 l 1163 919 l 1163 782 m 940 -326 q 733 -267 825 -326 q 592 -111 640 -208 l 710 -39 q 805 -147 747 -106 q 940 -189 863 -189 q 1077 -147 1019 -189 q 1172 -39 1135 -106 l 1290 -111 q 1148 -267 1240 -208 q 940 -326 1056 -326 z "},"ॷ":{"ha":1163,"x_min":0,"x_max":1290,"o":"m 0 0 m 1163 782 l 1025 782 l 1025 0 l 857 0 l 857 336 q 728 308 793 308 q 676 313 701 308 q 682 258 682 290 q 647 136 682 190 q 548 50 613 82 q 397 18 483 18 q 0 293 154 18 l 90 393 q 230 221 151 286 q 392 156 308 156 q 481 189 447 156 q 515 276 515 222 q 450 419 515 357 q 297 397 376 401 l 257 536 q 403 560 351 542 q 476 607 456 578 q 496 682 496 636 q 464 768 496 733 q 376 803 432 803 q 181 711 294 803 l 108 838 q 369 940 243 940 q 515 908 447 940 q 623 813 582 876 q 664 660 664 749 q 575 479 664 547 q 728 446 656 446 q 857 478 800 446 l 857 782 l 689 782 l 689 919 l 1163 919 l 1163 782 m 940 -326 q 733 -267 825 -326 q 592 -111 640 -208 l 710 -39 q 805 -147 747 -106 q 940 -189 863 -189 q 1077 -147 1019 -189 q 1172 -39 1135 -106 l 1290 -111 q 1148 -267 1240 -208 q 940 -326 1056 -326 m 940 -624 q 733 -565 825 -624 q 592 -408 640 -506 l 710 -336 q 806 -444 749 -401 q 940 -486 863 -486 q 1076 -444 1019 -486 q 1172 -336 1133 -401 l 1290 -408 q 1148 -565 1240 -506 q 940 -624 1056 -624 z "},"ा":{"ha":443,"x_min":-28,"x_max":443,"o":"m 443 782 l 306 782 l 306 0 l 138 0 l 138 782 l -28 782 l -28 919 l 443 919 l 443 782 z "},"ि":{"ha":443,"x_min":-28,"x_max":1047,"o":"m 374 1251 q 257 1213 303 1251 q 211 1106 211 1174 q 272 919 211 1008 l 443 919 l 443 782 l 306 782 l 306 0 l 138 0 l 138 782 l -28 782 l -28 919 l 122 919 q 43 1135 43 1036 q 81 1267 43 1208 q 189 1358 119 1325 q 349 1392 258 1392 q 610 1338 482 1392 q 839 1212 739 1283 q 1047 1047 939 1140 l 971 957 q 659 1169 810 1088 q 374 1251 508 1251 z "},"ी":{"ha":443,"x_min":-400,"x_max":443,"o":"m 443 782 l 306 782 l 306 0 l 138 0 l 138 782 l -28 782 l -28 919 l 125 919 q 3 1159 63 1075 q -132 1243 -57 1243 q -211 1215 -182 1243 q -240 1143 -240 1186 q -179 1007 -240 1075 l -275 957 q -363 1056 -326 999 q -400 1181 -400 1113 q -370 1282 -400 1236 q -287 1354 -340 1328 q -167 1381 -233 1381 q 22 1319 -58 1381 q 160 1158 103 1257 q 272 919 218 1058 l 443 919 l 443 782 z "},"ॉ":{"ha":443,"x_min":-107,"x_max":551,"o":"m 0 0 m 443 782 l 306 782 l 306 0 l 138 0 l 138 782 l -28 782 l -28 919 l 443 919 l 443 782 m 222 1014 q 26 1070 113 1014 q -107 1215 -60 1126 l 1 1292 q 222 1150 86 1150 q 443 1292 358 1150 l 551 1215 q 416 1069 501 1125 q 222 1014 331 1014 z "},"ॊ":{"ha":443,"x_min":-483,"x_max":443,"o":"m 443 782 l 306 782 l 306 0 l 138 0 l 138 782 l -28 782 l -28 919 l 149 919 q 150 944 150 928 q 122 1028 150 994 q 28 1061 94 1061 q -125 1053 -22 1061 q -269 1044 -225 1044 q -427 1088 -371 1044 q -483 1213 -483 1132 q -469 1292 -483 1250 q -433 1365 -456 1333 l -283 1329 q -317 1242 -317 1285 q -301 1198 -317 1213 q -250 1183 -285 1183 q -110 1192 -204 1183 q 28 1200 -15 1200 q 242 1129 168 1200 q 317 943 317 1058 q 315 919 317 928 l 443 919 l 443 782 z "},"ो":{"ha":443,"x_min":-278,"x_max":443,"o":"m 443 782 l 306 782 l 306 0 l 138 0 l 138 782 l -28 782 l -28 919 l 124 919 l 85 1007 q -14 1172 35 1119 q -132 1224 -62 1224 q -249 1204 -190 1224 l -278 1335 q -133 1364 -212 1364 q 11 1328 -51 1364 q 125 1221 74 1293 q 232 1029 176 1149 l 283 919 l 443 919 l 443 782 z "},"ौ":{"ha":443,"x_min":-283,"x_max":443,"o":"m 443 782 l 306 782 l 306 0 l 138 0 l 138 782 l -28 782 l -28 919 l 69 919 l 33 976 q -129 1081 -31 1081 q -254 1056 -196 1081 l -283 1185 q -131 1222 -212 1222 q -9 1190 -67 1222 q 96 1103 49 1158 q 18 1253 49 1203 q -47 1328 -12 1304 q -129 1353 -81 1353 q -228 1335 -182 1353 l -257 1465 q -112 1493 -194 1493 q 34 1449 -28 1493 q 151 1306 96 1404 q 274 1029 207 1207 l 315 919 l 443 919 l 443 782 z "},"ऻ":{"ha":443,"x_min":-28,"x_max":443,"o":"m 443 782 l 306 782 l 306 0 l 138 0 l 138 782 l -28 782 l -28 919 l 140 919 l 140 1286 l 310 1286 l 310 919 l 443 919 l 443 782 z "},"क":{"ha":1200,"x_min":-28,"x_max":1200,"o":"m 696 782 l 696 539 q 798 603 747 581 q 904 626 849 626 q 1038 593 981 626 q 1124 505 1094 560 q 1154 388 1154 450 q 1011 61 1154 214 l 860 154 q 952 278 918 219 q 986 392 986 336 q 962 463 986 438 q 896 489 938 489 q 797 456 844 489 q 696 363 749 424 l 696 0 l 528 0 l 528 233 q 424 171 475 194 q 314 147 374 147 q 174 181 233 147 q 82 270 114 214 q 50 393 50 326 q 83 523 50 464 q 176 617 117 582 q 308 651 235 651 q 429 628 374 651 q 528 568 485 604 l 528 782 l -28 782 l -28 919 l 1200 919 l 1200 782 l 696 782 m 332 286 q 430 317 379 286 q 528 400 481 349 l 528 406 q 438 483 488 454 q 339 513 389 513 q 252 479 286 513 q 218 394 218 446 q 249 317 218 347 q 332 286 281 286 z "},"ख":{"ha":1228,"x_min":-28,"x_max":1228,"o":"m 1228 782 l 1092 782 l 1092 -15 l 924 -15 l 924 107 q 749 18 846 50 q 560 -14 653 -14 q 300 58 413 -14 q 127 263 188 131 q 72 569 67 396 l 221 589 q 222 496 219 554 q 256 486 236 486 q 301 511 282 486 q 319 588 319 536 q 305 684 319 632 q 265 782 290 736 l -28 782 l -28 919 l 1228 919 l 1228 782 m 924 782 l 435 782 q 474 678 460 732 q 488 574 488 624 q 460 448 488 499 q 390 373 432 397 q 300 349 347 349 q 249 357 269 349 q 369 182 286 240 q 560 124 451 124 q 749 158 654 124 q 924 260 844 193 l 924 321 q 753 251 838 251 q 635 281 686 251 q 558 357 585 310 q 531 456 531 404 q 561 574 531 522 q 643 654 592 625 q 754 683 694 683 q 847 663 804 683 q 924 611 890 643 l 924 782 m 924 467 q 855 535 890 511 q 775 558 819 558 q 710 532 736 558 q 685 465 685 506 q 710 401 685 426 q 774 376 735 376 q 849 401 810 376 q 924 467 889 425 z "},"ग":{"ha":919,"x_min":-28,"x_max":919,"o":"m 919 782 l 781 782 l 781 0 l 614 0 l 614 782 l 376 782 l 376 389 q 342 268 376 310 q 243 226 308 226 q 129 276 176 226 q 82 401 82 326 q 93 472 82 439 l 210 472 l 210 782 l -28 782 l -28 919 l 919 919 l 919 782 z "},"घ":{"ha":1004,"x_min":-28,"x_max":1004,"o":"m 1004 782 l 867 782 l 867 0 l 699 0 l 699 210 q 464 133 585 133 q 265 202 342 133 q 188 386 188 271 q 249 536 188 471 q 123 626 164 579 q 82 729 82 674 q 89 782 82 754 l -28 782 l -28 919 l 1004 919 l 1004 782 m 699 782 l 272 782 q 253 710 253 749 q 275 653 253 679 q 349 601 297 626 q 451 621 400 621 q 538 606 504 621 l 525 474 q 468 482 504 482 q 387 453 418 482 q 356 375 356 424 q 386 297 356 324 q 463 271 417 271 q 699 378 579 271 l 699 782 z "},"ङ":{"ha":1065,"x_min":-29,"x_max":1065,"o":"m 1065 782 l 689 782 l 689 535 l 357 535 q 306 519 324 535 q 288 478 288 504 q 408 413 288 413 q 544 423 471 413 q 672 454 617 433 q 760 360 724 419 q 796 236 796 300 q 709 60 796 126 q 468 -7 622 -7 q 238 42 344 -7 q 46 181 131 92 l 121 288 q 275 173 190 215 q 454 131 360 131 q 585 158 542 131 q 628 228 628 186 q 601 299 628 263 q 411 275 503 275 q 192 333 265 275 q 119 482 119 392 q 176 617 119 563 q 335 671 233 671 l 522 671 l 522 782 l -29 782 l -29 919 l 1065 919 l 1065 782 m 944 579 q 1025 546 992 579 q 1058 465 1058 513 q 1025 384 1058 418 q 944 350 992 350 q 863 384 897 350 q 829 465 829 418 q 863 546 829 513 q 944 579 897 579 z "},"च":{"ha":957,"x_min":-28,"x_max":957,"o":"m 957 782 l 819 782 l 819 0 l 651 0 l 651 228 q 394 124 526 124 q 256 153 315 124 q 164 235 196 183 q 132 350 132 286 q 200 503 132 438 l 33 503 l 33 640 l 511 640 l 511 514 q 358 456 415 501 q 300 350 300 411 q 324 285 300 308 q 393 261 349 261 q 518 297 450 261 q 651 400 586 332 l 651 782 l -28 782 l -28 919 l 957 919 l 957 782 z "},"छ":{"ha":1117,"x_min":-28,"x_max":1117,"o":"m 850 782 l 850 651 q 958 561 918 622 q 997 411 997 500 q 954 250 997 329 q 1049 160 1015 210 q 1083 42 1083 110 q 978 -251 1083 -100 l 821 -164 q 903 -53 874 -106 q 933 51 933 0 q 876 142 933 99 q 676 1 793 54 q 440 -53 558 -53 q 224 13 304 -53 q 143 194 143 79 q 181 315 143 263 q 81 397 115 354 q 47 492 47 440 q 111 631 47 575 q 286 686 175 686 q 410 664 360 686 l 393 529 q 301 547 354 547 q 238 528 261 547 q 215 475 215 510 q 271 393 215 432 q 401 425 332 425 q 488 410 454 425 l 475 279 q 418 288 453 288 q 340 258 368 288 q 311 183 311 228 q 344 109 311 133 q 429 85 378 85 q 599 124 517 85 q 740 225 682 163 q 576 342 635 283 q 517 486 517 400 q 560 614 517 565 q 682 674 604 663 l 682 782 l -28 782 l -28 919 l 1117 919 l 1117 782 l 850 782 m 685 468 q 717 398 685 428 q 811 333 749 368 q 829 421 829 381 q 806 508 829 478 q 747 539 782 539 q 703 521 722 539 q 685 468 685 503 z "},"ज":{"ha":1075,"x_min":-28,"x_max":1075,"o":"m 1075 782 l 938 782 l 938 0 l 769 0 l 769 490 l 568 490 q 678 294 678 399 q 647 187 678 233 q 567 115 617 140 q 458 89 517 89 q 188 213 289 89 q 25 575 86 336 l 157 617 q 280 324 208 422 q 424 225 351 225 q 488 247 465 225 q 510 313 510 269 q 467 417 510 365 q 340 533 424 469 l 381 628 l 769 628 l 769 782 l -28 782 l -28 919 l 1075 919 l 1075 782 z "},"झ":{"ha":1149,"x_min":-28,"x_max":1150,"o":"m 1150 782 l 1011 782 l 1011 0 l 843 0 l 843 271 q 726 249 779 249 q 683 251 711 249 q 606 76 682 146 q 411 -11 531 6 l 543 -206 l 394 -286 l 260 -8 q 126 43 176 7 q 75 126 75 79 q 120 205 75 174 q 242 238 165 236 l 319 124 q 339 122 326 122 q 465 158 415 122 q 515 247 515 194 q 493 317 515 281 q 339 290 411 290 q 142 350 210 290 q 75 500 75 410 q 127 639 75 583 q 272 694 179 694 l 422 694 l 422 782 l -28 782 l -28 919 l 1150 919 l 1150 782 m 843 782 l 589 782 l 589 558 l 294 558 q 257 542 271 558 q 243 496 243 525 q 267 446 243 464 q 336 428 292 428 q 451 441 388 428 q 564 476 515 454 q 638 397 606 446 q 726 386 685 386 q 843 411 790 386 l 843 782 z "},"ञ":{"ha":1101,"x_min":-28,"x_max":1101,"o":"m 1101 782 l 964 782 l 964 0 l 796 0 l 796 338 q 704 324 750 324 q 665 326 693 324 q 566 213 636 256 q 400 171 496 171 q 194 242 288 171 q 4 463 100 314 l 104 531 q 246 363 179 417 q 386 308 313 308 q 478 338 444 308 q 513 410 513 367 q 488 484 513 456 q 417 513 463 513 q 365 502 386 513 q 315 469 344 492 l 225 574 q 319 631 269 611 q 428 651 368 651 q 588 603 517 651 q 675 464 658 554 q 704 463 686 463 q 796 478 754 463 l 796 782 l -28 782 l -28 919 l 1101 919 l 1101 782 z "},"ट":{"ha":826,"x_min":-28,"x_max":826,"o":"m 625 782 l 625 525 l 626 524 q 347 462 438 510 q 256 332 256 414 q 307 220 256 260 q 440 179 358 181 q 724 264 583 179 l 785 142 q 619 67 703 90 q 439 43 535 43 q 258 78 338 43 q 135 178 179 113 q 90 332 90 243 q 458 646 90 588 l 458 782 l -28 782 l -28 919 l 826 919 l 826 782 l 625 782 z "},"ठ":{"ha":892,"x_min":-28,"x_max":893,"o":"m 893 782 l 626 782 q 639 718 639 753 q 621 624 639 668 q 752 495 701 567 q 803 340 803 424 q 755 184 803 254 q 624 74 707 114 q 440 35 540 35 q 261 71 340 35 q 136 174 182 107 q 90 329 90 240 q 185 542 90 460 q 461 654 281 624 q 472 717 472 685 q 458 782 472 750 l -28 782 l -28 919 l 893 919 l 893 782 m 442 171 q 538 193 493 171 q 610 253 583 215 q 638 340 638 292 q 606 444 638 399 q 532 518 575 490 q 328 454 400 501 q 256 329 256 407 q 310 212 256 253 q 442 171 365 171 z "},"ड":{"ha":836,"x_min":-29,"x_max":836,"o":"m 357 535 q 306 519 324 535 q 288 478 288 504 q 408 413 288 413 q 544 423 471 413 q 672 454 617 433 q 760 360 724 419 q 796 236 796 300 q 709 60 796 126 q 468 -7 622 -7 q 238 42 344 -7 q 46 181 131 92 l 121 288 q 275 173 190 215 q 454 131 360 131 q 585 158 542 131 q 628 228 628 186 q 601 299 628 263 q 411 275 503 275 q 192 333 265 275 q 119 482 119 392 q 176 617 119 563 q 335 671 233 671 l 522 671 l 522 782 l -29 782 l -29 919 l 836 919 l 836 782 l 689 782 l 689 535 l 357 535 z "},"ढ":{"ha":829,"x_min":-28,"x_max":829,"o":"m 415 531 q 281 488 325 531 q 238 374 238 444 q 274 229 238 292 q 367 132 311 167 q 339 231 339 176 q 366 325 339 283 q 439 390 393 367 q 539 413 485 413 q 649 386 599 413 q 728 312 699 360 q 757 204 757 264 q 718 76 757 129 q 619 -5 679 22 q 492 -32 558 -32 q 288 21 386 -32 q 130 169 190 74 q 69 382 69 264 q 150 588 69 510 q 389 667 231 667 l 481 667 l 481 782 l -28 782 l -28 919 l 829 919 l 829 782 l 647 782 l 647 531 l 415 531 m 549 283 q 500 262 519 283 q 481 203 481 240 q 510 106 481 147 q 588 141 561 114 q 615 207 615 168 q 596 263 615 242 q 549 283 576 283 z "},"ण":{"ha":1089,"x_min":-28,"x_max":1089,"o":"m 1089 782 l 950 782 l 950 0 l 782 0 l 782 782 l 626 782 l 626 464 q 556 285 626 349 q 365 222 485 222 q 176 285 246 222 q 106 464 106 349 l 106 782 l -28 782 l -28 919 l 1089 919 l 1089 782 m 458 782 l 274 782 l 274 463 q 298 386 274 413 q 365 360 322 360 q 434 386 410 360 q 458 463 458 413 l 458 782 z "},"त":{"ha":872,"x_min":-28,"x_max":872,"o":"m 872 782 l 735 782 l 735 0 l 567 0 l 567 490 l 361 490 q 274 460 306 490 q 242 379 242 431 q 288 224 242 299 q 429 57 335 150 l 325 -36 q 148 174 222 54 q 74 407 74 293 q 140 567 74 507 q 342 626 206 626 l 567 626 l 567 782 l -28 782 l -28 919 l 872 919 l 872 782 z "},"थ":{"ha":976,"x_min":61,"x_max":976,"o":"m 976 782 l 840 782 l 840 0 l 672 0 l 672 239 q 566 180 626 201 q 442 158 506 158 q 220 237 310 158 q 96 458 131 315 q 250 528 190 488 q 110 619 160 558 q 61 758 61 681 q 122 894 61 843 q 276 944 182 944 q 401 916 344 944 q 491 831 457 888 q 525 696 525 775 q 463 522 525 603 q 288 388 401 440 q 348 319 308 342 q 442 296 388 296 q 563 325 501 296 q 672 406 624 354 l 672 782 l 564 782 l 564 919 l 976 919 l 976 782 m 289 807 q 247 790 264 807 q 229 743 229 774 q 256 676 229 707 q 340 631 282 644 q 357 713 357 671 q 339 781 357 754 q 289 807 321 807 z "},"द":{"ha":843,"x_min":-28,"x_max":843,"o":"m 421 531 q 296 493 336 531 q 256 394 256 456 q 284 294 256 336 q 358 231 313 251 q 451 210 403 210 q 496 213 465 210 l 451 313 q 510 369 475 349 q 585 390 546 390 q 678 353 643 390 q 713 264 713 317 q 667 151 713 200 l 799 -56 l 649 -133 l 551 86 q 449 72 508 72 q 276 111 358 72 q 142 223 193 150 q 90 394 90 296 q 166 593 90 519 q 396 667 242 667 l 475 667 l 475 782 l -28 782 l -28 919 l 843 919 l 843 782 l 642 782 l 642 531 l 421 531 z "},"ध":{"ha":968,"x_min":64,"x_max":968,"o":"m 968 782 l 831 782 l 831 0 l 663 0 l 663 211 q 426 133 549 133 q 227 202 304 133 q 150 386 150 271 q 217 540 150 476 q 64 768 64 644 q 90 863 64 819 q 165 933 117 907 q 275 958 213 958 q 457 883 394 958 l 397 771 q 301 821 357 821 q 251 801 269 821 q 232 751 232 782 q 256 681 232 718 q 331 608 279 643 q 414 621 369 621 q 500 606 467 621 l 488 474 q 431 482 467 482 q 349 453 381 482 q 318 375 318 424 q 349 297 318 324 q 425 271 379 271 q 663 379 542 271 l 663 782 l 531 782 l 531 919 l 968 919 l 968 782 z "},"न":{"ha":865,"x_min":-28,"x_max":865,"o":"m 865 782 l 726 782 l 726 0 l 560 0 l 560 413 l 290 413 l 290 296 q 217 283 253 283 q 101 324 147 283 q 54 422 54 364 q 93 516 54 483 q 207 549 132 549 l 560 549 l 560 782 l -28 782 l -28 919 l 865 919 l 865 782 z "},"ऩ":{"ha":865,"x_min":-28,"x_max":865,"o":"m 0 0 m 865 782 l 726 782 l 726 0 l 560 0 l 560 413 l 290 413 l 290 296 q 217 283 253 283 q 101 324 147 283 q 54 422 54 364 q 93 516 54 483 q 207 549 132 549 l 560 549 l 560 782 l -28 782 l -28 919 l 865 919 l 865 782 m 181 35 q 215 115 181 82 q 296 149 249 149 q 376 115 343 149 q 410 35 410 82 q 376 -47 410 -12 q 296 -81 343 -81 q 215 -47 249 -81 q 181 35 181 -12 z "},"प":{"ha":829,"x_min":-28,"x_max":829,"o":"m 829 782 l 692 782 l 692 0 l 524 0 l 524 274 q 358 226 444 226 q 170 292 235 226 q 106 488 106 358 l 106 782 l -28 782 l -28 919 l 829 919 l 829 782 m 524 782 l 274 782 l 274 481 q 371 365 274 365 q 524 419 454 365 l 524 782 z "},"फ":{"ha":1189,"x_min":-28,"x_max":1189,"o":"m 692 546 q 890 626 794 626 q 1024 592 967 626 q 1110 503 1081 558 q 1140 386 1140 449 q 997 61 1140 211 l 846 154 q 972 390 972 290 q 948 463 972 436 q 882 489 924 489 q 794 462 840 489 q 692 388 747 435 l 692 0 l 524 0 l 524 274 q 358 226 444 226 q 170 292 235 226 q 106 488 106 358 l 106 782 l -28 782 l -28 919 l 1189 919 l 1189 782 l 692 782 l 692 546 m 371 365 q 524 419 454 365 l 524 782 l 274 782 l 274 481 q 371 365 274 365 z "},"ब":{"ha":893,"x_min":-28,"x_max":906,"o":"m 906 782 l 768 782 l 768 0 l 600 0 l 600 225 q 346 121 469 121 q 188 157 254 121 q 88 255 122 193 q 53 390 53 317 q 90 536 53 471 q 194 639 126 601 q 351 676 263 676 q 488 645 424 676 q 600 568 553 614 l 600 782 l -28 782 l -28 919 l 906 919 l 906 782 m 497 311 q 600 400 547 343 l 600 401 q 492 501 551 464 q 369 538 433 538 q 349 536 356 538 l 497 311 m 221 393 q 256 297 221 335 q 353 258 292 258 q 431 275 392 258 l 276 508 q 235 458 250 489 q 221 393 221 428 z "},"भ":{"ha":1078,"x_min":60,"x_max":1078,"o":"m 1078 782 l 940 782 l 940 0 l 772 0 l 772 294 l 515 294 l 515 193 q 419 176 464 176 q 327 196 368 176 q 263 248 286 215 q 240 318 240 281 q 269 394 240 363 q 349 429 299 425 l 349 496 q 131 592 201 521 q 60 756 60 664 q 122 893 60 842 q 286 944 183 944 q 454 884 393 944 q 515 694 515 824 l 515 431 l 772 431 l 772 782 l 593 782 l 593 919 l 1078 919 l 1078 782 m 228 742 q 258 669 228 701 q 349 619 289 636 l 349 715 q 333 783 349 760 q 286 807 317 807 q 244 789 260 807 q 228 742 228 771 z "},"म":{"ha":910,"x_min":-28,"x_max":910,"o":"m 910 782 l 772 782 l 772 0 l 604 0 l 604 322 l 331 322 l 331 221 q 233 204 278 204 q 141 224 182 204 q 77 276 100 243 q 54 346 54 308 q 83 422 54 390 q 163 457 113 453 l 163 782 l -28 782 l -28 919 l 910 919 l 910 782 m 604 782 l 331 782 l 331 458 l 604 458 l 604 782 z "},"य":{"ha":894,"x_min":-28,"x_max":894,"o":"m 894 782 l 757 782 l 757 0 l 589 0 l 589 239 q 485 180 543 201 q 364 158 426 158 q 142 243 233 158 q 21 479 50 328 q 188 550 138 513 q 238 639 238 588 q 149 782 238 719 l -28 782 l -28 919 l 894 919 l 894 782 m 589 782 l 336 782 q 401 636 401 719 q 352 503 401 567 q 207 396 303 439 q 364 296 257 296 q 482 325 422 296 q 589 404 542 354 l 589 782 z "},"र":{"ha":608,"x_min":-28,"x_max":608,"o":"m 608 782 l 436 782 q 481 678 465 733 q 497 569 497 624 q 466 443 497 494 q 388 367 435 392 q 290 343 340 343 q 246 349 271 343 q 321 251 269 303 l 521 49 l 422 -50 l 256 118 q 127 269 169 201 q 70 403 85 338 q 53 564 56 468 l 203 585 l 207 492 q 249 481 226 481 q 304 507 279 481 q 329 585 329 533 q 313 685 329 633 q 267 782 296 736 l -28 782 l -28 919 l 608 919 l 608 782 z "},"ऱ":{"ha":608,"x_min":-28,"x_max":608,"o":"m 0 0 m 608 782 l 436 782 q 481 678 465 733 q 497 569 497 624 q 466 443 497 494 q 388 367 435 392 q 290 343 340 343 q 246 349 271 343 q 321 251 269 303 l 521 49 l 422 -50 l 256 118 q 127 269 169 201 q 70 403 85 338 q 53 564 56 468 l 203 585 l 207 492 q 249 481 226 481 q 304 507 279 481 q 329 585 329 533 q 313 685 329 633 q 267 782 296 736 l -28 782 l -28 919 l 608 919 l 608 782 m 24 -56 q 58 25 24 -8 q 139 58 92 58 q 219 25 186 58 q 253 -56 253 -8 q 219 -137 253 -103 q 139 -171 186 -171 q 58 -137 92 -171 q 24 -56 24 -103 z "},"ल":{"ha":1103,"x_min":-28,"x_max":1103,"o":"m 1103 782 l 965 782 l 965 0 l 797 0 l 797 472 q 751 482 778 482 q 647 417 689 482 q 589 242 606 353 l 421 272 q 467 436 433 367 q 338 506 408 506 q 260 473 292 506 q 228 381 228 440 q 281 210 228 289 q 440 38 333 132 l 344 -61 q 137 163 214 46 q 60 397 60 279 q 132 581 60 515 q 319 646 204 646 q 440 615 386 646 q 532 536 494 583 q 624 600 574 578 q 729 622 675 622 q 797 613 768 622 l 797 782 l -28 782 l -28 919 l 1103 919 l 1103 782 z "},"ळ":{"ha":1082,"x_min":-28,"x_max":1082,"o":"m 872 782 l 872 669 q 997 572 950 642 q 1043 401 1043 501 q 1007 251 1043 315 q 910 152 971 186 q 778 118 849 118 q 647 152 699 118 q 554 243 596 186 q 339 119 467 119 q 200 153 263 119 q 101 252 138 188 q 65 404 65 317 q 100 556 65 492 q 194 655 135 621 q 329 689 254 689 q 463 654 411 689 q 554 563 514 619 q 704 679 619 654 l 704 782 l -28 782 l -28 919 l 1082 919 l 1082 782 l 872 782 m 336 258 q 410 296 379 258 q 469 401 442 333 q 488 443 481 429 q 424 521 458 492 q 336 550 389 550 q 262 510 290 550 q 233 404 233 469 q 262 299 233 339 q 336 258 290 258 m 772 257 q 847 297 818 257 q 875 401 875 336 q 847 508 875 468 q 772 549 818 549 q 697 510 728 549 q 639 404 665 471 q 621 363 628 376 q 684 286 649 315 q 772 257 719 257 z "},"ऴ":{"ha":1082,"x_min":-28,"x_max":1082,"o":"m 0 0 m 872 782 l 872 669 q 997 572 950 642 q 1043 401 1043 501 q 1007 251 1043 315 q 910 152 971 186 q 778 118 849 118 q 647 152 699 118 q 554 243 596 186 q 339 119 467 119 q 200 153 263 119 q 101 252 138 188 q 65 404 65 317 q 100 556 65 492 q 194 655 135 621 q 329 689 254 689 q 463 654 411 689 q 554 563 514 619 q 704 679 619 654 l 704 782 l -28 782 l -28 919 l 1082 919 l 1082 782 l 872 782 m 336 258 q 410 296 379 258 q 469 401 442 333 q 488 443 481 429 q 424 521 458 492 q 336 550 389 550 q 262 510 290 550 q 233 404 233 469 q 262 299 233 339 q 336 258 290 258 m 772 257 q 847 297 818 257 q 875 401 875 336 q 847 508 875 468 q 772 549 818 549 q 697 510 728 549 q 639 404 665 471 q 621 363 628 376 q 684 286 649 315 q 772 257 719 257 m 439 -35 q 473 46 439 13 q 554 79 507 79 q 635 46 601 79 q 668 -35 668 13 q 635 -116 668 -82 q 554 -150 601 -150 q 473 -116 507 -150 q 439 -35 439 -82 z "},"व":{"ha":906,"x_min":-28,"x_max":906,"o":"m 906 782 l 768 782 l 768 0 l 600 0 l 600 225 q 346 121 469 121 q 188 157 254 121 q 88 255 122 193 q 53 390 53 317 q 90 536 53 471 q 194 639 126 601 q 351 676 263 676 q 488 645 424 676 q 600 568 553 614 l 600 782 l -28 782 l -28 919 l 906 919 l 906 782 m 353 258 q 478 298 413 258 q 600 400 544 338 l 600 401 q 492 501 551 464 q 369 538 433 538 q 262 496 303 538 q 221 393 221 454 q 256 297 221 335 q 353 258 292 258 z "},"श":{"ha":1100,"x_min":-28,"x_max":1100,"o":"m 1100 782 l 963 782 l 963 0 l 794 0 l 794 782 l 607 782 q 647 619 647 714 q 605 462 647 539 q 497 325 563 385 q 360 233 431 265 l 518 0 l 369 -81 l 229 210 q 101 251 151 217 q 50 333 50 286 q 94 414 50 383 q 217 444 139 444 l 278 356 q 400 443 346 381 q 219 557 283 488 q 156 711 156 626 q 168 782 156 751 l -28 782 l -28 919 l 1100 919 l 1100 782 m 479 636 q 455 741 479 700 q 389 782 431 782 q 343 762 363 782 q 324 703 324 742 q 363 619 324 657 q 467 556 403 581 q 479 636 479 593 z "},"ष":{"ha":856,"x_min":-28,"x_max":856,"o":"m 856 782 l 718 782 l 718 0 l 550 0 l 550 228 q 372 176 461 176 q 174 244 242 176 q 106 446 106 313 l 106 782 l -28 782 l -28 919 l 856 919 l 856 782 m 550 782 l 278 782 l 550 493 l 550 782 m 274 439 q 303 344 274 374 q 385 314 333 314 q 468 330 429 314 q 549 374 507 346 l 274 665 l 274 439 z "},"स":{"ha":1025,"x_min":-28,"x_max":1026,"o":"m 1026 782 l 889 782 l 889 0 l 721 0 l 721 294 q 592 267 657 267 q 465 287 522 267 q 357 354 407 307 q 290 343 321 343 q 246 349 271 343 q 321 251 269 303 l 521 49 l 422 -50 l 256 118 q 127 269 169 201 q 70 403 85 338 q 53 564 56 468 l 203 585 l 207 492 q 249 481 226 481 q 304 507 279 481 q 329 585 329 533 q 313 685 329 633 q 267 782 296 736 l -28 782 l -28 919 l 1026 919 l 1026 782 m 721 782 l 436 782 q 481 678 465 733 q 497 569 497 624 q 461 435 497 492 q 592 404 525 404 q 721 436 664 404 l 721 782 z "},"ह":{"ha":821,"x_min":-29,"x_max":819,"o":"m 332 536 q 274 522 292 536 q 257 478 257 507 q 292 413 257 440 q 460 447 368 447 q 604 417 540 447 q 703 333 668 386 q 739 215 739 281 q 658 43 739 128 l 521 117 q 558 166 546 142 q 571 219 571 190 q 540 284 571 257 q 460 311 510 311 q 354 276 393 311 q 315 185 315 242 q 391 49 315 113 q 624 -40 467 -15 l 585 -171 q 263 -41 378 -140 q 149 199 149 58 q 189 325 149 265 q 90 501 90 396 q 135 626 90 579 q 278 674 179 674 l 493 674 l 493 782 l -29 782 l -29 919 l 819 919 l 819 782 l 660 782 l 660 536 l 332 536 z "},"क़":{"ha":1200,"x_min":-28,"x_max":1200,"o":"m 0 0 m 696 782 l 696 539 q 798 603 747 581 q 904 626 849 626 q 1038 593 981 626 q 1124 505 1094 560 q 1154 388 1154 450 q 1011 61 1154 214 l 860 154 q 952 278 918 219 q 986 392 986 336 q 962 463 986 438 q 896 489 938 489 q 797 456 844 489 q 696 363 749 424 l 696 0 l 528 0 l 528 233 q 424 171 475 194 q 314 147 374 147 q 174 181 233 147 q 82 270 114 214 q 50 393 50 326 q 83 523 50 464 q 176 617 117 582 q 308 651 235 651 q 429 628 374 651 q 528 568 485 604 l 528 782 l -28 782 l -28 919 l 1200 919 l 1200 782 l 696 782 m 332 286 q 430 317 379 286 q 528 400 481 349 l 528 406 q 438 483 488 454 q 339 513 389 513 q 252 479 286 513 q 218 394 218 446 q 249 317 218 347 q 332 286 281 286 m 140 -44 q 174 36 140 3 q 256 69 208 69 q 336 36 303 69 q 369 -44 369 3 q 336 -126 369 -92 q 256 -160 303 -160 q 174 -126 208 -160 q 140 -44 140 -92 z "},"ख़":{"ha":1228,"x_min":-28,"x_max":1228,"o":"m 0 0 m 1228 782 l 1092 782 l 1092 -15 l 924 -15 l 924 107 q 749 18 846 50 q 560 -14 653 -14 q 300 58 413 -14 q 127 263 188 131 q 72 569 67 396 l 221 589 q 222 496 219 554 q 256 486 236 486 q 301 511 282 486 q 319 588 319 536 q 305 684 319 632 q 265 782 290 736 l -28 782 l -28 919 l 1228 919 l 1228 782 m 924 782 l 435 782 q 474 678 460 732 q 488 574 488 624 q 460 448 488 499 q 390 373 432 397 q 300 349 347 349 q 249 357 269 349 q 369 182 286 240 q 560 124 451 124 q 749 158 654 124 q 924 260 844 193 l 924 321 q 753 251 838 251 q 635 281 686 251 q 558 357 585 310 q 531 456 531 404 q 561 574 531 522 q 643 654 592 625 q 754 683 694 683 q 847 663 804 683 q 924 611 890 643 l 924 782 m 924 467 q 855 535 890 511 q 775 558 819 558 q 710 532 736 558 q 685 465 685 506 q 710 401 685 426 q 774 376 735 376 q 849 401 810 376 q 924 467 889 425 m 94 -108 q 128 -28 94 -61 q 210 6 163 6 q 290 -28 257 6 q 324 -108 324 -61 q 290 -190 324 -156 q 210 -224 257 -224 q 128 -190 163 -224 q 94 -108 94 -156 z "},"ग़":{"ha":919,"x_min":-28,"x_max":919,"o":"m 0 0 m 919 782 l 781 782 l 781 0 l 614 0 l 614 782 l 376 782 l 376 389 q 342 268 376 310 q 243 226 308 226 q 129 276 176 226 q 82 401 82 326 q 93 472 82 439 l 210 472 l 210 782 l -28 782 l -28 919 l 919 919 l 919 782 m 104 13 q 138 93 104 60 q 219 126 172 126 q 300 93 267 126 q 333 13 333 60 q 300 -69 333 -35 q 219 -103 267 -103 q 138 -69 172 -103 q 104 13 104 -35 z "},"ज़":{"ha":1075,"x_min":-28,"x_max":1075,"o":"m 0 0 m 1075 782 l 938 782 l 938 0 l 769 0 l 769 490 l 568 490 q 678 294 678 399 q 647 187 678 233 q 567 115 617 140 q 458 89 517 89 q 188 213 289 89 q 25 575 86 336 l 157 617 q 280 324 208 422 q 424 225 351 225 q 488 247 465 225 q 510 313 510 269 q 467 417 510 365 q 340 533 424 469 l 381 628 l 769 628 l 769 782 l -28 782 l -28 919 l 1075 919 l 1075 782 m 106 -72 q 140 8 106 -25 q 221 42 174 42 q 301 8 268 42 q 335 -72 335 -25 q 301 -153 335 -119 q 221 -187 268 -187 q 140 -153 174 -187 q 106 -72 106 -119 z "},"ड़":{"ha":836,"x_min":-29,"x_max":836,"o":"m 0 0 m 357 535 q 306 519 324 535 q 288 478 288 504 q 408 413 288 413 q 544 423 471 413 q 672 454 617 433 q 760 360 724 419 q 796 236 796 300 q 709 60 796 126 q 468 -7 622 -7 q 238 42 344 -7 q 46 181 131 92 l 121 288 q 275 173 190 215 q 454 131 360 131 q 585 158 542 131 q 628 228 628 186 q 601 299 628 263 q 411 275 503 275 q 192 333 265 275 q 119 482 119 392 q 176 617 119 563 q 335 671 233 671 l 522 671 l 522 782 l -29 782 l -29 919 l 836 919 l 836 782 l 689 782 l 689 535 l 357 535 m 349 -203 q 383 -122 349 -156 q 464 -89 417 -89 q 544 -122 511 -89 q 578 -203 578 -156 q 544 -284 578 -250 q 464 -318 511 -318 q 383 -284 417 -318 q 349 -203 349 -250 z "},"ढ़":{"ha":829,"x_min":-28,"x_max":829,"o":"m 0 0 m 415 531 q 281 488 325 531 q 238 374 238 444 q 274 229 238 292 q 367 132 311 167 q 339 231 339 176 q 366 325 339 283 q 439 390 393 367 q 539 413 485 413 q 649 386 599 413 q 728 312 699 360 q 757 204 757 264 q 718 76 757 129 q 619 -5 679 22 q 492 -32 558 -32 q 288 21 386 -32 q 130 169 190 74 q 69 382 69 264 q 150 588 69 510 q 389 667 231 667 l 481 667 l 481 782 l -28 782 l -28 919 l 829 919 l 829 782 l 647 782 l 647 531 l 415 531 m 549 283 q 500 262 519 283 q 481 203 481 240 q 510 106 481 147 q 588 141 561 114 q 615 207 615 168 q 596 263 615 242 q 549 283 576 283 m 346 -229 q 380 -149 346 -182 q 461 -115 414 -115 q 542 -149 508 -115 q 575 -229 575 -182 q 542 -310 575 -276 q 461 -344 508 -344 q 380 -310 414 -344 q 346 -229 346 -276 z "},"फ़":{"ha":1189,"x_min":-28,"x_max":1189,"o":"m 0 0 m 692 546 q 890 626 794 626 q 1024 592 967 626 q 1110 503 1081 558 q 1140 386 1140 449 q 997 61 1140 211 l 846 154 q 972 390 972 290 q 948 463 972 436 q 882 489 924 489 q 794 462 840 489 q 692 388 747 435 l 692 0 l 524 0 l 524 274 q 358 226 444 226 q 170 292 235 226 q 106 488 106 358 l 106 782 l -28 782 l -28 919 l 1189 919 l 1189 782 l 692 782 l 692 546 m 371 365 q 524 419 454 365 l 524 782 l 274 782 l 274 481 q 371 365 274 365 m 92 40 q 126 121 92 88 q 207 154 160 154 q 288 121 254 154 q 321 40 321 88 q 288 -41 321 -7 q 207 -75 254 -75 q 126 -41 160 -75 q 92 40 92 -7 z "},"य़":{"ha":894,"x_min":-28,"x_max":894,"o":"m 0 0 m 894 782 l 757 782 l 757 0 l 589 0 l 589 239 q 485 180 543 201 q 364 158 426 158 q 142 243 233 158 q 21 479 50 328 q 188 550 138 513 q 238 639 238 588 q 149 782 238 719 l -28 782 l -28 919 l 894 919 l 894 782 m 589 782 l 336 782 q 401 636 401 719 q 352 503 401 567 q 207 396 303 439 q 364 296 257 296 q 482 325 422 296 q 589 404 542 354 l 589 782 m -14 24 q 20 104 -14 71 q 101 138 54 138 q 182 104 149 138 q 215 24 215 71 q 182 -58 215 -24 q 101 -92 149 -92 q 20 -58 54 -92 q -14 24 -14 -24 z "},"ॹ":{"ha":1075,"x_min":-28,"x_max":1075,"o":"m 0 0 m 1075 782 l 938 782 l 938 0 l 769 0 l 769 490 l 568 490 q 678 294 678 399 q 647 187 678 233 q 567 115 617 140 q 458 89 517 89 q 188 213 289 89 q 25 575 86 336 l 157 617 q 280 324 208 422 q 424 225 351 225 q 488 247 465 225 q 510 313 510 269 q 467 417 510 365 q 340 533 424 469 l 381 628 l 769 628 l 769 782 l -28 782 l -28 919 l 1075 919 l 1075 782 m 149 -69 q 183 11 149 -22 q 264 44 217 44 q 344 11 311 44 q 378 -69 378 -22 q 344 -151 378 -117 q 264 -185 311 -185 q 183 -151 217 -185 q 149 -69 149 -117 m 483 -69 q 517 11 483 -22 q 599 44 551 44 q 679 11 646 44 q 713 -69 713 -22 q 679 -151 713 -117 q 599 -185 646 -185 q 517 -151 551 -185 q 483 -69 483 -117 m 317 -293 q 351 -212 317 -246 q 432 -179 385 -179 q 513 -212 479 -179 q 546 -293 546 -246 q 513 -374 546 -340 q 432 -408 479 -408 q 351 -374 385 -408 q 317 -293 317 -340 z "},"ॺ":{"ha":894,"x_min":-28,"x_max":894,"o":"m 894 782 l 757 782 l 757 0 l 589 0 l 589 239 q 485 180 543 201 q 364 158 426 158 q 142 243 233 158 q 21 479 50 328 q 188 550 138 513 q 238 639 238 588 q 149 782 238 719 l -28 782 l -28 919 l 894 919 l 894 782 m 589 782 l 336 782 l 356 761 l 357 761 l 589 443 l 589 782 m 207 396 q 364 296 257 296 q 456 314 408 296 q 544 364 503 332 l 392 575 q 328 476 375 522 q 207 396 282 429 z "},"ॻ":{"ha":919,"x_min":-28,"x_max":919,"o":"m 781 782 l 781 46 l 782 46 l 782 -90 l 124 -90 l 124 46 l 614 46 l 614 782 l 376 782 l 376 389 q 342 268 376 310 q 243 226 308 226 q 129 276 176 226 q 82 401 82 326 q 93 472 82 439 l 210 472 l 210 782 l -28 782 l -28 919 l 919 919 l 919 782 l 781 782 z "},"ॼ":{"ha":1075,"x_min":-28,"x_max":1075,"o":"m 1075 782 l 938 782 l 938 0 l 936 0 l 936 -114 l 57 -114 l 57 22 l 769 22 l 769 490 l 568 490 q 678 294 678 399 q 647 187 678 233 q 567 115 617 140 q 458 89 517 89 q 188 213 289 89 q 25 575 86 336 l 157 617 q 280 324 208 422 q 424 225 351 225 q 488 247 465 225 q 510 313 510 269 q 467 417 510 365 q 340 533 424 469 l 381 628 l 769 628 l 769 782 l -28 782 l -28 919 l 1075 919 l 1075 782 z "},"ॾ":{"ha":836,"x_min":-29,"x_max":836,"o":"m 357 535 q 306 519 324 535 q 288 478 288 504 q 408 413 288 413 q 544 423 471 413 q 672 454 617 433 q 760 360 724 419 q 796 236 796 300 q 709 60 796 126 q 468 -7 622 -7 q 238 42 344 -7 q 46 181 131 92 l 121 288 q 275 173 190 215 q 454 131 360 131 q 585 158 542 131 q 628 228 628 186 q 601 299 628 263 q 411 275 503 275 q 192 333 265 275 q 119 482 119 392 q 176 617 119 563 q 335 671 233 671 l 522 671 l 522 782 l -29 782 l -29 919 l 836 919 l 836 782 l 689 782 l 689 535 l 357 535 m 74 -115 l 769 -115 l 769 -253 l 74 -253 l 74 -115 z "},"ॿ":{"ha":907,"x_min":-28,"x_max":906,"o":"m 906 782 l 768 782 l 768 -114 l 111 -114 l 111 22 l 600 22 l 600 225 q 346 121 469 121 q 188 157 254 121 q 88 255 122 193 q 53 390 53 317 q 90 536 53 471 q 194 639 126 601 q 351 676 263 676 q 488 645 424 676 q 600 568 553 614 l 600 782 l -28 782 l -28 919 l 906 919 l 906 782 m 497 311 q 600 400 547 343 l 600 401 q 492 501 551 464 q 369 538 433 538 q 349 536 356 538 l 497 311 m 221 393 q 256 297 221 335 q 353 258 292 258 q 431 275 392 258 l 276 508 q 235 458 250 489 q 221 393 221 428 z "},"⁄":{"ha":122,"x_min":-279,"x_max":408,"o":"m 408 908 l -147 -53 l -279 26 l 276 988 l 408 908 z "},"½":{"ha":1475,"x_min":117,"x_max":1413,"o":"m 117 0 m 1115 908 l 560 -53 l 428 26 l 983 988 l 1115 908 m 522 499 l 522 378 l 132 378 l 132 499 l 247 499 l 247 817 l 149 793 l 117 899 l 274 944 l 406 944 l 406 499 l 522 499 m 963 486 q 1060 551 1006 526 q 1174 576 1114 576 q 1341 525 1285 576 q 1397 400 1397 474 q 1363 289 1397 339 q 1244 171 1328 239 l 1183 122 l 1183 121 l 1413 121 l 1413 0 l 985 0 l 985 111 l 1124 219 q 1213 311 1188 272 q 1239 386 1239 350 q 1220 439 1239 419 q 1169 458 1201 458 q 1006 378 1101 458 l 963 486 z "},"¼":{"ha":1438,"x_min":117,"x_max":1417,"o":"m 117 0 m 1115 908 l 560 -53 l 428 26 l 983 988 l 1115 908 m 522 499 l 522 378 l 132 378 l 132 499 l 247 499 l 247 817 l 149 793 l 117 899 l 274 944 l 406 944 l 406 499 l 522 499 m 1417 111 l 1328 111 l 1328 -10 l 1172 -10 l 1172 111 l 892 111 l 892 204 l 1161 567 l 1328 567 l 1328 231 l 1417 231 l 1417 111 m 1172 231 l 1172 314 l 1174 419 l 1104 321 l 1042 231 l 1172 231 z "},"¾":{"ha":1368,"x_min":57,"x_max":1347,"o":"m 57 0 m 1047 908 l 492 -53 l 360 26 l 915 988 l 1047 908 m 394 685 q 481 630 447 667 q 515 539 515 593 q 485 450 515 490 q 397 386 456 410 q 258 363 339 363 q 57 419 143 363 l 97 521 q 260 472 176 472 q 333 493 306 472 q 360 547 360 514 q 338 597 360 579 q 278 615 317 615 q 188 600 232 615 l 174 706 q 295 742 260 725 q 331 797 331 758 q 313 832 331 819 q 265 844 296 844 q 190 829 231 844 q 114 785 149 814 l 74 876 q 172 934 117 914 q 285 954 228 954 q 430 915 375 954 q 485 811 485 876 q 460 740 485 772 q 394 685 435 707 m 1347 111 l 1258 111 l 1258 -10 l 1103 -10 l 1103 111 l 822 111 l 822 204 l 1092 567 l 1258 567 l 1258 231 l 1347 231 l 1347 111 m 1103 231 l 1103 314 l 1104 419 l 1035 321 l 972 231 l 1103 231 z "},"¹":{"ha":576,"x_min":117,"x_max":522,"o":"m 522 740 l 522 619 l 132 619 l 132 740 l 247 740 l 247 1058 l 149 1035 l 117 1140 l 274 1186 l 406 1186 l 406 740 l 522 740 z "},"²":{"ha":576,"x_min":64,"x_max":514,"o":"m 64 1106 q 161 1171 107 1146 q 275 1196 215 1196 q 442 1144 386 1196 q 499 1019 499 1093 q 464 908 499 958 q 346 790 429 858 l 285 742 l 285 740 l 514 740 l 514 619 l 86 619 l 86 731 l 225 839 q 315 931 289 892 q 340 1006 340 969 q 322 1058 340 1039 q 271 1078 303 1078 q 107 997 203 1078 l 64 1106 z "},"³":{"ha":576,"x_min":57,"x_max":515,"o":"m 394 926 q 481 872 447 908 q 515 781 515 835 q 485 692 515 732 q 397 628 456 651 q 258 604 339 604 q 57 661 143 604 l 97 763 q 260 714 176 714 q 333 735 306 714 q 360 789 360 756 q 338 839 360 821 q 278 857 317 857 q 188 842 232 857 l 174 947 q 295 983 260 967 q 331 1039 331 1000 q 313 1074 331 1061 q 265 1086 296 1086 q 190 1071 231 1086 q 114 1026 149 1056 l 74 1118 q 172 1176 117 1156 q 285 1196 228 1196 q 430 1157 375 1196 q 485 1053 485 1118 q 460 981 485 1014 q 394 926 435 949 z "},"०":{"ha":876,"x_min":124,"x_max":749,"o":"m 436 92 q 265 133 335 92 q 159 246 194 175 q 124 404 124 317 q 159 566 124 494 q 265 679 194 638 q 436 721 335 721 q 608 679 538 721 q 713 566 678 638 q 749 404 749 494 q 713 246 749 317 q 608 133 678 175 q 436 92 538 92 m 436 231 q 541 281 503 231 q 579 404 579 331 q 541 532 579 482 q 436 582 503 582 q 332 532 369 582 q 294 404 294 482 q 332 281 294 331 q 436 231 369 231 z "},"१":{"ha":876,"x_min":160,"x_max":754,"o":"m 633 85 q 726 -24 697 22 q 754 -115 754 -71 q 735 -202 754 -161 q 671 -290 715 -243 l 528 -217 q 572 -125 572 -165 q 556 -63 572 -93 q 497 8 540 -33 l 172 322 q 357 474 282 408 q 211 583 263 517 q 160 738 160 649 q 235 904 160 842 q 429 967 311 967 q 569 933 508 967 q 663 842 629 900 q 696 714 696 783 q 659 579 696 644 q 562 451 622 514 q 404 306 501 389 l 633 85 m 429 828 q 355 798 382 828 q 328 721 328 768 q 362 633 328 671 q 458 572 396 594 q 528 721 528 653 q 501 797 528 767 q 429 828 474 828 z "},"२":{"ha":876,"x_min":118,"x_max":738,"o":"m 738 622 q 665 405 738 496 q 475 279 593 314 l 711 -37 l 556 -122 l 332 265 q 188 311 243 275 q 132 396 132 347 q 177 481 132 447 q 299 517 222 515 l 375 414 q 516 492 463 433 q 569 633 569 551 q 523 756 569 707 q 393 804 476 804 q 192 731 315 804 l 118 860 q 393 942 263 942 q 567 904 489 942 q 692 794 646 867 q 738 622 738 722 z "},"३":{"ha":876,"x_min":75,"x_max":788,"o":"m 788 317 q 708 128 788 207 q 494 19 629 50 l 628 -179 l 479 -258 l 354 6 q 224 51 275 13 q 172 139 172 89 q 217 218 172 186 q 339 251 263 250 l 410 147 q 563 212 506 163 q 619 328 619 261 q 582 425 619 388 q 474 463 544 463 q 267 397 381 463 l 197 524 q 454 600 324 596 q 471 685 471 638 q 435 770 471 738 q 336 803 399 803 q 242 783 288 803 q 149 731 197 764 l 75 861 q 338 940 210 940 q 487 908 418 940 q 597 814 556 876 q 639 664 639 751 q 621 569 639 615 q 742 472 697 536 q 788 317 788 407 z "},"४":{"ha":876,"x_min":24,"x_max":849,"o":"m 568 546 q 704 407 664 476 q 744 263 744 338 q 703 131 744 188 q 592 43 661 74 q 444 13 524 13 q 296 46 365 13 q 185 136 226 79 q 143 263 143 193 q 179 408 143 342 q 308 544 215 474 q 166 649 232 596 q 24 776 100 701 l 119 897 l 213 814 q 338 703 290 743 q 433 631 386 664 q 565 738 497 676 q 753 914 632 799 l 849 793 q 568 546 690 635 m 444 150 q 537 183 497 150 q 576 263 576 217 q 547 356 576 314 q 442 454 517 399 q 341 356 371 400 q 311 263 311 313 q 350 182 311 214 q 444 150 389 150 z "},"५":{"ha":876,"x_min":122,"x_max":875,"o":"m 725 -132 l 582 181 q 404 146 501 146 q 199 222 275 146 q 122 418 122 297 q 293 921 122 615 l 457 851 q 331 610 372 706 q 290 418 290 515 q 322 317 290 351 q 406 283 353 283 q 518 318 472 283 l 469 424 q 532 480 494 457 q 613 503 569 503 q 706 466 671 503 q 742 369 742 429 q 689 251 742 307 l 875 -53 l 725 -132 z "},"६":{"ha":876,"x_min":43,"x_max":894,"o":"m 744 -228 l 621 43 q 446 7 540 7 q 283 41 353 7 q 176 136 214 75 q 138 275 138 197 q 206 449 138 374 q 43 703 43 557 q 76 822 43 767 q 168 910 108 878 q 306 943 228 943 q 403 933 363 943 q 483 903 444 922 l 443 774 q 333 806 389 806 q 244 772 276 806 q 211 688 211 739 q 325 536 211 600 q 565 593 428 589 l 582 456 q 380 406 454 457 q 306 269 306 354 q 344 176 306 208 q 446 144 383 144 q 560 178 513 144 l 511 285 q 574 335 536 314 q 654 356 611 356 q 741 321 708 356 q 774 231 774 286 q 726 118 774 172 l 894 -150 l 744 -228 z "},"७":{"ha":876,"x_min":24,"x_max":856,"o":"m 565 894 q 718 838 653 894 q 819 681 783 782 q 856 451 856 581 q 817 226 856 324 q 702 74 778 129 q 519 19 626 19 q 179 229 304 19 q 24 899 54 439 l 163 922 q 284 347 192 538 q 519 156 376 156 q 628 213 588 156 q 682 368 669 269 q 614 357 644 357 q 452 394 518 357 q 353 493 386 431 q 321 631 321 556 q 351 760 321 700 q 435 858 381 821 q 565 894 490 894 m 608 494 q 686 508 644 494 q 647 691 679 625 q 565 757 614 757 q 510 721 532 757 q 488 631 488 685 q 517 532 488 569 q 608 494 546 494 z "},"८":{"ha":876,"x_min":88,"x_max":817,"o":"m 424 -50 q 244 -12 319 -50 q 128 93 168 26 q 88 243 88 160 q 136 435 88 342 q 281 640 185 529 q 576 951 378 750 l 696 840 q 425 560 518 665 q 294 383 332 456 q 256 243 256 310 q 299 131 256 174 q 424 88 343 88 q 724 242 567 88 l 817 107 q 630 -11 726 28 q 424 -50 533 -50 z "},"९":{"ha":876,"x_min":42,"x_max":900,"o":"m 781 85 q 872 -23 843 25 q 900 -115 900 -71 q 881 -203 900 -162 q 818 -290 863 -244 l 674 -217 q 719 -125 719 -167 q 703 -63 719 -93 q 643 8 688 -33 l 242 394 q 131 506 172 460 q 66 609 90 553 q 42 735 42 665 q 74 849 42 796 q 167 935 106 903 q 311 967 228 967 q 453 934 393 967 q 543 844 513 901 q 574 717 574 788 q 521 574 574 639 q 371 475 468 510 q 382 464 371 475 l 781 85 m 311 828 q 238 799 265 828 q 210 722 210 769 q 223 655 210 688 q 264 586 236 622 q 406 728 406 624 q 381 800 406 772 q 311 828 356 828 z "},"*":{"ha":725,"x_min":49,"x_max":675,"o":"m 429 615 l 610 444 l 469 347 l 361 561 l 256 347 l 115 444 l 294 617 l 49 656 l 99 811 l 315 704 l 279 944 l 444 944 l 410 707 l 624 811 l 675 656 l 429 615 z "},"\\":{"ha":565,"x_min":-11,"x_max":575,"o":"m -11 983 l 176 983 l 575 -328 l 389 -328 l -11 983 z "},"·":{"ha":438,"x_min":104,"x_max":335,"o":"m 219 279 q 138 313 172 279 q 104 393 104 346 q 138 476 104 442 q 219 510 172 510 q 301 476 267 510 q 335 393 335 442 q 301 313 335 346 q 219 279 267 279 z "},"•":{"ha":761,"x_min":189,"x_max":572,"o":"m 379 199 q 284 224 328 199 q 215 294 240 250 q 189 390 189 339 q 215 486 189 442 q 284 556 240 531 q 379 582 328 582 q 476 556 432 582 q 547 486 521 531 q 572 390 572 442 q 547 294 572 339 q 476 224 521 250 q 379 199 432 199 z "},":":{"ha":438,"x_min":104,"x_max":335,"o":"m 219 524 q 138 558 172 524 q 104 639 104 592 q 138 720 104 686 q 219 754 172 754 q 301 720 267 754 q 335 639 335 686 q 301 558 335 592 q 219 524 268 524 m 219 -10 q 138 24 172 -10 q 104 104 104 57 q 138 186 104 153 q 219 219 172 219 q 301 186 268 219 q 335 104 335 153 q 301 24 335 57 q 219 -10 267 -10 z "},",":{"ha":438,"x_min":60,"x_max":321,"o":"m 60 -162 q 122 -83 101 -132 q 142 25 142 -35 q 111 188 142 99 l 301 214 q 321 74 321 142 q 119 -240 321 -135 l 60 -162 z "},"…":{"ha":1265,"x_min":104,"x_max":1161,"o":"m 219 -10 q 138 24 172 -10 q 104 104 104 57 q 138 186 104 153 q 219 219 172 219 q 301 186 268 219 q 335 104 335 153 q 301 24 335 57 q 219 -10 267 -10 m 632 -10 q 551 24 585 -10 q 517 104 517 57 q 551 186 517 153 q 632 219 585 219 q 714 186 681 219 q 747 104 747 153 q 713 24 747 57 q 632 -10 679 -10 m 1046 -10 q 965 24 999 -10 q 931 104 931 57 q 965 186 931 153 q 1046 219 999 219 q 1128 186 1094 219 q 1161 104 1161 153 q 1127 24 1161 57 q 1046 -10 1093 -10 z "},"!":{"ha":438,"x_min":104,"x_max":335,"o":"m 114 944 l 311 944 l 297 296 l 142 296 l 114 944 m 219 -10 q 138 24 172 -10 q 104 104 104 57 q 138 186 104 153 q 219 219 172 219 q 301 186 268 219 q 335 104 335 153 q 301 24 335 57 q 219 -10 267 -10 z "},"¡":{"ha":438,"x_min":103,"x_max":333,"o":"m 103 0 m 324 -169 l 126 -169 l 140 479 l 296 479 l 324 -169 m 218 785 q 299 751 265 785 q 333 671 333 718 q 299 589 333 622 q 218 556 265 556 q 136 589 169 556 q 103 671 103 622 q 137 751 103 718 q 218 785 171 785 z "},"#":{"ha":1036,"x_min":31,"x_max":1006,"o":"m 821 574 l 758 371 l 900 371 l 858 235 l 717 235 l 644 0 l 475 0 l 547 235 l 344 235 l 272 0 l 103 0 l 175 235 l 31 235 l 72 371 l 217 371 l 279 574 l 136 574 l 178 710 l 321 710 l 393 944 l 563 944 l 490 710 l 693 710 l 765 944 l 935 944 l 863 710 l 1006 710 l 964 574 l 821 574 m 651 574 l 449 574 l 386 371 l 589 371 l 651 574 z "},".":{"ha":439,"x_min":104,"x_max":335,"o":"m 219 -10 q 138 24 172 -10 q 104 104 104 57 q 138 186 104 153 q 219 219 172 219 q 301 186 268 219 q 335 104 335 153 q 301 24 335 57 q 219 -10 267 -10 z "},"?":{"ha":696,"x_min":97,"x_max":604,"o":"m 171 543 q 360 596 304 565 q 417 689 417 626 q 348 775 417 742 q 97 808 279 808 l 97 946 q 485 874 365 946 q 604 688 604 801 q 530 524 604 589 q 319 419 456 460 l 313 296 l 182 296 l 171 543 m 249 -10 q 167 24 201 -10 q 133 104 133 57 q 167 186 133 153 q 249 219 201 219 q 331 186 297 219 q 364 104 364 153 q 330 24 364 57 q 249 -10 296 -10 z "},"¿":{"ha":696,"x_min":94,"x_max":601,"o":"m 94 0 m 528 232 q 338 179 394 210 q 282 86 282 149 q 351 0 282 33 q 601 -33 419 -33 l 601 -171 q 214 -99 333 -171 q 94 88 94 -26 q 169 251 94 186 q 379 356 243 315 l 386 479 l 517 479 l 528 232 m 450 785 q 531 751 497 785 q 565 671 565 718 q 531 589 565 622 q 450 556 497 556 q 368 589 401 556 q 335 671 335 622 q 369 751 335 718 q 450 785 403 785 z "},"\"":{"ha":776,"x_min":128,"x_max":647,"o":"m 128 588 m 128 1056 l 325 1056 l 299 588 l 158 588 l 128 1056 m 450 1056 l 647 1056 l 621 588 l 481 588 l 450 1056 z "},"'":{"ha":453,"x_min":128,"x_max":325,"o":"m 128 1056 l 325 1056 l 299 588 l 158 588 l 128 1056 z "},";":{"ha":438,"x_min":60,"x_max":335,"o":"m 219 524 q 138 558 172 524 q 104 639 104 592 q 138 720 104 686 q 219 754 172 754 q 301 720 267 754 q 335 639 335 686 q 301 558 335 592 q 219 524 268 524 m 60 -162 q 142 24 142 -101 q 111 182 142 94 l 301 208 q 321 71 321 131 q 119 -240 321 -132 l 60 -162 z "},"/":{"ha":565,"x_min":-11,"x_max":575,"o":"m 388 983 l 575 983 l 175 -328 l -11 -328 l 388 983 z "},"_":{"ha":694,"x_min":0,"x_max":694,"o":"m 0 -233 l 694 -233 l 694 -365 l 0 -365 l 0 -233 z "},"{":{"ha":508,"x_min":18,"x_max":456,"o":"m 456 -181 q 228 -131 318 -181 q 138 29 138 -82 q 150 125 138 65 q 164 232 164 192 q 128 307 164 282 q 18 340 93 332 l 18 460 q 127 492 92 467 q 163 567 163 518 q 149 675 163 606 q 136 771 136 735 q 227 931 136 882 q 456 979 318 981 l 456 858 q 317 769 317 860 q 331 649 317 715 q 343 556 343 596 q 315 458 343 499 q 236 401 288 418 l 236 399 q 316 342 289 382 q 343 243 343 303 q 331 150 343 206 q 317 31 317 83 q 456 -58 317 -58 l 456 -181 z "},"}":{"ha":508,"x_min":53,"x_max":490,"o":"m 53 -58 q 192 31 192 -58 q 178 150 192 83 q 165 243 165 206 q 192 342 165 303 q 272 399 219 382 l 272 401 q 193 458 221 418 q 165 556 165 499 q 178 649 165 596 q 192 769 192 715 q 53 858 192 860 l 53 979 q 281 931 190 981 q 371 771 371 882 q 358 675 371 735 q 344 567 344 606 q 381 492 344 518 q 490 460 417 467 l 490 340 q 380 307 415 332 q 344 232 344 282 q 358 125 344 194 q 365 87 360 118 q 371 29 371 56 q 281 -131 371 -82 q 53 -181 190 -181 l 53 -58 z "},"[":{"ha":508,"x_min":100,"x_max":408,"o":"m 100 965 l 408 965 l 408 842 l 283 828 l 283 -39 l 408 -53 l 408 -176 l 100 -176 l 100 965 z "},"]":{"ha":508,"x_min":100,"x_max":408,"o":"m 100 -51 l 225 -39 l 225 828 l 100 840 l 100 965 l 408 965 l 408 -176 l 100 -176 l 100 -51 z "},"(":{"ha":465,"x_min":78,"x_max":421,"o":"m 315 -175 q 144 76 211 -75 q 78 408 78 226 q 144 741 78 590 q 315 992 211 892 l 421 904 q 308 689 353 825 q 263 408 263 553 q 308 126 263 260 q 421 -87 353 -7 l 315 -175 z "},")":{"ha":465,"x_min":44,"x_max":388,"o":"m 44 -87 q 158 128 113 -8 q 203 408 203 264 q 158 690 203 557 q 46 904 114 824 l 151 992 q 321 741 254 892 q 388 408 388 590 q 321 76 388 226 q 151 -175 254 -75 l 44 -87 z "},"—":{"ha":1389,"x_min":174,"x_max":1215,"o":"m 174 458 l 1215 458 l 1215 326 l 174 326 l 174 458 z "},"–":{"ha":694,"x_min":0,"x_max":694,"o":"m 0 458 l 694 458 l 694 326 l 0 326 l 0 458 z "},"-":{"ha":392,"x_min":28,"x_max":364,"o":"m 28 458 l 364 458 l 364 326 l 28 326 l 28 458 z "},"­":{"ha":833,"x_min":28,"x_max":364,"o":"m 28 326 m 28 458 l 364 458 l 364 326 l 28 326 l 28 458 z "},"«":{"ha":836,"x_min":64,"x_max":774,"o":"m 64 67 m 64 360 l 296 653 l 424 558 l 263 360 l 424 160 l 296 67 l 64 360 m 414 360 l 646 653 l 774 558 l 613 360 l 774 160 l 646 67 l 414 360 z "},"»":{"ha":836,"x_min":61,"x_max":771,"o":"m 61 67 m 61 161 l 222 360 l 61 560 l 189 653 l 421 360 l 189 67 l 61 161 m 411 161 l 572 360 l 411 560 l 539 653 l 771 360 l 539 67 l 411 161 z "},"‹":{"ha":485,"x_min":64,"x_max":424,"o":"m 64 360 l 296 653 l 424 558 l 263 360 l 424 160 l 296 67 l 64 360 z "},"›":{"ha":485,"x_min":61,"x_max":421,"o":"m 61 161 l 222 360 l 61 560 l 189 653 l 421 360 l 189 67 l 61 161 z "},"„":{"ha":781,"x_min":60,"x_max":663,"o":"m 60 0 m 60 -162 q 122 -83 101 -132 q 142 25 142 -35 q 111 188 142 99 l 301 214 q 321 74 321 142 q 119 -240 321 -135 l 60 -162 m 401 -162 q 463 -83 443 -132 q 483 25 483 -35 q 453 188 483 99 l 643 214 q 663 74 663 142 q 461 -240 663 -135 l 401 -162 z "},"“":{"ha":781,"x_min":117,"x_max":721,"o":"m 117 590 m 136 590 q 117 728 117 668 q 319 1044 117 938 l 379 967 q 297 779 297 907 q 328 617 297 700 l 136 590 m 478 590 q 458 728 458 668 q 661 1044 458 938 l 721 967 q 639 779 639 907 q 669 617 639 700 l 478 590 z "},"”":{"ha":781,"x_min":60,"x_max":663,"o":"m 60 590 m 60 668 q 122 747 101 699 q 142 856 142 796 q 111 1018 142 929 l 301 1044 q 321 904 321 972 q 119 590 321 696 l 60 668 m 401 668 q 463 747 443 699 q 483 856 483 796 q 453 1018 483 929 l 643 1044 q 663 904 663 972 q 461 590 663 696 l 401 668 z "},"‘":{"ha":438,"x_min":117,"x_max":379,"o":"m 136 590 q 117 728 117 668 q 319 1044 117 938 l 379 967 q 297 779 297 907 q 328 617 297 700 l 136 590 z "},"’":{"ha":438,"x_min":60,"x_max":321,"o":"m 60 668 q 122 747 101 699 q 142 856 142 796 q 111 1018 142 929 l 301 1044 q 321 904 321 972 q 119 590 321 696 l 60 668 z "},"‚":{"ha":438,"x_min":60,"x_max":321,"o":"m 60 0 m 60 -162 q 122 -83 101 -132 q 142 25 142 -35 q 111 188 142 99 l 301 214 q 321 74 321 142 q 119 -240 321 -135 l 60 -162 z "},"ॽ":{"ha":829,"x_min":139,"x_max":707,"o":"m 707 633 q 642 451 707 526 q 450 349 578 376 l 450 0 l 282 0 l 282 467 l 281 469 q 483 528 426 483 q 539 654 539 572 q 507 761 539 719 q 415 803 475 803 q 316 778 365 803 q 210 708 267 753 l 139 836 q 272 913 207 885 q 408 940 336 940 q 558 904 490 940 q 667 799 626 868 q 707 633 707 729 z "},"।":{"ha":561,"x_min":256,"x_max":424,"o":"m 256 919 l 424 919 l 424 0 l 256 0 l 256 919 z "},"॥":{"ha":929,"x_min":256,"x_max":792,"o":"m 256 919 l 424 919 l 424 0 l 256 0 l 256 919 m 624 919 l 792 919 l 792 0 l 624 0 l 624 919 z "},"॰":{"ha":735,"x_min":106,"x_max":624,"o":"m 364 121 q 225 155 283 121 q 136 247 167 189 q 106 378 106 306 q 136 510 106 451 q 225 603 167 569 q 364 638 283 638 q 503 603 444 638 q 593 510 563 569 q 624 378 624 451 q 593 247 624 306 q 503 155 563 189 q 364 121 444 121 m 365 260 q 431 292 408 260 q 454 378 454 325 q 431 467 454 433 q 365 500 408 500 q 299 467 322 500 q 276 378 276 433 q 299 292 276 325 q 365 260 322 260 z "},"ॱ":{"ha":486,"x_min":118,"x_max":347,"o":"m 118 735 m 118 850 q 152 931 118 897 q 233 964 186 964 q 314 931 281 964 q 347 850 347 897 q 314 769 347 803 q 233 735 281 735 q 152 769 186 735 q 118 850 118 803 z "}," ":{"ha":1029,"x_min":0,"x_max":0,"o":""}," ":{"ha":1029,"x_min":0,"x_max":0,"o":""}," ":{"ha":1275,"x_min":0,"x_max":0,"o":""}," ":{"ha":785,"x_min":0,"x_max":0,"o":""}," ":{"ha":847,"x_min":0,"x_max":0,"o":""}," ":{"ha":661,"x_min":0,"x_max":0,"o":""}," ":{"ha":589,"x_min":0,"x_max":0,"o":""}," ":{"ha":713,"x_min":0,"x_max":0,"o":""}," ":{"ha":621,"x_min":0,"x_max":0,"o":""}," ":{"ha":347,"x_min":0,"x_max":0,"o":""}," ":{"ha":638,"x_min":0,"x_max":0,"o":""}," ":{"ha":703,"x_min":0,"x_max":0,"o":""},"‍":{"ha":539,"x_min":0,"x_max":0,"o":""},"‌":{"ha":539,"x_min":0,"x_max":0,"o":""},"":{"ha":539,"x_min":0,"x_max":0,"o":""},"¢":{"ha":842,"x_min":57,"x_max":801,"o":"m 801 217 q 695 129 757 167 q 560 78 633 92 l 560 -171 l 396 -171 l 396 75 q 143 206 229 99 q 57 469 57 314 q 142 723 57 617 q 396 856 226 829 l 396 1111 l 560 1111 l 560 857 q 681 818 622 846 q 776 753 739 790 l 731 626 q 620 700 681 672 q 497 728 560 728 q 310 659 376 728 q 243 471 243 590 q 305 275 243 346 q 479 204 367 204 q 618 238 556 204 q 746 333 681 271 l 801 217 z "},"¤":{"ha":842,"x_min":96,"x_max":747,"o":"m 689 390 q 658 260 689 317 l 746 172 l 633 60 l 547 147 q 421 119 492 119 q 294 147 350 119 l 208 60 l 96 172 l 183 260 q 154 388 154 318 q 182 514 154 454 l 96 599 l 208 711 l 290 628 q 421 658 349 658 q 551 628 493 658 l 635 711 l 747 599 l 661 513 q 689 390 689 454 m 296 389 q 331 288 296 328 q 421 247 367 247 q 511 288 476 247 q 546 389 546 328 q 511 490 546 449 q 421 531 476 531 q 331 490 367 531 q 296 389 296 449 z "},"$":{"ha":842,"x_min":74,"x_max":767,"o":"m 767 281 q 704 116 767 182 q 528 26 642 50 l 528 -171 l 364 -171 l 364 14 q 74 90 192 19 l 119 222 q 253 169 188 186 q 393 151 319 151 q 528 183 474 151 q 582 269 582 214 q 533 355 582 325 q 383 417 483 385 q 239 472 294 446 q 144 547 183 499 q 106 668 106 594 q 174 838 106 772 q 364 922 243 903 l 364 1111 l 528 1111 l 528 925 q 742 853 649 910 l 696 724 q 464 790 578 790 q 339 761 388 790 q 290 679 290 732 q 315 620 290 644 q 378 579 340 596 q 482 540 415 563 q 629 483 572 510 q 726 406 686 456 q 767 281 767 357 z "},"€":{"ha":842,"x_min":75,"x_max":771,"o":"m 771 56 q 550 -18 683 -18 q 319 66 407 -18 q 199 300 231 150 l 75 300 l 75 433 l 183 433 q 182 478 182 447 q 183 517 182 504 l 75 517 l 75 650 l 199 650 q 318 878 229 796 q 550 961 407 961 q 769 890 678 961 l 721 763 q 576 822 657 822 q 388 650 429 822 l 663 650 l 663 517 l 372 517 q 371 476 371 504 q 372 433 371 447 l 663 433 l 663 300 l 388 300 q 576 119 431 119 q 656 135 621 119 q 724 179 690 150 l 771 56 z "},"ƒ":{"ha":842,"x_min":156,"x_max":739,"o":"m 486 624 l 722 624 l 722 492 l 475 492 l 417 -240 l 235 -240 l 293 492 l 156 492 l 156 624 l 304 624 l 307 661 q 399 921 321 842 q 619 1000 478 1000 q 739 985 678 1000 l 699 858 q 638 865 664 865 q 531 818 564 865 q 489 658 497 771 l 486 624 z "},"₹":{"ha":906,"x_min":178,"x_max":817,"o":"m 564 782 q 607 699 592 746 l 817 699 l 817 563 l 608 563 q 542 447 592 496 q 421 369 493 397 l 731 58 l 622 -50 l 243 338 l 246 424 q 429 563 397 461 l 178 563 l 178 699 l 426 699 q 371 782 411 742 l 178 782 l 178 919 l 817 919 l 817 782 l 564 782 z "},"£":{"ha":842,"x_min":88,"x_max":761,"o":"m 761 136 l 761 0 l 99 0 l 99 101 q 257 308 257 206 q 235 408 257 354 l 88 408 l 88 542 l 172 542 q 147 689 147 614 q 236 888 147 814 q 478 961 325 961 q 753 881 629 960 l 704 757 q 604 806 651 789 q 501 822 557 822 q 376 782 419 822 q 332 682 332 742 q 365 542 332 614 l 654 542 l 654 408 l 426 408 q 442 308 442 363 q 421 222 442 263 q 358 136 400 182 l 761 136 z "},"¥":{"ha":842,"x_min":56,"x_max":789,"o":"m 558 599 l 738 599 l 738 465 l 514 465 l 514 397 l 738 397 l 738 263 l 514 263 l 514 0 l 329 0 l 329 263 l 100 263 l 100 397 l 329 397 l 329 465 l 100 465 l 100 599 l 285 599 l 56 944 l 251 944 l 422 658 l 596 944 l 789 944 l 558 599 z "},"≈":{"ha":842,"x_min":39,"x_max":803,"o":"m 39 471 q 150 585 90 540 q 290 629 210 629 q 365 615 332 629 q 439 576 399 601 q 501 544 476 554 q 554 533 525 533 q 715 633 644 533 l 803 549 q 690 436 746 478 q 554 394 635 394 q 488 407 517 394 q 413 444 458 419 q 348 479 375 468 q 290 490 321 490 q 201 462 240 490 q 126 386 161 433 l 39 471 m 39 188 q 150 301 90 257 q 290 346 210 346 q 365 332 332 346 q 439 293 399 318 q 501 260 476 271 q 554 250 525 250 q 715 350 644 250 l 803 265 q 690 153 746 194 q 554 111 635 111 q 488 124 517 111 q 413 161 458 136 q 348 196 375 185 q 290 207 321 207 q 201 178 240 207 q 126 103 161 150 l 39 188 z "},"~":{"ha":842,"x_min":39,"x_max":803,"o":"m 39 346 q 150 460 90 415 q 290 504 210 504 q 365 490 332 504 q 439 451 399 476 q 501 419 476 429 q 554 408 525 408 q 715 508 644 408 l 803 424 q 690 311 746 353 q 554 269 635 269 q 488 282 517 269 q 413 319 458 294 q 348 354 375 343 q 290 365 321 365 q 201 337 240 365 q 126 261 161 308 l 39 346 z "},"÷":{"ha":842,"x_min":44,"x_max":796,"o":"m 421 568 q 340 602 374 568 q 306 683 306 636 q 340 765 306 732 q 421 799 374 799 q 503 765 469 799 q 536 683 536 732 q 502 602 536 636 q 421 568 468 568 m 44 471 l 796 471 l 796 339 l 44 339 l 44 471 m 421 11 q 340 45 374 11 q 306 126 306 79 q 340 208 306 175 q 421 242 374 242 q 503 208 469 242 q 536 126 536 175 q 503 45 536 79 q 421 11 469 11 z "},"=":{"ha":842,"x_min":44,"x_max":796,"o":"m 44 628 l 796 628 l 796 496 l 44 496 l 44 628 m 44 314 l 796 314 l 796 182 l 44 182 l 44 314 z "},">":{"ha":842,"x_min":44,"x_max":796,"o":"m 796 463 l 796 336 l 44 35 l 44 176 l 636 400 l 44 624 l 44 765 l 796 463 z "},"≥":{"ha":842,"x_min":44,"x_max":796,"o":"m 796 540 l 796 414 l 44 189 l 44 325 l 639 478 l 44 629 l 44 765 l 796 540 m 44 126 l 796 126 l 796 0 l 44 0 l 44 126 z "},"∆":{"ha":943,"x_min":17,"x_max":926,"o":"m 926 0 l 17 0 l 381 957 l 561 957 l 926 0 m 688 136 l 471 758 l 254 136 l 688 136 z "},"∞":{"ha":849,"x_min":33,"x_max":814,"o":"m 600 592 q 754 536 694 592 q 814 372 814 481 q 752 208 814 264 q 599 151 690 151 q 417 247 483 151 q 342 174 381 197 q 244 151 303 151 q 92 207 150 151 q 33 371 33 263 q 94 535 33 479 q 246 592 156 592 q 415 493 357 592 q 497 568 454 544 q 600 592 539 592 m 244 282 q 300 306 276 282 q 349 382 324 331 l 356 394 q 303 444 332 426 q 246 461 275 461 q 189 439 213 461 q 165 371 165 417 q 188 304 165 326 q 244 282 210 282 m 599 282 q 658 304 633 282 q 682 372 682 326 q 659 440 682 418 q 600 461 636 461 q 541 438 564 461 q 488 364 518 415 l 482 353 q 535 301 506 319 q 599 282 565 282 z "},"∫":{"ha":842,"x_min":104,"x_max":738,"o":"m 225 -308 q 104 -297 175 -308 l 119 -165 q 197 -172 164 -172 q 297 -129 265 -172 q 329 -1 329 -86 l 329 814 q 401 1040 329 961 q 617 1118 472 1118 q 738 1107 667 1118 l 722 975 q 643 982 676 982 q 544 939 575 982 q 513 811 513 896 l 513 -4 q 441 -230 513 -151 q 225 -308 369 -308 z "},"<":{"ha":842,"x_min":44,"x_max":796,"o":"m 796 624 l 204 400 l 796 176 l 796 35 l 44 336 l 44 463 l 796 765 l 796 624 z "},"≤":{"ha":842,"x_min":44,"x_max":796,"o":"m 796 629 l 201 478 l 796 325 l 796 189 l 44 414 l 44 540 l 796 765 l 796 629 m 44 126 l 796 126 l 796 0 l 44 0 l 44 126 z "},"¬":{"ha":842,"x_min":44,"x_max":797,"o":"m 797 444 l 797 24 l 656 24 l 656 339 l 44 339 l 44 471 l 796 471 l 796 444 l 797 444 z "},"−":{"ha":842,"x_min":44,"x_max":796,"o":"m 44 471 l 796 471 l 796 339 l 44 339 l 44 471 z "},"×":{"ha":842,"x_min":106,"x_max":736,"o":"m 643 88 l 419 311 l 199 90 l 106 185 l 326 406 l 111 619 l 204 713 l 419 499 l 638 717 l 732 624 l 513 404 l 736 182 l 643 88 z "},"≠":{"ha":842,"x_min":44,"x_max":796,"o":"m 551 496 l 446 314 l 796 314 l 796 182 l 371 182 l 267 0 l 113 0 l 217 182 l 44 182 l 44 314 l 292 314 l 397 496 l 44 496 l 44 628 l 472 628 l 576 810 l 731 810 l 626 628 l 796 628 l 796 496 l 551 496 z "},"∂":{"ha":842,"x_min":64,"x_max":778,"o":"m 192 961 q 503 855 371 933 q 706 652 635 776 q 778 367 778 528 q 681 79 778 179 q 421 -21 583 -21 q 229 21 310 -21 q 106 133 149 63 q 64 286 64 203 q 103 435 64 365 q 215 549 142 506 q 389 592 289 592 q 560 547 478 592 q 422 726 519 663 q 161 829 325 790 l 192 961 m 421 115 q 544 175 499 115 q 589 347 589 235 l 589 369 q 407 454 514 454 q 294 405 335 454 q 253 278 253 356 q 296 162 253 208 q 421 115 339 115 z "},"%":{"ha":1406,"x_min":22,"x_max":1383,"o":"m 22 0 m 1047 908 l 492 -53 l 360 26 l 915 988 l 1047 908 m 288 363 q 91 446 160 363 q 22 657 22 529 q 90 870 22 786 q 288 954 158 954 q 485 870 417 954 q 554 658 554 786 q 485 447 554 531 q 288 363 417 363 m 286 478 q 365 522 340 478 q 389 658 389 567 q 365 794 389 750 q 286 839 340 839 q 210 794 233 839 q 186 658 186 750 q 210 522 186 567 q 286 478 233 478 m 1117 -15 q 920 68 989 -15 q 851 279 851 151 q 919 492 851 408 q 1117 576 988 576 q 1315 492 1246 576 q 1383 281 1383 408 q 1315 69 1383 153 q 1117 -15 1246 -15 m 1115 100 q 1194 144 1169 100 q 1218 281 1218 189 q 1194 417 1218 372 q 1115 461 1169 461 q 1039 417 1063 461 q 1015 281 1015 372 q 1039 144 1015 189 q 1115 100 1063 100 z "},"‰":{"ha":2003,"x_min":22,"x_max":1981,"o":"m 22 0 m 1047 908 l 492 -53 l 360 26 l 915 988 l 1047 908 m 288 363 q 91 446 160 363 q 22 657 22 529 q 90 870 22 786 q 288 954 158 954 q 485 870 417 954 q 554 658 554 786 q 485 447 554 531 q 288 363 417 363 m 286 478 q 365 522 340 478 q 389 658 389 567 q 365 794 389 750 q 286 839 340 839 q 210 794 233 839 q 186 658 186 750 q 210 522 186 567 q 286 478 233 478 m 1117 -15 q 920 68 989 -15 q 851 279 851 151 q 919 492 851 408 q 1117 576 988 576 q 1315 492 1246 576 q 1383 281 1383 408 q 1315 69 1383 153 q 1117 -15 1246 -15 m 1115 100 q 1194 144 1169 100 q 1218 281 1218 189 q 1194 417 1218 372 q 1115 461 1169 461 q 1039 417 1063 461 q 1015 281 1015 372 q 1039 144 1015 189 q 1115 100 1063 100 m 1714 -15 q 1517 68 1586 -15 q 1449 279 1449 151 q 1517 492 1449 408 q 1714 576 1585 576 q 1912 492 1843 576 q 1981 281 1981 408 q 1912 69 1981 153 q 1714 -15 1843 -15 m 1713 100 q 1791 144 1767 100 q 1815 281 1815 189 q 1791 417 1815 372 q 1713 461 1767 461 q 1636 417 1660 461 q 1613 281 1613 372 q 1636 144 1613 189 q 1713 100 1660 100 z "},"+":{"ha":842,"x_min":44,"x_max":796,"o":"m 796 339 l 493 339 l 493 24 l 351 24 l 351 339 l 44 339 l 44 471 l 351 471 l 351 776 l 493 776 l 493 471 l 796 471 l 796 339 z "},"±":{"ha":842,"x_min":44,"x_max":796,"o":"m 796 549 l 796 422 l 493 422 l 493 200 l 351 200 l 351 422 l 44 422 l 44 549 l 351 549 l 351 776 l 493 776 l 493 549 l 796 549 m 44 126 l 796 126 l 796 0 l 44 0 l 44 126 z "},"∏":{"ha":1106,"x_min":140,"x_max":967,"o":"m 967 -326 l 778 -326 l 778 808 l 329 808 l 329 -326 l 140 -326 l 140 944 l 967 944 l 967 -326 z "},"√":{"ha":842,"x_min":42,"x_max":800,"o":"m 800 944 l 515 0 l 339 0 l 172 447 l 42 447 l 42 583 l 299 583 l 419 178 l 615 944 l 800 944 z "},"∑":{"ha":956,"x_min":85,"x_max":900,"o":"m 85 -228 l 475 310 l 92 836 l 92 944 l 893 944 l 893 808 l 322 808 l 688 310 l 318 -196 l 900 -196 l 900 -332 l 85 -332 l 85 -228 z "},"◌":{"ha":1069,"x_min":129,"x_max":940,"o":"m 536 742 q 496 758 513 742 q 479 799 479 775 q 496 838 479 821 q 536 856 513 856 q 576 838 558 856 q 593 799 593 821 q 576 758 593 775 q 536 742 558 742 m 358 697 q 319 714 336 697 q 303 754 303 731 q 319 794 303 778 q 358 811 336 811 q 399 794 382 811 q 415 754 415 778 q 399 715 415 732 q 358 697 382 697 m 708 697 q 669 715 686 697 q 651 754 651 732 q 669 794 651 778 q 708 811 686 811 q 749 794 732 811 q 765 754 765 778 q 749 714 765 731 q 708 697 732 697 m 229 568 q 189 585 206 568 q 172 625 172 601 q 189 665 172 649 q 229 682 206 682 q 269 665 253 682 q 286 625 286 649 q 269 585 286 601 q 229 568 253 568 m 840 568 q 800 585 817 568 q 783 625 783 601 q 801 665 783 649 q 840 682 818 682 q 881 665 864 682 q 897 625 897 649 q 881 585 897 601 q 840 568 864 568 m 186 392 q 146 408 163 392 q 129 449 129 425 q 146 489 129 472 q 186 506 163 506 q 226 489 210 506 q 243 449 243 472 q 226 409 243 426 q 186 392 210 392 m 883 392 q 844 409 861 392 q 828 449 828 426 q 844 489 828 472 q 883 506 861 506 q 924 489 907 506 q 940 449 940 472 q 924 408 940 425 q 883 392 907 392 m 229 217 q 189 233 206 217 q 172 274 172 250 q 189 313 172 297 q 229 329 206 329 q 269 313 253 329 q 286 274 286 296 q 269 234 286 251 q 229 217 253 217 m 840 217 q 801 234 818 217 q 783 274 783 251 q 800 313 783 296 q 840 329 817 329 q 881 313 864 329 q 897 274 897 297 q 881 233 897 250 q 840 217 864 217 m 358 85 q 319 101 336 85 q 303 142 303 118 q 319 181 303 165 q 358 197 336 197 q 399 181 382 197 q 415 142 415 164 q 399 102 415 119 q 358 85 382 85 m 708 85 q 669 102 686 85 q 651 142 651 119 q 668 181 651 164 q 708 197 685 197 q 749 181 732 197 q 765 142 765 165 q 749 101 765 118 q 708 85 732 85 m 536 42 q 496 58 513 42 q 479 99 479 75 q 496 139 479 122 q 536 156 513 156 q 576 139 558 156 q 593 99 593 122 q 576 59 593 76 q 536 42 558 42 z "},"◊":{"ha":842,"x_min":82,"x_max":758,"o":"m 758 472 l 508 0 l 331 0 l 82 472 l 332 944 l 510 944 l 758 472 m 594 472 l 421 801 l 247 472 l 421 143 l 594 472 z "},"|":{"ha":525,"x_min":168,"x_max":357,"o":"m 168 1121 l 357 1121 l 357 -328 l 168 -328 l 168 1121 z "},"¦":{"ha":525,"x_min":168,"x_max":357,"o":"m 168 1121 l 357 1121 l 357 554 l 168 554 l 168 1121 m 168 239 l 357 239 l 357 -328 l 168 -328 l 168 239 z "},"@":{"ha":1256,"x_min":65,"x_max":1190,"o":"m 403 221 q 433 317 403 278 q 526 385 463 356 q 704 447 590 415 l 704 460 q 688 528 704 501 q 628 554 672 554 q 542 535 585 554 q 444 467 499 515 l 407 575 q 517 647 456 618 q 650 675 579 675 q 799 619 754 675 q 844 449 844 564 l 844 246 q 855 206 844 218 q 888 193 865 193 q 953 223 921 193 q 1008 313 986 253 q 1029 457 1029 374 q 984 627 1029 551 q 857 746 939 703 q 667 789 775 789 q 440 740 540 789 q 283 593 340 690 q 226 358 226 496 q 281 131 226 225 q 429 -12 336 36 q 636 -60 522 -60 q 788 -40 719 -60 q 921 21 857 -19 l 975 -92 q 815 -165 899 -140 q 635 -190 732 -190 q 357 -128 488 -190 q 146 59 226 -65 q 65 360 65 183 q 148 664 65 538 q 367 855 231 790 q 665 919 504 919 q 944 858 825 919 q 1127 690 1064 796 q 1190 456 1190 583 q 1143 248 1190 335 q 1022 117 1096 161 q 868 74 947 74 q 722 149 765 74 q 550 72 632 72 q 444 114 486 72 q 403 221 403 156 m 543 235 q 592 193 543 193 q 704 247 640 193 l 704 342 q 577 288 611 313 q 543 235 543 263 z "},"&":{"ha":1014,"x_min":32,"x_max":993,"o":"m 993 6 q 879 -11 950 -11 q 763 10 814 -11 q 651 86 713 32 q 368 -18 518 -18 q 187 16 263 -18 q 72 109 111 50 q 32 243 32 168 q 84 408 32 336 q 244 533 136 481 q 174 632 194 592 q 153 724 153 672 q 223 893 153 825 q 425 961 293 961 q 569 933 510 961 q 660 856 629 904 q 690 751 690 808 q 643 605 690 667 q 492 492 596 543 l 658 307 q 776 599 732 429 l 949 579 q 875 374 924 474 q 761 194 826 275 q 831 144 797 161 q 899 128 864 128 q 961 136 932 128 l 993 6 m 424 825 q 356 799 379 825 q 333 733 333 772 q 348 664 333 694 q 399 593 363 633 q 485 661 460 626 q 511 742 511 696 q 488 800 511 775 q 424 825 465 825 m 221 258 q 265 159 221 200 q 386 118 308 118 q 557 185 478 118 l 338 428 q 247 344 274 386 q 221 258 221 303 z "},"¶":{"ha":835,"x_min":42,"x_max":703,"o":"m 703 -31 q 631 -256 703 -178 q 415 -335 560 -335 q 294 -324 365 -335 l 310 -192 q 388 -199 354 -199 q 488 -156 456 -199 q 519 -28 519 -114 l 519 278 l 414 278 q 138 369 235 278 q 42 613 42 460 q 84 783 42 707 q 210 901 126 858 q 414 944 294 944 l 703 944 l 703 -31 z "},"©":{"ha":1136,"x_min":69,"x_max":1067,"o":"m 568 -18 q 311 48 425 -18 q 133 226 197 114 q 69 474 69 339 q 133 719 69 607 q 311 896 197 831 q 568 961 425 961 q 825 896 711 961 q 1003 719 939 831 q 1067 474 1067 607 q 1003 226 1067 339 q 825 48 939 114 q 568 -18 711 -18 m 568 92 q 758 142 675 92 q 886 281 840 193 q 932 474 932 368 q 886 665 932 578 q 758 801 840 751 q 568 851 675 851 q 378 801 461 851 q 250 665 296 751 q 204 474 204 578 q 250 281 204 368 q 378 142 296 193 q 568 92 461 92 m 582 215 q 442 251 500 215 q 356 344 385 286 q 326 472 326 403 q 357 600 326 542 q 447 693 388 658 q 589 728 507 728 q 677 715 636 728 q 749 679 718 701 l 713 586 q 604 619 667 619 q 499 577 539 619 q 460 472 460 535 q 497 365 460 407 q 597 324 533 324 q 660 335 631 324 q 711 364 690 346 l 753 272 q 676 231 721 247 q 582 215 632 215 z "},"®":{"ha":628,"x_min":46,"x_max":581,"o":"m 314 1001 q 449 967 388 1001 q 545 871 510 932 q 581 735 581 810 q 545 599 581 660 q 449 502 510 538 q 314 467 388 467 q 179 502 240 467 q 82 599 118 538 q 46 735 46 660 q 82 871 46 810 q 179 967 118 932 q 314 1001 240 1001 m 314 536 q 411 562 367 536 q 482 633 456 588 q 508 735 508 679 q 482 836 508 790 q 411 908 456 882 q 314 935 367 935 q 217 908 261 935 q 146 836 172 882 q 119 735 119 790 q 146 633 119 679 q 217 562 172 588 q 314 536 261 536 m 415 769 q 382 707 415 726 l 438 625 l 361 625 l 318 692 l 288 692 l 288 625 l 221 625 l 221 846 l 324 846 q 391 824 367 846 q 415 769 415 803 m 288 743 l 319 743 q 347 771 347 743 q 319 794 347 794 l 288 794 l 288 743 z "},"§":{"ha":835,"x_min":122,"x_max":736,"o":"m 633 199 q 714 40 714 139 q 628 -140 714 -76 q 386 -204 542 -204 q 243 -187 311 -204 q 122 -143 175 -171 l 164 -15 q 383 -69 275 -69 q 492 -46 450 -69 q 533 29 533 -22 q 495 92 533 68 q 375 144 457 115 q 251 195 300 171 q 169 261 203 219 q 135 365 135 303 q 246 563 135 493 q 157 718 157 622 q 240 894 157 833 q 464 954 324 954 q 592 940 529 954 q 706 899 656 925 l 664 769 q 469 819 571 819 q 373 799 408 819 q 338 738 338 779 q 375 674 338 697 q 492 625 413 651 q 617 574 569 599 q 701 503 665 549 q 736 388 736 458 q 633 199 736 269 m 315 385 q 353 323 315 344 q 474 272 390 301 q 556 376 556 315 q 517 441 556 417 q 399 494 479 465 q 315 385 315 453 z "},"™":{"ha":1189,"x_min":56,"x_max":1024,"o":"m 433 875 l 311 875 l 311 493 l 179 493 l 179 875 l 56 875 l 56 963 l 433 963 l 433 875 m 1024 963 l 1024 493 l 892 493 l 892 615 l 899 792 l 806 643 l 725 643 l 632 793 l 639 615 l 639 493 l 507 493 l 507 963 l 642 963 l 765 769 l 888 963 l 1024 963 z "},"°":{"ha":681,"x_min":82,"x_max":599,"o":"m 339 489 q 203 524 261 489 q 113 617 144 558 q 82 743 82 675 q 113 870 82 811 q 203 965 144 929 q 339 1000 261 1000 q 477 965 418 1000 q 567 871 536 929 q 599 746 599 813 q 567 618 599 676 q 477 524 536 560 q 339 489 418 489 m 340 603 q 430 643 394 603 q 465 744 465 683 q 430 845 465 804 q 340 886 394 886 q 251 845 286 886 q 215 744 215 804 q 251 643 215 683 q 340 603 286 603 z "},"^":{"ha":842,"x_min":149,"x_max":692,"o":"m 524 210 l 421 435 l 318 210 l 149 210 l 339 572 l 501 572 l 692 210 l 524 210 z "},"†":{"ha":576,"x_min":32,"x_max":543,"o":"m 543 696 l 543 564 l 32 564 l 32 696 l 196 696 l 196 944 l 379 944 l 379 696 l 543 696 m 196 464 l 379 464 l 367 -210 l 207 -210 l 196 464 z "},"‡":{"ha":576,"x_min":32,"x_max":543,"o":"m 543 696 l 543 564 l 32 564 l 32 696 l 196 696 l 196 944 l 379 944 l 379 696 l 543 696 m 397 367 q 364 285 397 319 q 282 251 331 251 q 201 285 235 251 q 167 367 167 319 q 201 449 167 415 q 282 482 235 482 q 364 449 331 482 q 397 367 397 415 m 32 171 l 543 171 l 543 39 l 379 39 l 379 -210 l 196 -210 l 196 39 l 32 39 l 32 171 z "},"ऽ":{"ha":799,"x_min":53,"x_max":697,"o":"m 393 0 q 201 54 285 0 q 53 217 118 108 l 158 303 q 375 138 267 138 q 456 165 426 138 q 485 244 485 193 q 453 339 485 292 q 358 449 421 386 l 275 533 q 182 649 213 599 q 151 757 151 699 q 198 876 151 832 q 333 919 244 919 l 697 919 l 697 782 l 378 782 q 319 744 319 782 q 338 697 319 722 q 400 626 356 671 l 481 543 q 607 388 561 461 q 653 243 653 314 q 619 115 653 171 q 526 30 586 60 q 393 0 467 0 z "},"ॐ":{"ha":1560,"x_min":0,"x_max":1508,"o":"m 976 983 q 895 1017 929 983 q 861 1099 861 1051 q 895 1179 861 1146 q 976 1213 929 1213 q 1057 1179 1024 1213 q 1090 1099 1090 1146 q 1057 1017 1090 1051 q 976 983 1024 983 m 978 729 q 782 785 868 729 q 649 931 696 842 l 757 1007 q 978 865 842 865 q 1199 1007 1114 865 l 1307 931 q 1172 785 1257 840 q 978 729 1086 729 m 1242 696 q 1381 658 1321 696 q 1475 558 1442 621 q 1508 421 1508 494 q 1476 285 1508 346 q 1385 190 1444 225 q 1250 156 1326 156 q 1013 279 1111 156 q 924 183 971 218 q 817 149 878 149 q 675 201 750 149 q 581 69 654 119 q 397 18 507 18 q 0 293 154 18 l 90 393 q 230 221 151 286 q 392 156 308 156 q 481 189 447 156 q 515 276 515 222 q 450 419 515 357 q 297 397 376 401 l 257 536 q 403 560 351 542 q 476 607 456 578 q 496 682 496 636 q 464 768 496 733 q 376 803 432 803 q 181 711 294 803 l 108 838 q 369 940 243 940 q 515 908 447 940 q 623 813 582 876 q 664 660 664 749 q 575 479 664 546 q 633 411 614 440 q 718 319 681 351 q 799 288 756 288 q 868 325 836 288 q 949 444 900 363 q 1033 574 996 524 q 1122 660 1069 624 q 1242 696 1175 696 m 1233 293 q 1311 331 1282 293 q 1340 428 1340 369 q 1313 522 1340 485 q 1242 558 1286 558 q 1160 517 1196 558 q 1079 392 1125 475 q 1233 293 1146 293 z "},"̦":{"ha":694,"x_min":-471,"x_max":-231,"o":"m -471 -271 q -391 -244 -414 -262 q -368 -200 -368 -226 q -437 -149 -368 -154 l -400 -57 q -271 -103 -311 -67 q -231 -192 -231 -140 q -285 -301 -231 -257 q -439 -354 -339 -344 l -471 -271 z "},"´":{"ha":694,"x_min":186,"x_max":517,"o":"m 321 1114 l 517 1114 l 328 819 l 186 819 l 321 1114 z "},"˘":{"ha":694,"x_min":113,"x_max":582,"o":"m 347 832 q 176 899 238 832 q 113 1097 115 967 l 236 1100 q 269 989 239 1026 q 347 951 299 951 q 426 990 396 951 q 458 1101 456 1028 l 582 1097 q 518 899 579 967 q 347 832 457 832 z "},"ˇ":{"ha":694,"x_min":103,"x_max":592,"o":"m 592 1111 l 438 819 l 257 819 l 103 1111 l 244 1111 l 347 936 l 450 1111 l 592 1111 z "},"¸":{"ha":694,"x_min":218,"x_max":486,"o":"m 361 -74 q 450 -104 414 -75 q 486 -178 486 -133 q 433 -281 486 -236 q 260 -336 379 -325 l 231 -253 q 324 -226 299 -242 q 350 -187 350 -210 q 338 -162 350 -171 q 306 -153 326 -153 q 261 -162 285 -153 l 218 -111 l 303 44 l 424 44 l 361 -74 z "},"ˆ":{"ha":694,"x_min":103,"x_max":592,"o":"m 450 819 l 347 994 l 244 819 l 103 819 l 257 1111 l 438 1111 l 592 819 l 450 819 z "},"¨":{"ha":694,"x_min":86,"x_max":610,"o":"m 188 932 q 117 962 147 932 q 86 1032 86 992 q 117 1103 86 1074 q 188 1133 147 1133 q 258 1103 228 1133 q 289 1032 289 1074 q 258 962 289 992 q 188 932 228 932 m 508 932 q 438 962 468 932 q 407 1032 407 992 q 438 1103 407 1074 q 508 1133 468 1133 q 579 1103 549 1133 q 610 1032 610 1074 q 579 962 610 992 q 508 932 549 932 z "},"˙":{"ha":694,"x_min":246,"x_max":449,"o":"m 347 932 q 276 962 307 932 q 246 1032 246 992 q 276 1103 246 1074 q 347 1133 307 1133 q 418 1103 388 1133 q 449 1032 449 1074 q 418 962 449 992 q 347 932 388 932 z "},"`":{"ha":694,"x_min":178,"x_max":508,"o":"m 178 1113 l 374 1113 l 508 819 l 367 819 l 178 1113 z "},"˝":{"ha":694,"x_min":78,"x_max":644,"o":"m 213 1113 l 382 1113 l 193 819 l 78 819 l 213 1113 m 475 1113 l 644 1113 l 456 819 l 340 819 l 475 1113 z "},"¯":{"ha":694,"x_min":99,"x_max":596,"o":"m 99 1086 l 596 1086 l 596 956 l 99 956 l 99 1086 z "},"˛":{"ha":694,"x_min":194,"x_max":540,"o":"m 363 -364 q 240 -324 286 -364 q 194 -212 194 -283 q 233 -91 194 -154 q 340 21 272 -28 l 489 21 q 340 -178 340 -99 q 355 -217 340 -204 q 396 -231 369 -231 q 488 -187 440 -231 l 540 -285 q 465 -340 514 -317 q 363 -364 415 -364 z "},"˚":{"ha":694,"x_min":160,"x_max":536,"o":"m 347 833 q 245 856 288 833 q 181 916 203 879 q 160 993 160 953 q 210 1106 160 1058 q 347 1153 260 1153 q 485 1106 435 1153 q 536 993 536 1058 q 514 916 536 953 q 449 856 492 879 q 347 833 407 833 m 347 915 q 402 938 382 915 q 422 993 422 960 q 402 1049 422 1028 q 347 1071 382 1071 q 294 1049 314 1071 q 274 993 274 1028 q 294 938 274 960 q 347 915 314 915 z "},"˜":{"ha":694,"x_min":92,"x_max":603,"o":"m 92 872 q 141 1035 99 976 q 249 1093 183 1093 q 303 1081 279 1093 q 358 1044 328 1068 q 401 1016 385 1025 q 438 1007 418 1007 q 474 1029 460 1007 q 500 1103 489 1051 l 603 1097 q 553 937 596 999 q 447 875 511 875 q 388 888 414 875 q 329 925 363 901 q 290 952 306 943 q 257 961 274 961 q 219 939 233 961 q 196 867 206 917 l 92 872 z "},"ु":{"ha":0,"x_min":-604,"x_max":43,"o":"m -236 -428 q -604 -235 -432 -428 l -518 -135 q -383 -249 -449 -207 q -239 -290 -318 -290 q -156 -267 -187 -290 q -125 -206 -125 -243 q -153 -149 -125 -171 q -222 -128 -181 -128 q -360 -167 -293 -128 l -411 -43 q -222 11 -329 11 q -33 -47 -108 11 q 43 -206 43 -106 q -34 -367 43 -306 q -236 -428 -111 -428 z "},"ू":{"ha":0,"x_min":-504,"x_max":142,"o":"m -225 11 q -27 -42 -117 11 q 142 -182 63 -94 l 56 -282 q -79 -167 -14 -208 q -224 -126 -144 -126 q -306 -150 -275 -126 q -337 -211 -337 -174 q -309 -268 -337 -246 q -239 -290 -281 -290 q -101 -251 -172 -290 l -51 -374 q -240 -428 -133 -428 q -429 -369 -354 -428 q -504 -211 -504 -311 q -428 -50 -504 -111 q -225 11 -351 11 z "},"ृ":{"ha":0,"x_min":-415,"x_max":10,"o":"m -181 -375 q -303 -349 -250 -375 q -386 -276 -357 -322 q -415 -174 -415 -231 q -190 75 -415 -22 l -117 -40 q -232 -100 -194 -67 q -269 -169 -269 -133 q -246 -219 -269 -201 q -181 -237 -222 -237 q -111 -226 -147 -237 q -51 -197 -75 -215 l 10 -317 q -75 -358 -26 -342 q -181 -375 -124 -375 z "},"ॄ":{"ha":0,"x_min":-415,"x_max":142,"o":"m 142 -572 q -69 -650 51 -650 q -237 -594 -172 -650 q -303 -451 -303 -539 q -281 -358 -303 -406 q -379 -286 -343 -336 q -415 -174 -415 -236 q -190 75 -415 -22 l -117 -40 q -232 -100 -194 -67 q -269 -169 -269 -133 q -246 -219 -269 -201 q -181 -237 -222 -237 q -111 -226 -147 -237 q -51 -197 -75 -215 l 10 -317 q -121 -369 -47 -356 q -157 -449 -157 -406 q -134 -496 -157 -479 q -69 -512 -111 -512 q 8 -497 -32 -512 q 79 -454 49 -482 l 142 -572 z "},"ॢ":{"ha":0,"x_min":-714,"x_max":69,"o":"m 69 -579 q -17 -632 28 -612 q -119 -651 -61 -651 q -249 -614 -194 -651 q -304 -512 -304 -576 q -281 -430 -304 -468 q -212 -342 -257 -392 q -169 -288 -183 -308 q -156 -250 -156 -268 q -168 -219 -156 -231 q -201 -208 -181 -208 q -274 -253 -243 -208 q -315 -369 -304 -297 l -460 -346 q -428 -222 -450 -281 q -489 -196 -454 -196 q -531 -215 -515 -196 q -547 -268 -547 -235 q -412 -478 -547 -378 l -507 -575 q -662 -418 -610 -492 q -714 -244 -714 -344 q -658 -111 -714 -162 q -518 -60 -601 -60 q -360 -128 -431 -60 q -306 -93 -336 -106 l -306 18 l -137 18 l -137 -81 q -31 -146 -71 -99 q 10 -251 10 -193 q -14 -328 10 -293 q -82 -406 -37 -362 q -125 -453 -111 -435 q -139 -486 -139 -471 q -99 -515 -139 -515 q -47 -500 -75 -515 q 10 -458 -18 -485 l 69 -579 z "},"ॣ":{"ha":0,"x_min":-714,"x_max":171,"o":"m 171 -771 q 1 -829 99 -829 q -136 -785 -83 -829 q -189 -672 -189 -742 q -186 -643 -189 -662 q -271 -594 -237 -629 q -304 -512 -304 -560 q -281 -430 -304 -468 q -212 -342 -257 -392 q -169 -288 -183 -308 q -156 -250 -156 -268 q -168 -219 -156 -231 q -201 -208 -181 -208 q -274 -253 -243 -208 q -315 -369 -304 -297 l -460 -346 q -428 -222 -450 -281 q -489 -196 -454 -196 q -531 -215 -515 -196 q -547 -268 -547 -235 q -412 -478 -547 -378 l -507 -575 q -662 -418 -610 -492 q -714 -244 -714 -344 q -658 -111 -714 -162 q -518 -60 -601 -60 q -360 -128 -431 -60 q -306 -93 -336 -106 l -306 18 l -137 18 l -137 -81 q -31 -146 -71 -99 q 10 -251 10 -193 q -14 -328 10 -293 q -82 -406 -37 -362 q -125 -453 -111 -435 q -139 -486 -139 -471 q -99 -515 -139 -515 q -47 -500 -75 -515 q 10 -458 -18 -485 l 69 -579 q -18 -632 25 -617 q -25 -657 -25 -646 q -12 -683 -25 -674 q 21 -692 0 -692 q 114 -651 67 -692 l 171 -771 z "},"ॅ":{"ha":0,"x_min":-532,"x_max":126,"o":"m -203 1014 q -399 1070 -312 1014 q -532 1215 -485 1126 l -424 1292 q -203 1150 -339 1150 q 18 1292 -67 1150 l 126 1215 q -9 1069 76 1125 q -203 1014 -94 1014 z "},"ँ":{"ha":0,"x_min":-532,"x_max":126,"o":"m 0 1014 m -203 1014 q -399 1070 -312 1014 q -532 1215 -485 1126 l -424 1292 q -203 1150 -339 1150 q 18 1292 -67 1150 l 126 1215 q -9 1069 76 1125 q -203 1014 -94 1014 m -319 1383 q -285 1464 -319 1431 q -204 1497 -251 1497 q -124 1464 -157 1497 q -90 1383 -90 1431 q -124 1302 -90 1336 q -204 1268 -157 1268 q -285 1302 -251 1268 q -319 1383 -319 1336 z "},"ॆ":{"ha":0,"x_min":-904,"x_max":-104,"o":"m -286 868 q -271 944 -271 896 q -299 1028 -271 994 q -393 1061 -326 1061 q -546 1053 -443 1061 q -689 1044 -643 1044 q -848 1088 -792 1044 q -904 1213 -904 1132 q -890 1292 -904 1250 q -854 1365 -876 1333 l -704 1329 q -737 1242 -737 1285 q -722 1198 -737 1213 q -669 1183 -706 1183 q -531 1192 -625 1183 q -393 1200 -436 1200 q -178 1129 -253 1200 q -104 943 -104 1058 q -119 864 -104 899 l -286 868 z "},"े":{"ha":0,"x_min":-721,"x_max":-140,"o":"m -358 1007 q -457 1172 -408 1119 q -575 1224 -506 1224 q -692 1204 -633 1224 l -721 1335 q -576 1364 -657 1364 q -374 1285 -456 1364 q -211 1029 -293 1207 l -140 876 l -300 876 l -358 1007 z "},"ै":{"ha":0,"x_min":-724,"x_max":-108,"o":"m -208 879 l -201 867 l -336 867 l -407 976 q -569 1081 -471 1081 q -694 1056 -636 1081 l -724 1185 q -571 1222 -653 1222 q -448 1190 -507 1222 q -340 1099 -389 1157 q -421 1253 -390 1203 q -485 1328 -451 1303 q -568 1353 -519 1353 q -667 1335 -621 1353 l -696 1465 q -551 1493 -633 1493 q -405 1449 -467 1493 q -287 1306 -343 1404 q -165 1029 -232 1207 l -108 879 l -208 879 z "},"ं":{"ha":0,"x_min":-314,"x_max":-85,"o":"m -314 1114 q -280 1194 -314 1161 q -199 1228 -246 1228 q -118 1194 -151 1228 q -85 1114 -85 1161 q -118 1033 -85 1067 q -199 999 -151 999 q -280 1033 -246 999 q -314 1114 -314 1067 z "},"्":{"ha":0,"x_min":-512,"x_max":99,"o":"m 35 -383 q -124 -274 -43 -319 q -299 -208 -204 -228 l -299 -290 q -376 -304 -339 -304 q -474 -271 -436 -304 q -512 -192 -512 -237 q -472 -110 -512 -137 q -362 -83 -431 -83 q -119 -151 -246 -83 q 99 -306 7 -219 l 35 -383 z "},"़":{"ha":0,"x_min":-115,"x_max":114,"o":"m -115 -178 q -81 -97 -115 -131 q 0 -64 -47 -64 q 81 -97 47 -64 q 114 -178 114 -131 q 81 -259 114 -225 q 0 -293 47 -293 q -81 -259 -47 -293 q -115 -178 -115 -225 z "},"ऺ":{"ha":0,"x_min":-307,"x_max":-137,"o":"m -307 1286 l -137 1286 l -137 889 l -307 889 l -307 1286 z "},"ॖ":{"ha":0,"x_min":-661,"x_max":38,"o":"m -312 -326 q -520 -267 -428 -326 q -661 -111 -612 -208 l -543 -39 q -448 -147 -506 -106 q -312 -189 -390 -189 q -176 -147 -233 -189 q -81 -39 -118 -106 l 38 -111 q -105 -267 -12 -208 q -312 -326 -197 -326 z "},"ॗ":{"ha":0,"x_min":-661,"x_max":38,"o":"m -312 -326 q -520 -267 -428 -326 q -661 -111 -612 -208 l -543 -39 q -448 -147 -506 -106 q -312 -189 -390 -189 q -176 -147 -233 -189 q -81 -39 -118 -106 l 38 -111 q -105 -267 -12 -208 q -312 -326 -197 -326 m -312 -624 q -520 -565 -428 -624 q -661 -408 -612 -506 l -543 -336 q -447 -444 -504 -401 q -312 -486 -390 -486 q -176 -444 -233 -486 q -81 -336 -119 -401 l 38 -408 q -105 -565 -12 -506 q -312 -624 -197 -624 z "},"॑":{"ha":0,"x_min":-306,"x_max":-139,"o":"m -306 1414 l -139 1414 l -139 1042 l -306 1042 l -306 1414 z "},"॒":{"ha":0,"x_min":-596,"x_max":143,"o":"m -596 -244 l 143 -244 l 143 -381 l -596 -381 l -596 -244 z "},"॓":{"ha":0,"x_min":-599,"x_max":-121,"o":"m -599 1414 l -411 1414 l -121 1051 l -287 1051 l -599 1414 z "},"॔":{"ha":0,"x_min":-311,"x_max":165,"o":"m -21 1414 l 165 1414 l -146 1051 l -311 1051 l -21 1414 z "},"ः":{"ha":533,"x_min":150,"x_max":381,"o":"m 265 524 q 184 558 218 524 q 150 639 150 592 q 184 720 150 686 q 265 754 218 754 q 347 720 313 754 q 381 639 381 686 q 347 558 381 592 q 265 524 314 524 m 265 75 q 184 109 218 75 q 150 190 150 143 q 184 272 150 238 q 265 306 218 306 q 347 272 313 306 q 381 190 381 238 q 347 109 381 143 q 265 75 314 75 z "}}}
